<?xml version="1.0" encoding="UTF-8"?>
<svg id="Capa_1" data-name="Capa 1" xmlns="http://www.w3.org/2000/svg" viewBox="0 0 841.89 595.28">
  <defs>
    <style>
      .cls-1 {
        fill: #080509;
      }

      .cls-1, .cls-2, .cls-3, .cls-4, .cls-5 {
        stroke-width: 0px;
      }

      .cls-6 {
        fill: #080508;
      }

      .cls-6, .cls-7 {
        stroke: #fff;
        stroke-miterlimit: 10;
      }

      .cls-2 {
        fill: #090709;
      }

      .cls-3 {
        fill: #211915;
      }

      .cls-4 {
        fill: #fff;
      }

      .cls-7, .cls-5 {
        fill: #080609;
      }
    </style>
  </defs>
  <path class="cls-3" d="M446.59,225.16l1.78.78c1.58,1.74.34,3.5.02,5.24-.38,2-.24,3.86,1.92,4.62,2.39.84,3.72-.65,4.61-2.66.4-.91.72-1.86,1.01-2.81,4.92-16.1,14.08-29.75,24.64-42.59.08-.1.18-.21.28-.32,4.76-5.29,6.38-5,8.53,1.77,6.27,19.72,10.92,39.76,12.52,60.47.36,4.68.73,9.35.75,14.05,0,1.85,0,3.84,1.91,4.91,2.22,1.25,3.74-.32,5.28-1.58.33-.27.73-.43,1.14-.56l1.5,1.07c.33,3.83,2.23,6.88,4.52,9.88,12.11,15.9,19.1,33.87,21.4,53.7.05.42.08.85.11,1.28.56,8.94.11,9.4-8.89,9.45-1.85,0-3.72-.16-5.52.38-1.75.52-3.22,1.46-3.02,3.55.17,1.82,1.55,2.67,3.2,2.96,2.82.49,5.68.17,8.53.26,2.7.09,4.82.68,4.68,4.07-.17,4-1.74,5.83-5.24,5.78-2.42-.04-4.76-.94-7.21-.66-1.82.21-3.49.83-3.77,2.84-.3,2.12,1.36,2.93,3.03,3.54,1.49.54,3.08.54,4.61.88,2.53.56,3.29,2.02,2.09,4.39-1.63,3.2-3.83,5.98-6.21,8.65-10.55,11.81-23.98,19.03-38.64,24.29-5.64,2.02-11.37,3.71-17.22,4.99-1.76.39-3.6,1.19-5.25-.37-.04-.29-.13-.62,0-.84,6.84-11.17,4.27-22.93,2.04-34.61-.9-4.72-2.27-9.35-4.17-13.8-.6-1.42-1.23-2.9-.56-4.5,1.18-1.24,2.6-.72,4-.57,5.31.55,10.5-.06,15.52-1.93,2.33-.87,4.25-2.28,5.71-4.3,18.41-12.69,20.49-31.08,17.21-50.94-1.5-9.07-7.57-15.19-16.19-18.41-11.17-4.17-22.81-4.66-34.54-3.7-5.37.44-10.76.98-15.94,2.82-5.78,2.05-10.89,4.97-14.47,10.07-1.8,2.57-4.18,3.27-7.08,2.76-12.6-2.2-25.2-2.2-37.81-.02-2.48.43-4.92.28-6.54-2.04-5.47-7.83-13.53-11.15-22.48-12.57-13.62-2.17-27.23-2.24-40.6,1.81-12,3.64-18.44,11.99-19.65,24.24-.72,7.23-.29,14.48,1.24,21.67,2.24,10.52,8.3,18.24,16.9,24.25,5.47,6.34,12.85,6.56,20.35,6.25,1.67-.07,3.35-.88,4.87.46.86,1.92-.1,3.6-.75,5.29-4.35,11.38-6.55,23.11-6.05,35.33.14,3.35.86,6.43,2.56,9.3.71,1.2,1.73,2.28,1.64,3.83-1.23,1.51-2.83,1.06-4.34.72-15.5-3.57-30.36-8.74-43.58-17.86-7.21-4.97-13.5-10.93-18.31-18.29-2.93-4.48-2.26-5.71,2.92-6.7,2.43-.47,5.91-.52,5.59-3.92-.35-3.67-3.81-3.05-6.49-2.93-1.14.05-2.24.41-3.38.51-4.44.38-6.94-2.4-6.23-6.82.34-2.14,1.77-2.75,3.62-2.9,2.7-.21,5.41,0,8.11-.15,2.26-.13,4.55-.67,4.61-3.39.06-2.74-2.25-3.36-4.47-3.57-2.69-.26-5.41-.13-8.11-.11-3.42.03-4.86-1.6-4.87-4.97-.04-8.78,1.71-17.27,4.24-25.6,3.66-12.08,9.2-23.29,16.91-33.33,2.36-3.08,4.47-6.2,5.15-10.1.43-.46.85-.91,1.28-1.37,2.14.73,3.62,3.84,6.41,2.12,2.67-1.64,1.87-4.54,1.94-7.02.72-25.54,5.95-50.23,13.95-74.39,1.47-4.45,3.37-4.73,6.91-.66,10.63,12.21,19.59,25.49,24.89,40.97.65,1.88,1.18,3.81,1.96,5.64.86,2.02,2.21,3.51,4.6,2.67,2.16-.76,2.3-2.62,1.92-4.62-.33-1.74-1.56-3.5,0-5.24.6-.26,1.19-.52,1.79-.78,4.19,2.31,8.41,1.66,12.71.27,3.39-1.09,6.93-1.69,10.48-2.04,3.72-.37,4.93.71,5.22,4.44.21,2.7.05,5.41.09,8.12.02,1.43-.02,2.87.44,4.24.58,1.74,1.54,3.16,3.63,2.96,1.96-.19,2.46-1.8,2.64-3.4.43-3.98.11-7.97.21-11.96.15-5.67,4.3-8.23,9.55-5.94,2.33,1.02,2.26,3.11,2.3,5.08.11,6.41-.06,12.83.09,19.24.06,2.5-.89,6.33,3.18,6.17,3.59-.14,2.73-3.76,2.78-6.16.13-6.41-.06-12.83.09-19.24.11-4.53,1.16-5.46,5.67-5.51,4.82-.06,5.96.92,6.15,5.51.17,3.99-.12,7.99.15,11.97.14,1.99.38,4.29,3.15,4.23,2.51-.06,3.2-2.13,3.46-4.18.41-3.12.12-6.26.2-9.4.14-5.81,1.37-6.88,6.98-5.91,3.09.53,6.22.98,9.2,1.92,4.2,1.32,8.27,1.78,12.3-.4Z"/>
  <path class="cls-6" d="M463.78,407.51c24.53-5.01,47.37-13.2,63.51-33.91.18-.22.37-.44.53-.67q3.9-5.53-2.63-6.75c-2.81-.52-5.55-1.42-5.6-4.78-.04-2.71,1.61-4.61,4.57-4.5,2.4.09,4.79.65,7.19.81,1.81.12,3.77,1.02,4.51-2.18,1.24-5.44,1.53-5.38-4.02-5.38-2.42,0-4.85-.01-7.27,0-3.05.02-4.97-1.44-5.08-4.51-.11-3.18,2.05-4.58,4.91-4.74,3.27-.18,6.57-.23,9.83,0,2.71.19,3.34-.76,3.26-3.37-.75-22.82-8.71-42.93-22.46-60.94-2.05-2.68-4.86-5.12-2.58-9.02,3-2.58,5.59-2.09,8.01.92,16.14,20.12,25.45,42.87,26.23,68.81.09,3.14,1.03,3.82,3.87,3.59,2.97-.24,5.98-.06,8.98-.05,3.15,0,5.41,1.37,5.45,4.67.04,3.3-2.04,4.75-5.32,4.66-3.13-.09-6.28.12-9.41-.06-2.76-.16-4.66.1-4.55,3.65.06,1.78-.77,3.59-1.25,5.65,4.96.67,9.87,1.3,14.77,2.03,2.96.44,5.76,1.29,5.56,5.13-.18,3.5-2.43,4.6-5.57,4.24-5.23-.6-10.45-1.25-15.66-2.01-1.55-.23-2.62-.24-3.45,1.41-9.19,18.31-24.83,29.26-43.03,37.03-18.84,8.04-38.74,11.82-59.03,13.96-19.89,2.09-39.82,2.42-59.77,1.64-29.69-1.15-58.97-4.72-86.39-17.19-16.82-7.65-31.04-18.42-39.55-35.44-.83-1.65-1.9-1.63-3.45-1.41-4.92.72-9.88,1.24-14.81,1.92-3.16.44-5.89.05-6.39-3.72-.53-4.02,2.33-5.1,5.52-5.56,4.78-.69,9.57-1.29,14.28-1.92.15-.35.36-.59.32-.77q-1.86-8.6-10.74-8.6c-1.43,0-2.85-.06-4.28.01-3.28.15-5.36-1.32-5.34-4.63.03-3.31,2.28-4.67,5.42-4.69,3.14-.01,6.28-.14,9.41.04,2.39.13,3.39-.26,3.46-3.12.65-25.95,9.86-48.74,25.96-68.88,3.07-3.84,4.54-3.94,8.51-1,1.2,2.69.32,4.81-1.44,7.02-14.47,18.2-22.92,38.72-23.82,62.17-.11,2.93.53,4.12,3.65,3.84,2.97-.27,5.99-.13,8.98-.03,3.04.1,5.44,1.34,5.37,4.74-.07,3.32-2.28,4.62-5.47,4.55-2.85-.06-5.71-.08-8.55.02-1.31.05-3.75-.81-2.93,1.97.61,2.09-.67,5.72,3.37,5.65,2.69-.05,5.36-.6,8.04-.91,3.1-.35,5.14,1.16,5.44,4.09.28,2.78-1.58,4.41-4.34,4.89-.28.05-.56.13-.82.23-1.97.73-5.28-.63-5.85,1.38-.58,2.08,1.91,4.19,3.32,6.11,10.28,13.98,24.74,21.94,40.58,27.75,7.44,2.73,15,5.18,22.93,6.19,1.37-.75,2.78-.36,4.16-.11,16.11,2.86,32.34,4.18,48.71,4.96,26.11,1.24,51.92-.58,77.63-4.88,1.52-.25,3.06-.78,4.58.03Z"/>
  <path class="cls-5" d="M378.17,245c-1.91-3.2-4.84-2.42-4.9-5.6-.07-3.84-.3-7.71.06-11.52.36-3.74-1.46-3.96-4.21-3.38-5.27,1.12-10.62,1.95-15.76,3.49-3.56,1.06-5.69.02-7.47-2.82-.14-3.32,1.31-5.14,4.66-6.03,30.32-8.02,60.62-8.01,90.97-.13,3.43.89,5.26,2.56,5.07,6.16-1.78,2.83-3.9,3.89-7.47,2.82-5.14-1.54-10.49-2.37-15.76-3.49-2.75-.58-4.57-.36-4.21,3.38.36,3.81.14,7.68.06,11.52-.06,3.18-1.18,5.71-4.9,5.6-3.48-.1-4.44-2.43-4.39-5.54.07-4.55-.15-9.12.06-13.66.22-4.69-3.22-2.8-5.3-3.1-2.12-.31-4.14-.52-4.01,3.03.29,7.53.06,15.09.1,22.63.02,3.19-.76,5.87-4.52,5.88-3.77,0-4.53-2.69-4.52-5.88.04-7.55-.19-15.1.1-22.63.13-3.54-1.89-3.33-4.01-3.03-2.08.3-5.53-1.59-5.3,3.1.21,4.55-1.87,9.54.06,13.66"/>
  <path class="cls-7" d="M344.1,225.95c.38,1.65.64,3.33,1.17,4.93,1.03,3.08.36,5.44-2.85,6.44-3.29,1.02-5.15-.84-6-3.8-2.26-7.95-5.52-15.48-9.6-22.65-5.58-9.78-12.15-18.83-20.36-27.36-3.56,8.99-5.94,17.83-8.15,26.72-4.44,17.86-7.17,35.94-7.28,54.37-.02,2.78-.45,5.24-3.55,5.97-3.34.79-4.98-1.26-5.97-4.09.56-29.82,6.18-58.69,16.31-86.7,2.85-7.89,9.25-9.3,15-3.16,13.15,14.04,23.89,29.63,30.43,47.88.19.52.57.97.85,1.45Z"/>
  <path class="cls-7" d="M510.97,266.49c-1,2.82-2.64,4.88-5.98,4.08-3.38-.8-3.51-3.54-3.54-6.4-.36-27.52-6.05-54.03-15.01-80.04-1.73.09-2.31,1.37-3.08,2.23-12.11,13.64-21.76,28.74-27.09,46.33-.98,3.25-2.43,5.73-6.21,4.6-3.78-1.14-3.83-4-2.58-7.22.5-1.29.61-2.74.89-4.12,5.72-14.65,13.34-28.2,23.39-40.33,2.82-3.4,5.7-6.76,8.8-9.89,4.77-4.81,11.3-3.52,13.66,2.85,6.61,17.89,11.28,36.29,14.08,55.16,1.61,10.86,2.33,21.79,2.67,32.75Z"/>
  <path class="cls-4" d="M463.78,407.51c-10.57,3.04-21.47,4.03-32.34,5-18.89,1.68-37.83,1.97-56.77.93-15.46-.85-30.89-2.06-45.97-5.92-7.34-7.57-5.47-16.95-4.79-25.93.73-9.72,3.84-18.92,7.46-27.93.39-1.82,2.13-1.9,3.37-2.64,7.59-2.39,15.4-4.14,22.06-8.93,9.16-6.59,15.41-15.05,17.75-26.23.49-2.32.42-4.89,2.44-6.67,12.8-4.53,25.6-4.47,38.41-.08,1.81,1.31,1.89,3.42,2.26,5.32,3.5,17.62,14.56,28.29,31.11,33.94,2.95,1.01,6.1,1.36,8.97,2.64,1.23.73,2.98.84,3.36,2.65,5.22,12.78,8.42,25.94,8.02,39.88-.16,5.36-1.57,10.08-5.33,13.98Z"/>
  <path class="cls-1" d="M457.49,351.84c-5.66-1.61-11.5-2.72-16.79-5.47-14.72-7.65-22.92-19.8-24.94-36.2-1.58-2.48-1.13-5.25-.99-7.91.13-2.38-.42-3.64-3.04-4.08-10.35-1.74-20.66-1.74-31.01,0-2.61.44-3.17,1.69-3.04,4.07.14,2.66.59,5.44-.99,7.91-3.45,22.4-16.34,35.96-38.78,40.82-.96.21-1.89.54-2.84.81-7.17,1.63-14.3,1.8-21.47-.14-2.97-.8-5.51-2.22-7.92-4.01-13.14-7.83-17.83-20.36-18.88-34.68-.43-5.93-.57-11.96.98-17.82,2.9-10.98,10.42-17.45,21.02-20.13,15.1-3.83,30.38-3.82,45.51-.03,7.16,1.8,13.56,5.29,17.48,11.93,1.18,2,2.66,1.91,4.28,1.59,13.43-2.63,26.83-2.61,40.27-.03,1.22.23,2.76.91,3.8-.85,5.71-9.64,15.31-12.75,25.43-14.25,12.43-1.84,24.92-1.66,37.23,1.46,14.97,3.8,22.8,14.04,22.96,29.59.09,8.87-.64,17.52-3.98,25.85-3.03,7.56-8.23,13.14-15.04,17.38-9.03,6.49-19.03,6.21-29.28,4.2Z"/>
  <path class="cls-2" d="M396.09,359.4c-5.42,0-10.84-.05-16.25.02-3.38.05-6.32-.94-6.39-4.66-.07-3.74,2.72-4.96,6.21-4.65.57.05,1.14.05,1.71,0,3.36-.29,8.51,1.54,9.68-.71,1.7-3.28.55-8,.7-12.11.07-1.91-1.55-1.85-2.59-2.28-4.04-1.68-7.42-4.17-9.95-7.74-1.87-2.64-1.47-5,1.59-6.2,10.21-4,20.52-4.03,30.75-.06,3.35,1.3,3.59,3.77,1.59,6.49-2.59,3.52-5.95,6.11-10.08,7.56-1.72.6-2.48,1.43-2.36,3.37.19,2.98.2,6,0,8.98-.17,2.43.93,2.84,3,2.75,3.27-.13,6.56.06,9.83-.06,3.27-.12,5.46,1.35,5.51,4.53.05,3.21-2.27,4.73-5.4,4.76-5.84.04-11.69.01-17.53.01Z"/>
  <path class="cls-3" d="M376.71,310.16c-.06-3.12.19-6.3-.29-9.36-.39-2.5.48-3.28,2.65-3.64,11.45-1.92,22.88-1.92,34.33,0,2.18.37,3.03,1.16,2.65,3.65-.47,3.06-.22,6.23-.28,9.36-13.02-4.2-26.04-4.2-39.06,0Z"/>
  <path class="cls-4" d="M296.17,308.16c-.2-7.94.5-14.75,6.51-19.77,3.98-3.33,8.78-4.47,13.69-5.31,12.58-2.16,25.1-2.11,37.38,1.75,8.44,2.66,12.81,8.5,13.4,17.23,1.37,20.01-10.16,35.24-29.88,39.38-6.89,1.45-13.81,1.52-20.68-.02-10.68-2.4-18.01-11.1-19.56-23.08-.47-3.65-1.48-7.26-.86-10.18Z"/>
  <path class="cls-4" d="M496.34,308.01c.31,4.26-.44,9.02-1.7,13.68-4.28,15.87-12.19,19.37-24.67,20.57-12.03,1.16-23.37-1.48-32.94-9.71-7.2-6.19-10.7-14.12-11.64-23.31-.3-2.95-.21-6,.2-8.94,1.19-8.48,6.11-13.85,14.39-15.98,13.69-3.51,27.49-3.8,41.13-.06,11.03,3.02,15.21,9.14,15.23,20.57,0,.85,0,1.71,0,3.17Z"/>
</svg>