<?xml version="1.0" encoding="UTF-8"?>
<svg id="Capa_1" data-name="Capa 1" xmlns="http://www.w3.org/2000/svg" viewBox="0 0 595.28 841.89">
  <defs>
    <style>
      .cls-1 {
        stroke: #433f8d;
        stroke-miterlimit: 10;
      }

      .cls-1, .cls-2 {
        fill: #433f8d;
      }

      .cls-3 {
        fill: #fff;
      }

      .cls-3, .cls-2 {
        stroke-width: 0px;
      }
    </style>
  </defs>
  <path class="cls-1" d="M533.62,271.17v331.4c-.55,1.53-1.27,3.02-1.63,4.59-7.31,31.76-32.92,52.82-65.18,52.86-104.77.13-209.55.18-314.32-.03-36.09-.07-65.14-28.8-65.23-64.76-.26-105.43-.15-210.87-.03-316.3.02-13.48,4.22-25.82,11.76-37.16,10.53-15.84,26.39-23.03,43.69-28.16,111.13,0,222.26,0,333.39,0,9.63,3.97,19.91,6.86,28.74,12.16,16.86,10.12,24.59,26.83,28.81,45.39ZM166.81,528.92c24.51,0,48.21.02,71.91-.02,3.63,0,7.29.02,10.87-.45,14.61-1.95,27.15-7.9,36.34-19.78,17.27-22.33,15.18-47.53-5.98-71.81.79-.94,1.58-1.95,2.43-2.89,14.05-15.38,19.05-33.15,12.17-53-6.95-20.05-21.42-32.73-42.67-34.89-17.01-1.73-34.27-1-51.42-1.22-11.11-.14-22.22-.03-33.65-.03v184.09ZM453.41,476.02c5.68-38.16-17.13-69.84-51.77-77.3-32.45-6.99-66.23,13.72-75.64,45.78-9.73,33.16,7.76,67.79,40.46,80.15,29.19,11.03,64.96-2.17,78.19-29.42-6.97-4.04-13.99-8.1-20.86-12.09-17.46,17.75-30.23,22.38-46.54,17.03-11.75-3.85-20.3-10.94-24.57-24.15h100.73ZM441.04,345.44h-104.68c0,6.11.42,11.69-.1,17.18-.69,7.35,1.91,9.7,9.43,9.56,24.44-.45,48.89-.17,73.34-.17,7.15,0,14.3,0,22.02,0v-26.57Z"/>
  <path class="cls-3" d="M166.81,528.92v-184.09c11.43,0,22.54-.12,33.65.03,17.15.22,34.41-.51,51.42,1.22,21.25,2.16,35.72,14.84,42.67,34.89,6.88,19.85,1.88,37.62-12.17,53-.86.94-1.64,1.94-2.43,2.89,21.16,24.29,23.25,49.48,5.98,71.81-9.19,11.88-21.73,17.84-36.34,19.78-3.58.48-7.25.45-10.87.45-23.7.04-47.4.02-71.91.02ZM193.07,423.66c18.65,0,36.74.84,54.7-.27,13.47-.83,22.79-12.34,23.12-25.27.31-12.15-8.71-24.84-20.31-25.45-18.95-1-38-.27-57.51-.27v51.26ZM193.13,449.88v51.85c17.3,0,34.03.14,50.76-.04,16.01-.18,26.87-10.49,27.05-25.27.17-14.28-11.04-26.01-26.32-26.44-16.78-.47-33.58-.11-51.49-.11Z"/>
  <path class="cls-3" d="M453.41,476.02h-100.73c4.27,13.21,12.82,20.3,24.57,24.15,16.3,5.35,29.08.72,46.54-17.03,6.87,3.98,13.89,8.05,20.86,12.09-13.22,27.25-48.99,40.45-78.19,29.42-32.71-12.36-50.19-46.99-40.46-80.15,9.41-32.06,43.19-52.78,75.64-45.78,34.64,7.47,57.45,39.15,51.77,77.3ZM353.37,448.84h71.33c-7.43-16.75-21.07-25.52-37.65-24.84-15.24.62-28.29,10.13-33.68,24.84Z"/>
  <path class="cls-3" d="M441.04,345.44v26.57c-7.72,0-14.87,0-22.02,0-24.45,0-48.9-.29-73.34.17-7.52.14-10.12-2.21-9.43-9.56.52-5.49.1-11.07.1-17.18h104.68Z"/>
  <path class="cls-2" d="M193.07,423.66v-51.26c19.51,0,38.55-.73,57.51.27,11.61.61,20.62,13.29,20.31,25.45-.32,12.93-9.65,24.44-23.12,25.27-17.96,1.11-36.05.27-54.7.27Z"/>
  <path class="cls-2" d="M193.13,449.88c17.91,0,34.71-.36,51.49.11,15.27.43,26.48,12.15,26.32,26.44-.18,14.78-11.04,25.1-27.05,25.27-16.73.18-33.46.04-50.76.04v-51.85Z"/>
  <path class="cls-2" d="M353.37,448.84c5.39-14.71,18.44-24.23,33.68-24.84,16.58-.67,30.22,8.09,37.65,24.84h-71.33Z"/>
</svg>