<?xml version="1.0" encoding="UTF-8"?>
<svg id="Capa_1" data-name="Capa 1" xmlns="http://www.w3.org/2000/svg" viewBox="0 0 595.28 841.89">
  <defs>
    <style>
      .cls-1 {
        fill: #050006;
      }

      .cls-1, .cls-2, .cls-3 {
        stroke-miterlimit: 10;
      }

      .cls-1, .cls-3 {
        stroke: #5b4d94;
      }

      .cls-4, .cls-5 {
        stroke-width: 0px;
      }

      .cls-2 {
        fill: #8577ae;
        stroke: #211915;
        stroke-width: 2px;
      }

      .cls-3 {
        fill: #fff;
      }

      .cls-5 {
        fill: #ac1b74;
      }
    </style>
  </defs>
  <g>
    <path class="cls-4" d="M442.2,350.32c21.58,29.56,32.41,62.79,37.35,98.11,6.24,44.55,2.47,88.65-7.23,132.34-6.82,30.72-14.67,61.18-27.75,89.96-8.01,17.63-18.15,33.84-33.98,45.72-21.22,15.93-45.7,19-70.76,15.44-78.8-11.2-145.91-45.9-200.01-104.32-50.51-54.55-72.19-119.34-65.11-193.63,2.05-21.52,6.5-42.26,16.03-61.8,1.02-2.08,1.44-4.73,1.3-7.07-3.18-53.06,29.21-101.76,79.41-119.23,1.23-.43,2.4-1.03,3.99-1.72-10.01-25.14-9.72-51.17-9.22-77.36.25-12.98,5.85-20.56,17.8-25.07,26.18-9.9,51.31-9.71,75.68,5.39,7.09,4.39,9.93,10.22,9.74,18.34-.28,12.01-.07,24.02-.07,37.04,4.28-3.19,7.89-6.29,11.89-8.76,7.01-4.32,14.05-8.71,21.5-12.17,4.08-1.89,4.92-4.53,5.19-8.28.87-12.24,1.94-24.48,2.76-36.72,1.29-19.33,13.75-29.66,33.09-26.87,13.44,1.94,26.14,10.04,22.69,28.25-1.85,9.73-1.7,19.85-2.47,29.95,4.92,0,9.18.48,13.23-.22,1.72-.3,3.67-2.82,4.38-4.75,3.45-9.42,6.45-19,9.72-28.48,3.14-9.11,9.18-13.31,18.72-12.87,8.54.39,16.11,3.12,21.93,9.81,5.83,6.69,7.6,13.84,3.64,22.2-3.43,7.23-6.44,14.65-9.73,22.22,4.74,4.4,8.84,5.53,13.24-.27,2.27-3,5.3-5.41,7.99-8.09,7.75-7.73,15.72-9.02,25.53-4.16,8.47,4.2,14.33,14.75,12.28,23.91-.81,3.61-3.44,7.17-6.1,9.93-3.98,4.14-8.71,7.56-13.12,11.29,2.01,5.05,3.6,9.91,5.92,14.4.94,1.83,3.26,3.27,5.28,4.16,8.55,3.77,17.32,7.08,25.83,10.93,5.77,2.61,9.6,7.22,10.99,13.54,4.93,22.39.66,42.44-14.96,59.75-7.06,7.82-15.22,10.41-25.26,6.82-2.48-.89-5.11-1.37-8.27-2.2-3.62,14.17-11.31,25.61-23.01,34.55ZM264.53,305.15c2.59,1.48,4.31,2.48,6.05,3.44,29.78,16.64,50.03,41.3,60.8,73.54,2.66,7.95,3.57,16.52,4.86,24.87.24,1.54-1.58,3.4-2.45,5.11-1.35-1.48-2.76-2.9-4-4.46-.36-.45-.21-1.3-.34-1.96-8.45-42.56-44.62-93.81-106.15-101.45-41.17-5.11-75.83,6.25-102.2,39.51-20.82,26.26-32.49,55.87-35.72,89.34-5.72,59.29,6.51,113.98,42.05,162.02,53.43,72.2,126.17,112.86,214.4,126.2,16.57,2.51,33.4,1.32,49.23-5.89,19.15-8.71,31.97-23.87,40.03-42.4,8.68-19.97,16.18-40.6,22.27-61.51,15.55-53.37,23.51-107.69,15.64-163.37-4.78-33.83-15-65.7-36.13-93.17-12.49-16.24-27.5-29.31-48.03-34.43-7.46-1.86-14.8-2.81-21.59,2.75-1.63,1.33-4.96.57-7.5.78,1.08-2.18,1.64-4.94,3.31-6.46,18.15-16.53,40.14-22.57,63.83-19.74,18.49,2.21,36.68,7.17,54.91,11.33,5.24,1.2,9.05.16,12.65-3.55,11.61-11.94,16.04-26.18,15.26-42.73-.48-10.04-4.74-16.02-13.89-19.69-53.21-21.37-106.33-23.55-158.98,1.3-28.27,13.35-50.16,34.34-68.29,60.62ZM460.9,221.76c-1.89-3.63-3.01-6.59-4.81-9.07-3.21-4.43-2.28-7.62,1.87-10.77,4.44-3.37,8.96-6.77,12.72-10.84,2.28-2.47,5.14-6.94,4.28-9.23-1.54-4.1-5.01-8.5-8.86-10.51-7.81-4.08-12,2.88-16.62,7.53q-13.53,13.62-30.35,5.38c-.2-.1-.41-.17-.62-.26-3.95-1.77-5.22-4.36-3.25-8.57,3.31-7.06,6.32-14.27,9.44-21.42,5.42-12.39.83-20.47-12.59-22.59-6.33-1-10.14,1.15-12.11,7.43-3.54,11.27-7.59,22.38-11.24,33.62-1.21,3.73-3.21,5.26-7.26,5.32-6.66.1-13.33.7-19.95,1.48-6.42.75-8.21-.43-7.79-6.95.76-11.8,1.95-23.58,2.79-35.38.88-12.51-6.36-19.09-19.1-17.58-13.27,1.58-16.39,4.99-17.22,18.15-.82,12.92-2.1,25.81-2.76,38.74-.34,6.62-2.47,10.51-9.13,13.51-44.98,20.28-67.9,57.51-79.1,104.26,6.07,1.57,11.74,2.24,16.67,4.51,7.05,3.24,10.54,1.1,14.97-4.93,41.45-56.45,97.53-81.4,167.15-76.1,10.61.81,21.13,2.7,32.85,4.23ZM183.89,241.17c10.5.65,18.74.84,26.87,1.88,2.19.28,4.05,3.16,6.06,4.84-2.32,1.18-4.56,3.12-6.99,3.41-8.84,1.06-18.04.35-26.56,2.48-40.5,10.12-64.56,37.48-77.36,76.04-1.05,3.17-1.83,6.44-2.47,9.72-.64,3.27-.94,6.6-1.38,9.9,14.39-18.47,29.88-34.88,50.65-45.52,20.98-10.75,43.55-12.1,66.33-10.89.51-1.05.91-1.61,1.05-2.22,6.44-28.59,18.4-54.42,37.79-76.63,1.14-1.31,1.68-3.58,1.66-5.4-.2-14.05-.92-28.1-.8-42.14.05-5.43-1.63-8.6-6.27-11.25-23.45-13.39-46.94-11.81-70.33-.26-2.17,1.07-4.21,4.83-4.27,7.39-.36,15.82-.89,31.7.16,47.46.72,10.73,3.92,21.3,5.87,31.2ZM388.37,311.04c19.88,6.01,34.72,17.36,47.66,31.5,9.9-7.88,17.11-16.7,19.12-29.52-22-5.58-43.41-9.66-66.78-1.98Z"/>
    <path class="cls-5" d="M264.53,305.15c18.13-26.28,40.02-47.27,68.29-60.62,52.66-24.86,105.77-22.67,158.98-1.3,9.15,3.68,13.42,9.65,13.89,19.69.78,16.55-3.65,30.79-15.26,42.73-3.6,3.71-7.41,4.74-12.65,3.55-18.23-4.16-36.41-9.12-54.91-11.33-23.7-2.83-45.68,3.21-63.83,19.74-1.68,1.53-2.24,4.28-3.31,6.46,2.55-.2,5.88.55,7.5-.78,6.8-5.55,14.13-4.61,21.59-2.75,20.52,5.12,35.54,18.2,48.03,34.43,21.12,27.47,31.34,59.34,36.13,93.17,7.88,55.68-.08,110-15.64,163.37-6.09,20.9-13.59,41.54-22.27,61.51-8.05,18.53-20.88,33.68-40.03,42.4-15.83,7.2-32.66,8.39-49.23,5.89-88.23-13.34-160.97-54-214.4-126.2-35.55-48.03-47.78-102.73-42.05-162.02,3.23-33.47,14.9-63.09,35.72-89.34,26.37-33.25,61.03-44.62,102.2-39.51,61.53,7.63,97.7,58.89,106.15,101.45.13.66-.02,1.5.34,1.96,1.24,1.56,2.65,2.99,4,4.46.87-1.71,2.69-3.57,2.45-5.11-1.29-8.35-2.21-16.91-4.86-24.87-10.77-32.24-31.02-56.9-60.8-73.54-1.73-.97-3.45-1.97-6.05-3.44ZM103.25,461.25c.04,47.2,12.63,89.45,39.82,126.16,47.25,63.79,109.26,104.18,189.36,113.76,1.9.23,4.02-1.41,6.03-2.18-1.59-1.37-2.98-3.52-4.79-3.98-11.45-2.89-23.03-5.25-34.5-8.05-72.84-17.79-148.17-87.13-171.06-150.43-15.76-43.59-19.39-87.7-7.68-132.81.79-3.05,4.29-7.18-.89-8.9-1.27-.42-4.3,4.23-6.39,6.66-.53.62-.54,1.68-.83,2.52-6.58,18.99-8.72,38.66-9.08,57.24ZM254.17,645.45c2.4-1.61,3.9-2.62,5.4-3.62-1.1-1.44-1.89-3.5-3.35-4.22-4.97-2.47-10.43-4.02-15.25-6.71-28.68-16-50.99-38.84-68.64-66.2-6.12-9.49-10.4-20.15-15.82-30.12-.96-1.76-3.38-2.73-5.12-4.07-.63,2.27-1.56,4.51-1.77,6.81-.13,1.43.78,2.98,1.32,4.44,14.66,39.3,40.46,69.46,75.95,91.28,8.41,5.17,18.09,8.29,27.29,12.4ZM449.26,430.97c-.24-2.05-.28-2.95-.45-3.82-4.57-23.59-13.64-45.15-29.26-63.6-8.6-10.15-18.75-18.46-31.42-23.09-1.66-.61-3.94.49-5.93.8.85,1.76,1.23,4.33,2.63,5.17,25.46,15.17,39.97,38.75,50.55,65.35,2.54,6.4,4.21,13.14,6.69,19.57.54,1.4,2.93,3.07,4.27,2.91,1.28-.15,2.3-2.52,2.92-3.28ZM458.22,511.5c-1.18-11.96-1.78-20.63-3.06-29.19-.33-2.24-2.77-4.16-4.25-6.23-.87,2.29-2.59,4.63-2.49,6.88,1.05,23.07-1.52,45.78-5.74,68.41-.48,2.58.86,5.49,1.36,8.25,2.1-2.02,4.38-3.89,6.22-6.13.92-1.12,1.23-2.86,1.5-4.38,2.36-13.54,4.65-27.09,6.45-37.61ZM499.05,269.92c-.55-.2-1.11-.4-1.66-.6,0-1.33.4-2.83-.07-3.97-1.43-3.42-3.19-6.7-4.83-10.03-3.22,1.93-7.46,3.12-9.49,5.91-6.6,9.13-7.76,19.75-5.25,30.53.58,2.5,3.37,5.61,5.71,6.22,1.78.46,5.63-2.08,6.56-4.17,3.45-7.77,6.08-15.9,9.02-23.89ZM298.04,377.2c3.24-15.13-26.38-46.74-40.06-42.94,13.29,14.24,26.55,28.46,40.06,42.94Z"/>
    <path class="cls-5" d="M460.9,221.76c-11.71-1.54-22.24-3.43-32.85-4.23-69.62-5.3-125.7,19.65-167.15,76.1-4.43,6.03-7.92,8.17-14.97,4.93-4.93-2.27-10.6-2.94-16.67-4.51,11.2-46.75,34.12-83.98,79.1-104.26,6.66-3,8.79-6.9,9.13-13.51.66-12.93,1.94-25.82,2.76-38.74.83-13.17,3.95-16.58,17.22-18.15,12.74-1.51,19.98,5.07,19.1,17.58-.83,11.8-2.02,23.57-2.79,35.38-.42,6.52,1.37,7.7,7.79,6.95,6.62-.78,13.29-1.38,19.95-1.48,4.06-.06,6.05-1.59,7.26-5.32,3.64-11.24,7.7-22.35,11.24-33.62,1.97-6.29,5.78-8.43,12.11-7.43,13.42,2.12,18.01,10.2,12.59,22.59-3.12,7.15-6.13,14.35-9.44,21.42-1.97,4.21-.7,6.8,3.25,8.57.2.09.42.16.62.26q16.83,8.25,30.35-5.38c4.62-4.65,8.81-11.61,16.62-7.53,3.85,2.01,7.32,6.4,8.86,10.51.85,2.28-2,6.76-4.28,9.23-3.76,4.06-8.28,7.47-12.72,10.84-4.15,3.15-5.08,6.34-1.87,10.77,1.8,2.47,2.92,5.44,4.81,9.07ZM259.66,255.66c.81.21,1.63.42,2.44.63,1.25-1.4,2.54-2.77,3.74-4.21,6.11-7.37,11.67-15.29,18.43-21.99,6.92-6.86,15.1-12.44,22.53-18.8,1.2-1.02,1.41-3.19,2.08-4.82-1.76-.22-3.85-1.16-5.21-.52-4.22,1.97-8.33,4.28-12.17,6.93-13.65,9.42-24.52,21.33-31.3,36.62-.79,1.79-.4,4.1-.56,6.17ZM340.77,123.39c-5.67,2.48-12.62,1.42-12.36,7.98.24,6.13,6.91,6.14,11.64,5.86,4.38-.26,10.91-.34,10.42-6.38-.22-2.73-6.28-4.99-9.7-7.46ZM411.4,133.59c-2.92,3.2-5.35,4.68-5.82,6.64-.84,3.42,5.47,8.22,10.62,7.71,2.11-.21,3.98-2.78,5.96-4.27-3.24-3.04-6.48-6.08-10.76-10.09ZM457.55,179.81c3.67,2.84,6.11,5.13,8.97,6.57.54.27,4.22-3.95,4.02-4.21-1.98-2.56-4.3-4.99-6.98-6.77-.54-.36-2.99,2.14-6.01,4.41Z"/>
    <path class="cls-5" d="M183.89,241.17c-1.95-9.9-5.16-20.46-5.87-31.2-1.05-15.76-.52-31.64-.16-47.46.06-2.56,2.09-6.32,4.27-7.39,23.39-11.54,46.88-13.13,70.33.26,4.64,2.65,6.32,5.83,6.27,11.25-.13,14.04.6,28.09.8,42.14.03,1.81-.52,4.09-1.66,5.4-19.39,22.21-31.35,48.05-37.79,76.63-.14.61-.54,1.17-1.05,2.22-22.79-1.2-45.36.15-66.33,10.89-20.77,10.64-36.26,27.05-50.65,45.52.45-3.3.75-6.63,1.38-9.9.64-3.28,1.42-6.55,2.47-9.72,12.8-38.56,36.86-65.92,77.36-76.04,8.52-2.13,17.73-1.43,26.56-2.48,2.43-.29,4.66-2.23,6.99-3.41-2.01-1.68-3.87-4.56-6.06-4.84-8.13-1.04-16.37-1.23-26.87-1.88ZM217.35,175.57c8.08-1.45,16.01-2.49,23.7-4.48,2.51-.65,5.93-3.69,6.08-5.83.15-2.15-2.8-5.67-5.19-6.66-16.38-6.75-32.96-6.31-49.23.45-2.2.91-4.79,4.14-4.75,6.25.04,1.98,3.03,5.06,5.24,5.62,7.91,2.01,16.05,3.16,24.14,4.65Z"/>
    <path class="cls-5" d="M388.37,311.04c23.37-7.68,44.78-3.6,66.78,1.98-2.01,12.82-9.22,21.65-19.12,29.52-12.94-14.14-27.77-25.49-47.66-31.5Z"/>
    <path class="cls-4" d="M103.25,461.25c.36-18.58,2.5-38.25,9.08-57.24.29-.84.29-1.9.83-2.52,2.09-2.43,5.12-7.09,6.39-6.66,5.17,1.73,1.68,5.86.89,8.9-11.71,45.11-8.08,89.22,7.68,132.81,22.89,63.3,98.22,132.64,171.06,150.43,11.47,2.8,23.05,5.17,34.5,8.05,1.82.46,3.21,2.61,4.79,3.98-2.02.77-4.13,2.41-6.03,2.18-80.1-9.58-142.11-49.97-189.36-113.76-27.19-36.71-39.78-78.96-39.82-126.16Z"/>
    <path class="cls-4" d="M254.17,645.45c-9.2-4.11-18.87-7.22-27.29-12.4-35.49-21.82-61.29-51.98-75.95-91.28-.54-1.46-1.45-3.01-1.32-4.44.21-2.31,1.14-4.55,1.77-6.81,1.75,1.34,4.16,2.31,5.12,4.07,5.42,9.97,9.7,20.63,15.82,30.12,17.65,27.37,39.96,50.2,68.64,66.2,4.83,2.69,10.28,4.25,15.25,6.71,1.45.72,2.25,2.77,3.35,4.22-1.5,1-2.99,2.01-5.4,3.62Z"/>
    <path class="cls-4" d="M449.26,430.97c-.62.76-1.64,3.13-2.92,3.28-1.34.16-3.73-1.51-4.27-2.91-2.48-6.43-4.14-13.17-6.69-19.57-10.58-26.6-25.1-50.19-50.55-65.35-1.4-.84-1.78-3.4-2.63-5.17,1.99-.31,4.27-1.41,5.93-.8,12.67,4.63,22.82,12.94,31.42,23.09,15.62,18.45,24.69,40.02,29.26,63.6.17.87.21,1.77.45,3.82Z"/>
    <path class="cls-4" d="M458.22,511.5c-1.8,10.52-4.09,24.07-6.45,37.61-.26,1.52-.58,3.26-1.5,4.38-1.84,2.23-4.12,4.1-6.22,6.13-.5-2.76-1.84-5.68-1.36-8.25,4.21-22.62,6.78-45.34,5.74-68.41-.1-2.25,1.61-4.58,2.49-6.88,1.47,2.07,3.91,3.99,4.25,6.23,1.28,8.57,1.88,17.23,3.06,29.19Z"/>
    <path class="cls-4" d="M499.05,269.92c-2.94,8-5.56,16.13-9.02,23.89-.93,2.09-4.78,4.64-6.56,4.17-2.35-.61-5.13-3.72-5.71-6.22-2.51-10.78-1.35-21.4,5.25-30.53,2.02-2.8,6.26-3.99,9.49-5.91,1.63,3.33,3.4,6.61,4.83,10.03.47,1.13.07,2.63.07,3.97.55.2,1.11.4,1.66.6Z"/>
    <path class="cls-4" d="M298.04,377.2c-13.51-14.48-26.78-28.7-40.06-42.94,13.69-3.81,43.31,27.8,40.06,42.94Z"/>
    <path class="cls-4" d="M259.66,255.66c.16-2.07-.23-4.38.56-6.17,6.78-15.3,17.65-27.2,31.3-36.62,3.83-2.65,7.95-4.95,12.17-6.93,1.36-.63,3.45.3,5.21.52-.67,1.64-.89,3.8-2.08,4.82-7.44,6.36-15.61,11.95-22.53,18.8-6.77,6.7-12.32,14.62-18.43,21.99-1.2,1.45-2.49,2.81-3.74,4.21-.81-.21-1.63-.42-2.44-.63Z"/>
    <path class="cls-4" d="M340.77,123.39c3.41,2.47,9.48,4.73,9.7,7.46.48,6.04-6.04,6.12-10.42,6.38-4.73.28-11.41.26-11.64-5.86-.25-6.55,6.69-5.5,12.36-7.98Z"/>
    <path class="cls-4" d="M411.4,133.59c4.27,4.01,7.51,7.05,10.76,10.09-1.98,1.49-3.86,4.06-5.96,4.27-5.15.51-11.45-4.29-10.62-7.71.48-1.96,2.91-3.45,5.82-6.64Z"/>
    <path class="cls-4" d="M457.55,179.81c3.02-2.27,5.46-4.77,6.01-4.41,2.68,1.78,5,4.21,6.98,6.77.2.26-3.48,4.49-4.02,4.21-2.86-1.44-5.3-3.74-8.97-6.57Z"/>
    <path class="cls-4" d="M217.35,175.57c-8.09-1.49-16.23-2.64-24.14-4.65-2.21-.56-5.21-3.64-5.24-5.62-.04-2.11,2.55-5.34,4.75-6.25,16.27-6.75,32.86-7.2,49.23-.45,2.39.98,5.34,4.51,5.19,6.66-.15,2.14-3.58,5.18-6.08,5.83-7.69,1.99-15.63,3.03-23.7,4.48Z"/>
  </g>
  <g>
    <g>
      <path class="cls-1" d="M195.24,493.87c-8.63-19.64-17.16-39.04-25.83-58.75,3.26-1.17,6.29-2.26,9.7-3.49,8.6,19.51,17.09,38.77,25.52,57.89,12.32-3.81,24.35-7.53,36.78-11.37-4.84-20.59-9.73-41.41-14.73-62.67,3.31-.66,6.49-1.29,10.21-2.03,4.94,20.93,9.85,41.74,14.76,62.59,13.72-1.19,27.32-2.36,41.64-3.6.4-20.87.8-42.16,1.21-63.73h9.88v64.13c11.79,1.45,23.99,2.95,36.52,4.49,6.54-18.54,13.15-37.26,19.87-56.3,3.4.94,6.52,1.79,10,2.75-6.61,18.79-13.13,37.28-19.68,55.91,10.55,3.45,20.98,6.87,31.75,10.39,11.35-16.08,22.88-32.42,34.54-48.93,3.09,1.7,5.88,3.24,8.89,4.9-11.38,16.15-22.68,32.2-33.86,48.06,10.89,6.25,21.62,12.41,32.72,18.79,10.19-10.85,20.67-22.02,31.52-33.57,2.61,1.9,5.14,3.73,8.1,5.88-10.61,11.34-21.14,22.59-31.78,33.96,3.23,2.71,6.35,5.28,9.4,7.89,3.33,2.86,3.34,3.69-.11,6.55-28.61,23.79-61.82,40.2-100.24,47.2-71.9,13.1-135.64-2.11-190.78-45.29-2.87-2.25-5.36-4.89-8.46-7.75,6.8-5.29,13.59-10.57,20.56-16-11.86-17.08-23.76-34.21-35.95-51.76,2.91-1.63,5.65-3.17,8.83-4.96,11.97,17.18,23.79,34.15,35.68,51.21,7.89-4.2,15.51-8.25,23.31-12.41ZM430.57,530.25c-80.15-66.93-203.39-59.96-272.11-1.85,73.55,62.04,194.8,64.42,272.11,1.85Z"/>
      <path class="cls-3" d="M430.57,530.25c-77.32,62.57-198.56,60.19-272.11-1.85,68.72-58.11,191.96-65.08,272.11,1.85ZM314.11,528.95c0-9.94-8.91-17.92-19.99-17.93-11.09-.01-20.14,7.97-20.19,17.82-.06,9.82,8.98,17.88,20.08,17.9,11.2.02,20.1-7.86,20.09-17.79Z"/>
    </g>
    <ellipse class="cls-2" cx="296.1" cy="528.88" rx="33.14" ry="42.34"/>
    <ellipse class="cls-4" cx="296.1" cy="528.88" rx="19.04" ry="16.91"/>
  </g>
</svg>