<?xml version="1.0" encoding="utf-8"?>
<!-- Generator: Adobe Illustrator 28.2.0, SVG Export Plug-In . SVG Version: 6.00 Build 0)  -->
<svg version="1.1" id="Capa_1" xmlns="http://www.w3.org/2000/svg" xmlns:xlink="http://www.w3.org/1999/xlink" x="0px" y="0px"
	 viewBox="0 0 32 32" style="enable-background:new 0 0 32 32;" xml:space="preserve">
<style type="text/css">
	.st0{fill:#050006;}
	.st1{fill:#58167D;}
	.st2{fill:#AC1B74;}
	.st3{fill:#050006;stroke:#5B4D94;stroke-width:0.25;stroke-miterlimit:10;}
	.st4{fill:#FFFFFF;stroke:#5B4D94;stroke-width:0.25;stroke-miterlimit:10;}
	.st5{fill:#8577AE;stroke:#000000;stroke-width:0.25;stroke-miterlimit:10;}
</style>
<g>
	<path class="st0" d="M8.61,18.77c-0.28-0.04-0.57-0.08-0.84-0.13c-1.11-0.22-2.12-0.65-2.91-1.49c-0.86-0.91-1.27-2.01-1.3-3.25
		c-0.03-1.51,0.41-2.87,1.41-4.01c1.24-1.4,2.78-1.83,4.58-1.36c0.6,0.16,1.16,0.42,1.69,0.75c0.09,0.06,0.19,0.11,0.31,0.19
		c-0.02-0.1-0.03-0.15-0.04-0.21c-0.24-1.09-0.3-2.17,0.03-3.25c0.44-1.41,1.37-2.38,2.75-2.87c1.85-0.65,3.61-0.44,5.18,0.75
		c1.18,0.89,1.69,2.14,1.74,3.59c0.02,0.67-0.06,1.33-0.23,1.98c-0.01,0.03-0.01,0.07-0.02,0.14c0.2-0.11,0.37-0.21,0.54-0.3
		c0.89-0.49,1.84-0.82,2.86-0.84c1.14-0.02,2.14,0.35,2.99,1.11c1,0.9,1.55,2.05,1.75,3.37c0.16,1.07,0.05,2.1-0.4,3.09
		c-0.59,1.29-1.61,2.1-2.94,2.54c-0.59,0.2-1.21,0.29-1.87,0.38c0.06,0.05,0.13,0.09,0.19,0.15c0.7,0.64,1.29,1.36,1.67,2.23
		c0.7,1.6,0.58,3.15-0.35,4.61c-0.93,1.45-2.27,2.34-4,2.53c-1.1,0.12-2.11-0.17-3-0.84c-0.92-0.7-1.51-1.64-1.95-2.69
		c-0.04-0.1-0.08-0.2-0.13-0.32c-0.15,0.32-0.27,0.61-0.41,0.89c-0.46,0.91-1.06,1.69-1.93,2.24c-1.15,0.74-2.4,0.88-3.69,0.47
		c-1.94-0.62-3.24-1.91-3.77-3.9c-0.36-1.32-0.09-2.56,0.58-3.73c0.36-0.63,0.83-1.18,1.36-1.67c0.04-0.04,0.08-0.08,0.12-0.11
		C8.61,18.8,8.61,18.79,8.61,18.77z M9.2,18.57c-0.02,0.05-0.03,0.07-0.04,0.08c-0.03,0.03-0.07,0.07-0.11,0.1
		c-0.64,0.53-1.2,1.13-1.64,1.84c-0.76,1.24-1.01,2.57-0.56,3.98c0.42,1.32,1.28,2.31,2.49,2.99c1.94,1.09,4.15,0.83,5.63-1
		c0.57-0.7,0.95-1.51,1.24-2.36c0.03-0.08,0.06-0.15,0.1-0.22c0.02,0,0.03,0,0.05,0c0.03,0.07,0.07,0.15,0.09,0.22
		c0.35,1.04,0.82,2.02,1.61,2.81c1.02,1.01,2.24,1.43,3.67,1.18c1.12-0.2,2.05-0.74,2.84-1.55c1.59-1.64,1.84-3.95,0.62-5.89
		c-0.46-0.72-1.04-1.32-1.7-1.86c-0.06-0.05-0.1-0.1-0.2-0.19c0.13-0.01,0.21-0.02,0.29-0.02c0.77-0.01,1.53-0.12,2.25-0.38
		c1.51-0.54,2.52-1.57,2.93-3.13c0.41-1.56,0.15-3.04-0.7-4.41c-1.06-1.7-2.89-2.41-4.83-1.91c-0.89,0.23-1.69,0.66-2.45,1.17
		c-0.05,0.03-0.11,0.05-0.21,0.1c0.03-0.13,0.05-0.19,0.07-0.26c0.26-0.89,0.42-1.8,0.33-2.74c-0.14-1.45-0.81-2.59-2.05-3.37
		c-0.95-0.59-1.99-0.8-3.09-0.73c-0.67,0.04-1.32,0.21-1.92,0.52c-1.48,0.78-2.21,2.04-2.32,3.68c-0.05,0.85,0.08,1.67,0.31,2.49
		c0.02,0.07,0.02,0.15,0.04,0.25c-0.06-0.02-0.08-0.03-0.1-0.03c-0.07-0.04-0.13-0.09-0.2-0.13c-0.75-0.53-1.55-0.94-2.45-1.13
		c-1.47-0.3-2.77,0.06-3.82,1.13c-1.24,1.27-1.72,2.82-1.53,4.58c0.12,1.09,0.58,2.03,1.39,2.78c0.86,0.79,1.92,1.16,3.06,1.3
		C8.58,18.52,8.88,18.54,9.2,18.57z"/>
	<path class="st1" d="M9.2,18.57c-0.32-0.03-0.62-0.05-0.91-0.08c-1.14-0.15-2.19-0.51-3.06-1.3c-0.81-0.75-1.27-1.69-1.39-2.78
		c-0.19-1.75,0.3-3.31,1.53-4.58c1.05-1.08,2.35-1.44,3.82-1.13c0.9,0.19,1.7,0.6,2.45,1.13c0.07,0.05,0.13,0.09,0.2,0.13
		c0.01,0.01,0.03,0.01,0.1,0.03c-0.01-0.1-0.02-0.18-0.04-0.25c-0.23-0.81-0.37-1.64-0.31-2.49c0.11-1.65,0.84-2.91,2.32-3.68
		c0.6-0.31,1.24-0.48,1.92-0.52c1.11-0.07,2.15,0.14,3.09,0.73c1.25,0.77,1.91,1.91,2.05,3.37c0.09,0.94-0.07,1.84-0.33,2.74
		c-0.02,0.07-0.04,0.14-0.07,0.26c0.11-0.05,0.16-0.07,0.21-0.1c0.76-0.51,1.56-0.94,2.45-1.17c1.94-0.5,3.77,0.21,4.83,1.91
		c0.85,1.36,1.11,2.84,0.7,4.41c-0.41,1.56-1.42,2.59-2.93,3.13c-0.73,0.26-1.48,0.37-2.25,0.38c-0.08,0-0.15,0.01-0.29,0.02
		c0.09,0.09,0.14,0.15,0.2,0.19c0.66,0.54,1.25,1.14,1.7,1.86c1.22,1.94,0.98,4.25-0.62,5.89c-0.79,0.81-1.72,1.35-2.84,1.55
		c-1.43,0.25-2.65-0.17-3.67-1.18c-0.79-0.79-1.26-1.76-1.61-2.81c-0.03-0.08-0.06-0.15-0.09-0.22c-0.02,0-0.03,0-0.05,0
		c-0.03,0.07-0.07,0.14-0.1,0.22c-0.29,0.85-0.67,1.65-1.24,2.36c-1.48,1.83-3.69,2.09-5.63,1c-1.2-0.68-2.06-1.66-2.49-2.99
		c-0.45-1.41-0.21-2.74,0.56-3.98c0.44-0.71,1-1.31,1.64-1.84c0.04-0.03,0.07-0.06,0.11-0.1C9.17,18.64,9.18,18.62,9.2,18.57z
		 M20.59,15.69c-0.01-2.27-1.87-4.14-4.1-4.16c-2.38-0.03-4.29,1.93-4.25,4.26c0.04,2.25,1.91,4.09,4.2,4.08
		C18.74,19.86,20.6,17.99,20.59,15.69z"/>
</g>
<g>
	<path class="st0" d="M10.27,18.17c-0.22-0.03-0.45-0.06-0.67-0.1c-0.88-0.17-1.67-0.52-2.3-1.18c-0.68-0.72-1-1.59-1.02-2.57
		c-0.02-1.19,0.32-2.27,1.12-3.17c0.98-1.11,2.2-1.45,3.63-1.08c0.48,0.12,0.92,0.33,1.34,0.59c0.07,0.04,0.15,0.09,0.25,0.15
		c-0.01-0.08-0.02-0.12-0.03-0.16c-0.19-0.86-0.24-1.72,0.02-2.57c0.35-1.12,1.08-1.88,2.18-2.27c1.46-0.52,2.85-0.35,4.1,0.59
		c0.93,0.7,1.34,1.69,1.38,2.84c0.02,0.53-0.05,1.05-0.18,1.57c-0.01,0.03-0.01,0.05-0.02,0.11c0.16-0.09,0.29-0.17,0.43-0.24
		c0.7-0.39,1.45-0.65,2.26-0.66c0.9-0.02,1.69,0.28,2.36,0.88c0.79,0.71,1.23,1.62,1.39,2.66c0.13,0.84,0.04,1.66-0.32,2.44
		c-0.47,1.02-1.27,1.66-2.32,2.01c-0.47,0.16-0.96,0.23-1.48,0.3c0.05,0.04,0.1,0.07,0.15,0.12c0.55,0.51,1.02,1.07,1.32,1.76
		c0.55,1.26,0.46,2.49-0.28,3.65c-0.74,1.15-1.79,1.85-3.16,2c-0.87,0.1-1.67-0.13-2.38-0.67c-0.73-0.55-1.19-1.3-1.54-2.13
		c-0.03-0.08-0.07-0.16-0.11-0.25c-0.11,0.25-0.21,0.48-0.32,0.7c-0.36,0.72-0.84,1.34-1.52,1.77c-0.91,0.58-1.9,0.69-2.91,0.37
		c-1.53-0.49-2.56-1.51-2.99-3.08c-0.28-1.04-0.07-2.03,0.46-2.95c0.29-0.5,0.66-0.93,1.08-1.32c0.03-0.03,0.06-0.06,0.09-0.09
		C10.27,18.2,10.26,18.19,10.27,18.17z M10.73,18.01c-0.02,0.04-0.02,0.06-0.03,0.07c-0.03,0.03-0.06,0.05-0.09,0.08
		c-0.51,0.42-0.95,0.89-1.3,1.46c-0.6,0.98-0.8,2.03-0.44,3.15c0.33,1.05,1.02,1.83,1.97,2.36c1.53,0.86,3.28,0.65,4.45-0.79
		c0.45-0.56,0.75-1.19,0.98-1.87c0.02-0.06,0.05-0.12,0.08-0.17c0.01,0,0.03,0,0.04,0c0.02,0.06,0.05,0.12,0.07,0.18
		c0.28,0.83,0.65,1.6,1.28,2.22c0.81,0.8,1.77,1.13,2.9,0.94c0.88-0.15,1.62-0.59,2.24-1.23c1.26-1.3,1.45-3.13,0.49-4.66
		c-0.36-0.57-0.83-1.05-1.35-1.47c-0.04-0.04-0.08-0.08-0.16-0.15c0.11-0.01,0.17-0.02,0.23-0.02c0.61-0.01,1.21-0.09,1.78-0.3
		c1.19-0.43,2-1.24,2.32-2.48c0.32-1.24,0.12-2.41-0.56-3.49c-0.84-1.35-2.29-1.91-3.82-1.51c-0.71,0.18-1.34,0.52-1.94,0.93
		c-0.04,0.03-0.09,0.04-0.17,0.08c0.03-0.1,0.04-0.15,0.05-0.21c0.21-0.71,0.33-1.42,0.26-2.16c-0.11-1.15-0.64-2.05-1.62-2.66
		c-0.75-0.46-1.57-0.63-2.45-0.57c-0.53,0.04-1.04,0.17-1.52,0.41c-1.17,0.62-1.75,1.61-1.83,2.91c-0.04,0.67,0.07,1.32,0.25,1.97
		c0.02,0.06,0.02,0.12,0.03,0.2c-0.05-0.02-0.06-0.02-0.08-0.03c-0.05-0.03-0.1-0.07-0.16-0.11c-0.59-0.42-1.22-0.75-1.94-0.89
		c-1.16-0.24-2.19,0.04-3.02,0.9c-0.98,1.01-1.36,2.23-1.21,3.62c0.09,0.86,0.46,1.61,1.1,2.2c0.68,0.63,1.52,0.91,2.42,1.03
		C10.24,17.98,10.48,17.99,10.73,18.01z"/>
	<path class="st2" d="M10.73,18.01c-0.25-0.02-0.49-0.04-0.72-0.07c-0.9-0.12-1.73-0.4-2.42-1.03c-0.64-0.59-1.01-1.33-1.1-2.2
		c-0.15-1.39,0.23-2.62,1.21-3.62c0.83-0.85,1.86-1.14,3.02-0.9c0.71,0.15,1.35,0.48,1.94,0.89c0.05,0.04,0.1,0.07,0.16,0.11
		c0.01,0.01,0.03,0.01,0.08,0.03c-0.01-0.08-0.01-0.14-0.03-0.2c-0.18-0.64-0.29-1.3-0.25-1.97c0.08-1.3,0.66-2.3,1.83-2.91
		c0.47-0.25,0.98-0.38,1.52-0.41c0.88-0.06,1.7,0.11,2.45,0.57c0.99,0.61,1.51,1.51,1.62,2.66c0.07,0.74-0.05,1.46-0.26,2.16
		c-0.02,0.05-0.03,0.11-0.05,0.21c0.08-0.04,0.13-0.06,0.17-0.08c0.6-0.41,1.23-0.74,1.94-0.93c1.53-0.4,2.98,0.16,3.82,1.51
		c0.67,1.08,0.88,2.25,0.56,3.49c-0.32,1.24-1.13,2.05-2.32,2.48c-0.58,0.21-1.17,0.29-1.78,0.3c-0.06,0-0.12,0.01-0.23,0.02
		c0.07,0.07,0.11,0.12,0.16,0.15c0.52,0.42,0.99,0.9,1.35,1.47c0.96,1.53,0.77,3.36-0.49,4.66c-0.62,0.64-1.36,1.07-2.24,1.23
		c-1.13,0.2-2.1-0.13-2.9-0.94c-0.63-0.62-1-1.39-1.28-2.22c-0.02-0.06-0.05-0.12-0.07-0.18c-0.01,0-0.03,0-0.04,0
		c-0.03,0.06-0.06,0.11-0.08,0.17c-0.23,0.67-0.53,1.31-0.98,1.87c-1.17,1.45-2.92,1.65-4.45,0.79c-0.95-0.54-1.63-1.32-1.97-2.36
		c-0.36-1.11-0.16-2.16,0.44-3.15c0.35-0.56,0.79-1.04,1.3-1.46c0.03-0.02,0.06-0.05,0.09-0.08C10.71,18.07,10.71,18.05,10.73,18.01
		z"/>
</g>
<g>
	<g>
		<path class="st3" d="M11.85,15.11c-0.39-0.99-0.77-1.97-1.16-2.97c0.15-0.06,0.28-0.11,0.44-0.18c0.39,0.99,0.77,1.96,1.15,2.93
			c0.55-0.19,1.09-0.38,1.65-0.57c-0.22-1.04-0.44-2.09-0.66-3.17c0.15-0.03,0.29-0.07,0.46-0.1c0.22,1.06,0.44,2.11,0.66,3.16
			c0.62-0.06,1.23-0.12,1.87-0.18c0.02-1.06,0.04-2.13,0.05-3.22c0.16,0,0.3,0,0.44,0c0,1.08,0,2.16,0,3.24
			c0.53,0.07,1.08,0.15,1.64,0.23c0.29-0.94,0.59-1.88,0.89-2.85c0.15,0.05,0.29,0.09,0.45,0.14c-0.3,0.95-0.59,1.88-0.88,2.83
			c0.47,0.17,0.94,0.35,1.43,0.53c0.51-0.81,1.03-1.64,1.55-2.47c0.14,0.09,0.26,0.16,0.4,0.25c-0.51,0.82-1.02,1.63-1.52,2.43
			c0.49,0.32,0.97,0.63,1.47,0.95c0.46-0.55,0.93-1.11,1.42-1.7c0.12,0.1,0.23,0.19,0.36,0.3c-0.48,0.57-0.95,1.14-1.43,1.72
			c0.15,0.14,0.29,0.27,0.42,0.4c0.15,0.14,0.15,0.19,0,0.33c-1.28,1.2-2.78,2.03-4.5,2.39c-3.23,0.66-6.09-0.11-8.57-2.29
			c-0.13-0.11-0.24-0.25-0.38-0.39c0.31-0.27,0.61-0.53,0.92-0.81c-0.53-0.86-1.07-1.73-1.61-2.62c0.13-0.08,0.25-0.16,0.4-0.25
			c0.54,0.87,1.07,1.73,1.6,2.59C11.16,15.53,11.5,15.32,11.85,15.11z M22.41,16.95c-3.6-3.38-9.13-3.03-12.22-0.09
			C13.5,19.99,18.94,20.11,22.41,16.95z"/>
		<path class="st4" d="M22.41,16.95c-3.47,3.16-8.92,3.04-12.22-0.09C13.28,13.92,18.81,13.57,22.41,16.95z M17.18,16.88
			c0-0.5-0.4-0.91-0.9-0.91c-0.5,0-0.9,0.4-0.91,0.9c0,0.5,0.4,0.9,0.9,0.91C16.79,17.79,17.19,17.39,17.18,16.88z"/>
	</g>
	<ellipse class="st5" cx="16.38" cy="16.88" rx="1.49" ry="2.14"/>
	<circle cx="16.38" cy="16.88" r="0.85"/>
</g>
</svg>
