<?xml version="1.0" encoding="UTF-8"?>
<svg id="Capa_1" data-name="Capa 1" xmlns="http://www.w3.org/2000/svg" viewBox="0 0 841.89 595.28">
  <defs>
    <style>
      .cls-1 {
        fill: #fff;
        stroke-width: 0px;
      }

      .cls-2 {
        fill: #ba007c;
        stroke: #ba007c;
        stroke-miterlimit: 10;
      }
    </style>
  </defs>
  <path class="cls-1" d="M393.85,298.1c-.14,75.5-60.99,136.02-136.56,135.81-75.18-.21-135.82-61.43-135.59-136.88.23-75.31,61.45-135.45,137.7-135.26,74.17.19,134.6,61.45,134.46,136.32ZM224.37,283.77c-.27-.44-.53-.88-.8-1.33,7.37-7.18,14.87-14.23,22.06-21.58,6.27-6.41,6.16-15.17.17-20.93-5.84-5.62-14.33-5.42-20.56.77-15.72,15.61-31.38,31.28-46.96,47.03-6.09,6.15-6.13,14.13-.28,20.56,2.69,2.95,5.61,5.69,8.44,8.52,12.96,12.96,25.83,26,38.92,38.82,6.18,6.05,14.97,6,20.59.4,5.94-5.93,5.77-14.46-.48-20.91-3.36-3.47-6.83-6.83-10.24-10.26-3.78-3.81-7.54-7.63-12.08-12.23,3.09,0,4.9,0,6.71,0,31.48,0,62.96.09,94.44-.13,3.83-.03,8.04-.94,11.38-2.73,5.34-2.86,7.4-9.82,5.74-15.74-1.68-6.01-7.11-10.19-13.82-10.21-26.82-.07-53.64-.04-80.46-.04-7.59,0-15.18,0-22.77,0Z"/>
  <path class="cls-2" d="M224.37,283.77c7.59,0,15.18,0,22.77,0,26.82,0,53.64-.03,80.46.04,6.72.02,12.14,4.2,13.82,10.21,1.66,5.93-.41,12.88-5.74,15.74-3.34,1.79-7.55,2.7-11.38,2.73-31.48.21-62.96.12-94.44.13-1.81,0-3.62,0-6.71,0,4.54,4.6,8.3,8.43,12.08,12.23,3.4,3.43,6.87,6.79,10.24,10.26,6.25,6.44,6.42,14.98.48,20.91-5.62,5.6-14.41,5.65-20.59-.4-13.09-12.82-25.96-25.86-38.92-38.82-2.83-2.83-5.75-5.57-8.44-8.52-5.85-6.43-5.82-14.4.28-20.56,15.58-15.74,31.24-31.42,46.96-47.03,6.23-6.19,14.71-6.39,20.56-.77,6,5.76,6.1,14.52-.17,20.93-7.19,7.35-14.69,14.4-22.06,21.58.27.44.53.88.8,1.33Z"/>
</svg>