<?xml version="1.0" encoding="UTF-8"?>
<svg id="Capa_1" data-name="Capa 1" xmlns="http://www.w3.org/2000/svg" viewBox="0 0 841.89 595.28">
  <defs>
    <style>
      .cls-1 {
        fill: #fff;
        stroke-width: 0px;
      }

      .cls-2 {
        fill: #ba007c;
        stroke: #ba007c;
        stroke-miterlimit: 10;
      }
    </style>
  </defs>
  <path class="cls-1" d="M121.7,298.93c-.6-75.5,59.64-136.61,135.22-137.15,75.17-.54,136.42,60.08,136.93,135.53.51,75.31-60.11,136.05-136.35,136.61-74.17.55-135.2-60.12-135.8-134.99ZM291.32,311.58c.27.44.54.88.81,1.32-7.29,7.25-14.73,14.37-21.84,21.8-6.2,6.47-6.01,15.23.04,20.93,5.9,5.56,14.38,5.28,20.55-.97,15.56-15.77,31.07-31.59,46.49-47.49,6.03-6.21,5.99-14.19.07-20.56-2.72-2.93-5.67-5.64-8.52-8.44-13.09-12.83-26.08-25.75-39.3-38.43-6.24-5.99-15.03-5.85-20.59-.19-5.88,5.98-5.63,14.52.69,20.9,3.4,3.43,6.9,6.76,10.34,10.16,3.82,3.77,7.61,7.56,12.2,12.11-3.09.03-4.9.05-6.71.07-31.48.31-62.96.54-94.43,1.06-3.83.06-8.03,1.02-11.35,2.84-5.31,2.92-7.3,9.89-5.59,15.8,1.74,5.99,7.21,10.12,13.92,10.08,26.82-.19,53.64-.49,80.46-.75,7.59-.07,15.18-.15,22.77-.22Z"/>
  <path class="cls-2" d="M291.32,311.58c-7.59.07-15.18.15-22.77.22-26.82.26-53.64.56-80.46.75-6.72.05-12.19-4.08-13.92-10.08-1.71-5.91.28-12.88,5.59-15.8,3.32-1.82,7.52-2.78,11.35-2.84,31.48-.52,62.96-.75,94.43-1.06,1.81-.02,3.62-.04,6.71-.07-4.59-4.56-8.39-8.35-12.2-12.11-3.44-3.39-6.94-6.73-10.34-10.16-6.32-6.38-6.57-14.92-.69-20.9,5.56-5.66,14.36-5.79,20.59.19,13.22,12.69,26.22,25.61,39.3,38.43,2.86,2.8,5.81,5.51,8.52,8.44,5.91,6.37,5.96,14.35-.07,20.56-15.43,15.9-30.93,31.72-46.49,47.49-6.17,6.25-14.65,6.53-20.55.97-6.05-5.7-6.25-14.46-.04-20.93,7.12-7.42,14.55-14.54,21.84-21.8-.27-.44-.54-.88-.81-1.32Z"/>
</svg>