<?xml version="1.0" encoding="UTF-8"?>
<svg id="Capa_1" data-name="Capa 1" xmlns="http://www.w3.org/2000/svg" viewBox="0 0 595.28 841.89">
  <defs>
    <style>
      .cls-1 {
        stroke: #fff;
      }

      .cls-1, .cls-2 {
        stroke-miterlimit: 10;
        stroke-width: 7px;
      }

      .cls-2 {
        fill: #ba007c;
        stroke: #ba007c;
      }
    </style>
  </defs>
  <path class="cls-1" d="M405.83,442.23c19.96,20.9,41.08,41.12,59.69,63.43,7.63,9.15,12.1,22.43,14.1,34.48,4.56,27.57-17.03,46.93-44.24,40.48-35.51-8.42-58.74-33.75-80.34-60.85-4.06-5.09-7.49-10.68-13.21-18.93-2.25,15.92-2.49,29.41-6.29,41.82-6.11,19.93-12.76,40.09-22.49,58.4-11.74,22.1-30.43,29.97-49.06,25.2-15.71-4.02-28.97-20.17-27.49-44.09,1.64-26.52,9.22-52.73,14.93-78.92,1.48-6.81,5.62-13.04,10.15-23.14-8.09,3.39-13.18,5.54-18.3,7.66-29.69,12.28-59.84,21.81-92.67,16.11-16.19-2.81-30.57-8.82-35.36-26.12-5.09-18.39,2.65-32.95,17.06-44.23,26.6-20.81,58.08-27.96,90.69-31.69,4.67-.54,9.4-.52,15.63-.83-16.94-15.09-34.2-27.8-47.98-43.55-11.61-13.28-20.93-29.33-28-45.57-6.16-14.15-4.62-29.94,7.78-41.73,12.39-11.78,27.2-11.19,42.22-6.01,30.93,10.66,52.38,33.17,71.9,58.01,4.29,5.46,8.27,11.16,11.3,15.26,7.13-26.3,13.14-52.98,21.91-78.72,3.91-11.48,11.92-22.49,20.58-31.24,22.31-22.56,52.51-15.1,62.29,15.04,8.75,26.96,2.89,53.59-5.33,79.56-4.11,12.96-10.21,25.29-15.17,37.32,23.72-6.94,47.15-15.61,71.34-20.21,14.84-2.82,31.46-1.86,46.24,1.72,31.54,7.63,39.23,39.37,15.89,62.72-21.3,21.31-49.28,28.99-77.76,34.68-10.57,2.11-21.41,2.87-30,3.98ZM347.23,420.86c.04-15.65-13.21-28.91-28.46-28.46-14.97.44-26.81,12.72-26.98,27.97-.17,15.41,13.28,28.93,28.39,28.53,14.44-.38,27.01-13.41,27.05-28.04Z"/>
  <path class="cls-2" d="M347.23,420.86c-.04,14.63-12.61,27.66-27.05,28.04-15.11.39-28.56-13.13-28.39-28.53.17-15.25,12.01-27.53,26.98-27.97,15.25-.45,28.5,12.81,28.46,28.46Z"/>
</svg>