<?xml version="1.0" encoding="UTF-8"?>
<svg id="Capa_1" data-name="Capa 1" xmlns="http://www.w3.org/2000/svg" viewBox="0 0 595.28 841.89">
  <defs>
    <style>
      .cls-1 {
        fill: #ba007c;
        stroke: #ba007c;
      }

      .cls-1, .cls-2 {
        stroke-miterlimit: 10;
        stroke-width: 8px;
      }

      .cls-2 {
        fill: #58167d;
        stroke: #fff;
      }
    </style>
  </defs>
  <path class="cls-2" d="M332,291.39c15.64-21.69,28.85-42.91,45.1-61.48,10.22-11.67,23.86-21.87,37.98-28.25,22.83-10.31,38.98,1.75,38.18,26.75-.97,30.27-18.26,53.55-35.58,76.38-7.5,9.89-16.45,18.68-23.74,26.85,25.36-7.66,51.37-16.65,78-23.05,11.76-2.83,25.22-2.46,37.15.03,26.93,5.62,33.84,28.18,14.83,48.24-24.08,25.41-56.56,34.29-89.35,41.84-5.85,1.35-11.71,2.6-19.73,4.38,22.29,6.27,42.24,10.76,61.32,17.64,12.94,4.67,25.35,11.71,36.76,19.5,13.62,9.3,25.62,21.6,19.72,40.06-6.05,18.9-23.65,21.9-39.57,19.32-32.48-5.26-64.5-13.39-92.59-19.45,10.38,14.41,25.87,32.66,37.46,53.12,7.95,14.04,13.3,30.89,14.76,46.94,2.1,23.15-15.39,34.46-37.29,25.69-34.49-13.82-52.94-43.88-71.42-73.57-3.23-5.19-5.97-10.68-7.49-13.43,2.34,4.22-.82,18.08-1.04,23.08-1.38,31.38,5.22,83.77-26.66,102.81-33.17,19.8-41.72-30-44.55-50.64-2.12-15.46-3.9-31.06-5.18-46.61-.65-7.85-1.64-25.22,2.74-31.8-12.48,18.78-20.41,34.04-31.49,46.51-15.93,17.93-45.96,56.79-74.56,41.11-9.36-5.13-13.89-16.52-13.8-27.2.28-34.22,26.57-65.32,48.19-89.18,3.67-4.05,8.26-7.28,16.45-14.38-27.59,9.1-49.51,17.5-72.1,23.33-13.93,3.59-29.16,5.63-43.32,2.27-9.73-2.31-25.38-9.42-28.49-20.09-2.87-9.86,4.8-24.49,11.64-31.07,25.4-24.46,58.69-33.46,92.56-39.82,3.28-.62,6.62-.9,10.46-4.32-10.43-2.54-21.36-3.88-31.2-7.88-22.42-9.11-45.12-18.11-66.13-29.94-13.42-7.56-23.52-20.59-17.85-38.51,5.51-17.4,21.45-21.66,35.47-19.46,29.27,4.59,57.98,12.85,86.8,20.09,5.6,1.41,10.63,5.07,16.11,7.79-15.48-21.46-31.58-41.36-44.8-63.03-7.39-12.12-12.33-26.85-14.27-40.96-3.51-25.68,17.81-42.32,39.34-28.54,22.17,14.2,40.09,35.4,58.6,54.75,7.82,8.18,12.4,19.46,21.08,33.62,0-30.94-1.04-57,.48-82.92.67-11.4,4.4-23.92,10.68-33.29,5.54-8.27,17.34-18.71,24.95-17.68,10.27,1.39,23.11,10.84,27.97,20.35,16.53,32.32,12.86,67.67,9.6,102.49-.31,3.34-1.23,6.62-2.18,11.58ZM342.86,404.89c.68-23.59-21.02-46.17-44.85-46.68-24.09-.51-45.44,20.59-45.71,45.17-.26,23.91,21.13,45.28,45.43,45.4,22.65.11,44.47-21.11,45.13-43.89Z"/>
  <path class="cls-1" d="M342.86,404.89c-.66,22.78-22.48,44-45.13,43.89-24.3-.12-45.68-21.49-45.43-45.4.26-24.58,21.62-45.69,45.71-45.17,23.84.51,45.53,23.09,44.85,46.68Z"/>
</svg>