<?xml version="1.0" encoding="utf-8"?>
<!-- Generator: Adobe Illustrator 28.2.0, SVG Export Plug-In . SVG Version: 6.00 Build 0)  -->
<svg version="1.1" id="Capa_1" xmlns="http://www.w3.org/2000/svg" xmlns:xlink="http://www.w3.org/1999/xlink" x="0px" y="0px"
	 viewBox="0 0 595.28 841.89" style="enable-background:new 0 0 595.28 841.89;" xml:space="preserve">
<style type="text/css">
	.st0{fill:#050006;}
	.st1{fill:#58167D;}
	.st2{fill:#AC1B74;}
	.st3{fill:#050006;stroke:#5B4D94;stroke-miterlimit:10;}
	.st4{fill:#FFFFFF;stroke:#5B4D94;stroke-miterlimit:10;}
	.st5{fill:#8577AE;stroke:#000000;stroke-width:2;stroke-miterlimit:10;}
	.st6{fill:#8577AE;}
	.st7{fill:#BA007C;}
	.st8{fill:#FBF8F8;}
	.st9{fill:#FBF9F8;}
	.st10{fill:#FFFFFF;}
	.st11{fill:#0C0A0C;}
	.st12{fill:#FAFAF9;}
	.st13{fill:#DEB28F;}
	.st14{fill:#0F0E0F;}
	.st15{fill:#0D0C0D;}
	.st16{fill:#ECD7B6;}
	.st17{fill:#0D0A0C;}
	.st18{fill:#A680B1;}
	.st19{fill:#EEEDED;}
	.st20{fill:#E9EAE9;}
	.st21{fill:#1D1C1C;}
	.st22{fill:#1F1D1C;}
	.st23{fill:#CDB5D3;}
	.st24{fill:#D0B9D6;}
</style>
<g>
	<path class="st0" d="M163.71,479.32c-4.67-0.71-9.38-1.25-14.02-2.15c-18.45-3.58-35.09-10.85-48.28-24.7
		c-14.33-15.06-21.07-33.31-21.5-53.88c-0.52-25.03,6.78-47.54,23.45-66.45c20.54-23.28,46.17-30.42,76.05-22.63
		c9.99,2.61,19.25,6.96,28.03,12.36c1.53,0.94,3.08,1.84,5.21,3.11c-0.29-1.58-0.44-2.52-0.65-3.46
		c-3.96-18.03-5.04-36.08,0.51-53.96c7.27-23.41,22.72-39.49,45.66-47.61c30.63-10.84,59.82-7.34,86.01,12.41
		c19.55,14.74,28.02,35.48,28.85,59.58c0.38,11.14-1.06,22.1-3.84,32.89c-0.14,0.56-0.17,1.15-0.35,2.37c3.31-1.86,6.15-3.47,9-5.05
		c14.78-8.2,30.44-13.58,47.48-13.87c18.87-0.32,35.55,5.82,49.59,18.48c16.6,14.97,25.72,33.97,29.08,55.86
		c2.72,17.7,0.83,34.88-6.71,51.22c-9.86,21.39-26.71,34.79-48.72,42.18c-9.86,3.31-20.07,4.78-31.08,6.36
		c1.06,0.82,2.18,1.57,3.17,2.47c11.57,10.59,21.44,22.5,27.77,37.01c11.56,26.51,9.64,52.28-5.88,76.48
		c-15.46,24.12-37.59,38.75-66.38,41.96c-18.31,2.04-35.05-2.8-49.81-13.95c-15.3-11.56-25.06-27.18-32.28-44.61
		c-0.68-1.64-1.37-3.27-2.23-5.31c-2.41,5.24-4.45,10.06-6.8,14.73c-7.56,15.03-17.57,28.03-31.94,37.19
		c-19.13,12.2-39.88,14.56-61.14,7.74c-32.13-10.3-53.7-31.74-62.62-64.62c-5.92-21.83-1.49-42.49,9.68-61.85
		c6.04-10.45,13.8-19.53,22.6-27.75c0.67-0.62,1.34-1.25,1.98-1.9C163.72,479.92,163.67,479.66,163.71,479.32z M173.47,475.99
		c-0.38,0.85-0.44,1.18-0.63,1.37c-0.57,0.58-1.18,1.12-1.81,1.64c-10.65,8.77-19.96,18.77-27.2,30.55
		c-12.68,20.63-16.69,42.66-9.24,66c7.01,21.98,21.29,38.35,41.24,49.58c32.1,18.05,68.83,13.71,93.39-16.62
		c9.46-11.68,15.79-24.99,20.57-39.13c0.42-1.25,1.06-2.42,1.6-3.63c0.29,0.02,0.57,0.04,0.86,0.05c0.52,1.23,1.11,2.44,1.53,3.7
		c5.82,17.31,13.66,33.51,26.79,46.57c16.92,16.83,37.22,23.77,60.9,19.62c18.53-3.24,33.99-12.3,47.04-25.71
		c26.46-27.2,30.49-65.56,10.26-97.68c-7.55-11.99-17.31-21.94-28.24-30.83c-0.94-0.77-1.74-1.7-3.27-3.22
		c2.24-0.2,3.49-0.4,4.74-0.41c12.79-0.15,25.31-1.92,37.39-6.27c25.06-9.02,41.88-26.04,48.67-51.95
		c6.79-25.91,2.44-50.46-11.65-73.1c-17.57-28.23-47.94-40.02-80.09-31.66c-14.84,3.86-28.11,10.94-40.72,19.44
		c-0.82,0.55-1.79,0.87-3.55,1.71c0.54-2.08,0.8-3.22,1.13-4.33c4.38-14.83,7.01-29.87,5.48-45.4c-2.37-24.07-13.39-43-34.05-55.83
		c-15.7-9.75-32.99-13.27-51.35-12.05c-11.2,0.74-21.88,3.49-31.79,8.7C226.91,240,214.77,260.9,213,288.21
		c-0.91,14.06,1.37,27.75,5.2,41.23c0.35,1.22,0.39,2.53,0.63,4.19c-1.03-0.37-1.35-0.42-1.59-0.58c-1.1-0.73-2.19-1.48-3.27-2.23
		c-12.4-8.73-25.67-15.65-40.63-18.73c-24.43-5.04-45.94,0.93-63.34,18.81c-20.51,21.08-28.54,46.85-25.44,75.96
		c1.93,18.11,9.56,33.69,23.06,46.11c14.32,13.17,31.78,19.19,50.69,21.63C163.21,475.21,168.15,475.5,173.47,475.99z"/>
	<path class="st1" d="M173.47,475.99c-5.33-0.48-10.26-0.77-15.16-1.41c-18.92-2.44-36.37-8.45-50.69-21.63
		c-13.51-12.42-21.13-28-23.06-46.11c-3.11-29.1,4.93-54.88,25.44-75.96c17.4-17.88,38.91-23.85,63.34-18.81
		c14.97,3.09,28.23,10.01,40.63,18.73c1.08,0.76,2.17,1.51,3.27,2.23c0.24,0.16,0.56,0.21,1.59,0.58c-0.24-1.66-0.28-2.97-0.63-4.19
		c-3.83-13.48-6.12-27.18-5.2-41.23c1.77-27.3,13.91-48.2,38.48-61.12c9.91-5.21,20.6-7.95,31.79-8.7
		c18.35-1.22,35.65,2.3,51.35,12.05c20.66,12.84,31.68,31.76,34.05,55.83c1.53,15.53-1.1,30.58-5.48,45.4
		c-0.33,1.11-0.59,2.25-1.13,4.33c1.76-0.84,2.73-1.16,3.55-1.71c12.61-8.5,25.87-15.59,40.72-19.44
		c32.15-8.36,62.52,3.43,80.09,31.66c14.09,22.64,18.44,47.19,11.65,73.1c-6.79,25.91-23.61,42.93-48.67,51.95
		c-12.08,4.35-24.6,6.11-37.39,6.27c-1.26,0.02-2.51,0.21-4.74,0.41c1.53,1.52,2.33,2.45,3.27,3.22
		c10.93,8.89,20.69,18.84,28.24,30.83c20.23,32.12,16.2,70.48-10.26,97.68c-13.04,13.41-28.5,22.47-47.04,25.71
		c-23.68,4.15-43.98-2.79-60.9-19.62c-13.12-13.06-20.97-29.25-26.79-46.57c-0.42-1.26-1.02-2.47-1.53-3.7
		c-0.29-0.02-0.57-0.04-0.86-0.05c-0.54,1.21-1.18,2.38-1.6,3.63c-4.78,14.14-11.12,27.45-20.57,39.13
		c-24.57,30.33-61.29,34.67-93.39,16.62c-19.95-11.22-34.23-27.6-41.24-49.58c-7.45-23.34-3.43-45.38,9.24-66
		c7.24-11.78,16.55-21.78,27.2-30.55c0.63-0.52,1.23-1.06,1.81-1.64C173.03,477.17,173.09,476.84,173.47,475.99z M362.4,428.21
		c-0.12-37.73-31.09-68.69-68.1-69.08c-39.47-0.42-71.18,31.94-70.56,70.66c0.6,37.26,31.66,67.88,69.68,67.75
		C331.76,497.41,362.53,466.49,362.4,428.21z"/>
</g>
<g>
	<path class="st0" d="M191.17,469.44c-3.7-0.56-7.42-0.99-11.09-1.7c-14.6-2.84-27.76-8.58-38.19-19.54
		c-11.34-11.92-16.67-26.35-17-42.62c-0.41-19.8,5.36-37.61,18.55-52.56c16.24-18.41,36.52-24.06,60.16-17.9
		c7.9,2.06,15.23,5.51,22.18,9.78c1.21,0.74,2.44,1.46,4.12,2.46c-0.23-1.25-0.35-2-0.51-2.73c-3.13-14.26-3.99-28.54,0.4-42.68
		c5.75-18.52,17.97-31.24,36.11-37.66c24.23-8.57,47.32-5.8,68.03,9.82c15.46,11.66,22.17,28.06,22.82,47.13
		c0.3,8.82-0.84,17.48-3.04,26.02c-0.11,0.44-0.14,0.91-0.28,1.87c2.62-1.47,4.86-2.74,7.12-3.99
		c11.69-6.49,24.08-10.74,37.56-10.97c14.93-0.25,28.12,4.6,39.23,14.62c13.13,11.84,20.34,26.87,23,44.19
		c2.15,14,0.65,27.59-5.31,40.52c-7.8,16.92-21.13,27.52-38.54,33.37c-7.8,2.62-15.88,3.78-24.59,5.03
		c0.84,0.65,1.73,1.24,2.51,1.96c9.15,8.38,16.96,17.8,21.97,29.27c9.14,20.97,7.63,41.35-4.65,60.5
		c-12.23,19.08-29.73,30.66-52.51,33.19c-14.48,1.61-27.73-2.21-39.4-11.03c-12.1-9.14-19.82-21.5-25.53-35.29
		c-0.54-1.29-1.08-2.58-1.76-4.2c-1.9,4.14-3.52,7.96-5.38,11.65c-5.98,11.89-13.9,22.17-25.26,29.42
		c-15.13,9.65-31.54,11.52-48.36,6.13c-25.42-8.15-42.48-25.1-49.53-51.12c-4.68-17.27-1.18-33.61,7.66-48.92
		c4.78-8.27,10.91-15.45,17.88-21.95c0.53-0.49,1.06-0.99,1.56-1.5C191.18,469.91,191.14,469.71,191.17,469.44z M198.89,466.8
		c-0.3,0.67-0.35,0.93-0.5,1.09c-0.45,0.45-0.93,0.89-1.43,1.29c-8.43,6.94-15.79,14.85-21.52,24.17
		c-10.03,16.32-13.2,33.75-7.31,52.21c5.55,17.38,16.84,30.34,32.63,39.22c25.4,14.28,54.44,10.85,73.88-13.15
		c7.48-9.24,12.49-19.77,16.27-30.95c0.33-0.99,0.84-1.92,1.27-2.87c0.23,0.01,0.45,0.03,0.68,0.04c0.41,0.97,0.88,1.93,1.21,2.93
		c4.61,13.7,10.81,26.51,21.19,36.84c13.39,13.32,29.44,18.8,48.18,15.52c14.66-2.57,26.89-9.73,37.21-20.34
		c20.93-21.52,24.12-51.86,8.11-77.27c-5.97-9.48-13.69-17.35-22.33-24.39c-0.74-0.61-1.38-1.35-2.59-2.55
		c1.77-0.16,2.76-0.31,3.75-0.33c10.12-0.12,20.02-1.52,29.57-4.96c19.82-7.14,33.13-20.6,38.5-41.09
		c5.37-20.5,1.93-39.91-9.22-57.83c-13.9-22.33-37.92-31.66-63.36-25.05c-11.74,3.05-22.23,8.65-32.21,15.38
		c-0.65,0.44-1.42,0.69-2.81,1.35c0.43-1.65,0.63-2.54,0.89-3.43c3.46-11.73,5.55-23.63,4.33-35.92
		c-1.88-19.04-10.59-34.01-26.93-44.16c-12.42-7.71-26.1-10.5-40.62-9.53c-8.86,0.59-17.31,2.76-25.15,6.88
		c-19.44,10.21-29.04,26.75-30.44,48.34c-0.72,11.12,1.09,21.95,4.12,32.62c0.27,0.97,0.31,2,0.5,3.31
		c-0.82-0.29-1.07-0.33-1.26-0.46c-0.87-0.58-1.73-1.17-2.59-1.77c-9.81-6.9-20.3-12.38-32.14-14.82
		c-19.33-3.99-36.34,0.73-50.1,14.88c-16.22,16.67-22.58,37.06-20.12,60.08c1.53,14.33,7.56,26.65,18.24,36.47
		c11.33,10.42,25.14,15.18,40.1,17.11C190.77,466.19,194.68,466.42,198.89,466.8z"/>
	<path class="st2" d="M198.89,466.8c-4.21-0.38-8.12-0.61-11.99-1.11c-14.96-1.93-28.77-6.69-40.1-17.11
		c-10.68-9.83-16.71-22.15-18.24-36.47c-2.46-23.02,3.9-43.41,20.12-60.08c13.76-14.14,30.78-18.87,50.1-14.88
		c11.84,2.44,22.33,7.92,32.14,14.82c0.85,0.6,1.71,1.19,2.59,1.77c0.19,0.13,0.44,0.17,1.26,0.46c-0.19-1.31-0.22-2.35-0.5-3.31
		c-3.03-10.67-4.84-21.5-4.12-32.62c1.4-21.6,11.01-38.13,30.44-48.34c7.84-4.12,16.29-6.29,25.15-6.88
		c14.52-0.97,28.2,1.82,40.62,9.53c16.34,10.15,25.06,25.12,26.93,44.16c1.21,12.28-0.87,24.19-4.33,35.92
		c-0.26,0.88-0.47,1.78-0.89,3.43c1.39-0.66,2.16-0.92,2.81-1.35c9.97-6.73,20.47-12.33,32.21-15.38
		c25.43-6.61,49.46,2.71,63.36,25.05c11.15,17.91,14.59,37.33,9.22,57.83c-5.37,20.5-18.68,33.96-38.5,41.09
		c-9.55,3.44-19.46,4.84-29.57,4.96c-0.99,0.01-1.98,0.17-3.75,0.33c1.21,1.2,1.84,1.94,2.59,2.55c8.64,7.03,16.36,14.9,22.33,24.39
		c16.01,25.41,12.81,55.75-8.11,77.27c-10.32,10.61-22.54,17.77-37.21,20.34c-18.73,3.28-34.79-2.21-48.18-15.52
		c-10.38-10.33-16.58-23.14-21.19-36.84c-0.34-1-0.81-1.95-1.21-2.93c-0.23-0.01-0.45-0.03-0.68-0.04
		c-0.43,0.96-0.93,1.89-1.27,2.87c-3.78,11.18-8.79,21.71-16.27,30.95c-19.43,24-48.48,27.43-73.88,13.15
		c-15.78-8.88-27.08-21.83-32.63-39.22c-5.89-18.47-2.72-35.89,7.31-52.21c5.73-9.32,13.09-17.23,21.52-24.17
		c0.5-0.41,0.98-0.84,1.43-1.29C198.54,467.73,198.59,467.48,198.89,466.8z"/>
</g>
<g>
	<g>
		<path class="st3" d="M217.4,418.66c-6.43-16.47-12.79-32.75-19.24-49.27c2.43-0.98,4.69-1.9,7.22-2.93
			c6.41,16.37,12.73,32.52,19.01,48.55c9.18-3.19,18.14-6.31,27.4-9.54c-3.6-17.27-7.25-34.73-10.97-52.56
			c2.46-0.55,4.84-1.08,7.61-1.7c3.68,17.55,7.33,35.01,11,52.49c10.22-0.99,20.35-1.98,31.02-3.02c0.3-17.5,0.6-35.36,0.9-53.45
			c2.59,0,5,0,7.36,0c0,17.9,0,35.76,0,53.78c8.78,1.22,17.87,2.47,27.2,3.77c4.87-15.55,9.79-31.25,14.8-47.22
			c2.53,0.79,4.85,1.5,7.45,2.31c-4.93,15.76-9.78,31.27-14.66,46.89c7.86,2.9,15.63,5.76,23.65,8.72
			c8.45-13.48,17.05-27.19,25.73-41.04c2.3,1.43,4.38,2.72,6.62,4.11c-8.47,13.54-16.89,27-25.22,40.31
			c8.11,5.24,16.1,10.41,24.37,15.76c7.59-9.1,15.4-18.47,23.48-28.16c1.95,1.59,3.83,3.13,6.03,4.93
			c-7.9,9.51-15.74,18.95-23.67,28.49c2.41,2.27,4.73,4.42,7,6.62c2.48,2.4,2.48,3.1-0.08,5.5c-21.31,19.95-46.05,33.71-74.67,39.58
			c-53.56,10.98-101.04-1.77-142.1-37.99c-2.14-1.89-3.99-4.1-6.3-6.5c5.07-4.44,10.12-8.87,15.32-13.42
			c-8.84-14.33-17.7-28.69-26.78-43.41c2.17-1.37,4.21-2.66,6.58-4.16c8.92,14.41,17.72,28.64,26.58,42.95
			C205.92,425.54,211.59,422.14,217.4,418.66z M392.69,449.18c-59.7-56.14-151.5-50.29-202.69-1.55
			C244.79,499.66,335.1,501.65,392.69,449.18z"/>
		<path class="st4" d="M392.69,449.18c-57.59,52.48-147.9,50.48-202.69-1.55C241.19,398.88,332.99,393.04,392.69,449.18z
			 M305.95,448.08c-0.01-8.33-6.63-15.03-14.89-15.04c-8.26-0.01-15,6.68-15.04,14.95c-0.04,8.24,6.69,14.99,14.96,15.02
			C299.32,463.03,305.95,456.42,305.95,448.08z"/>
	</g>
	<ellipse class="st5" cx="292.53" cy="448.03" rx="24.69" ry="35.51"/>
	<circle cx="292.53" cy="448.03" r="14.18"/>
</g>
</svg>
