<?xml version="1.0" encoding="UTF-8"?>
<svg id="Capa_1" data-name="Capa 1" xmlns="http://www.w3.org/2000/svg" viewBox="0 0 595.28 841.89">
  <defs>
    <style>
      .cls-1 {
        fill: #ba007c;
      }

      .cls-1, .cls-2 {
        stroke: #fff;
        stroke-miterlimit: 10;
        stroke-width: 8px;
      }

      .cls-2 {
        fill: #58167d;
      }
    </style>
  </defs>
  <path class="cls-1" d="M174.86,443.93c-33.24-8.38-68.28-14.07-100.63-26.68-16.75-6.53-32.66-23-42.12-39.02-28.33-47.96,8.71-107.1,66.66-108.88,46.34-1.43,84.57,18.87,116.22,45.28-3.14-30.74-9.71-63.33-9.05-95.77,1.09-53.8,38.59-87.87,86.56-83.76,40.08,3.43,69.27,39,71.3,88.78.64,15.69-.97,31.73-3.66,47.24-2.66,15.33-8,30.19-10.32,38.58,30.34-12.24,63.02-30.84,98.08-38.4,63.08-13.6,111.57,38.22,94.04,95.76-7.58,24.89-25.35,43-48.4,51.07-32.7,11.44-67.26,17.55-99.59,25.58,4.16,3.2,12.33,9.27,20.26,15.63,27.87,22.37,48.58,49.55,57.24,84.95,7.76,31.69-2.48,62-28.54,80.13-26.91,18.72-55.25,18.81-83.25,2.74-34.82-19.97-56.94-54.31-74.76-114.5-6.95,17.78-10.42,36.25-20.39,50.01-16.98,23.43-35.47,47.25-58.1,64.71-25.57,19.73-60.52,14.2-86.1-6.9-25.95-21.41-29.84-49.93-22.09-80.39,8.74-34.34,30.21-60.54,57.63-82.13,7.51-5.91,15.39-11.36,19.02-14.03ZM324.18,404.55c-.39-22.96-17.82-40.46-40.12-40.28-21.7.17-40.92,19.11-40.98,40.39-.07,22.98,19.33,41.95,42.22,41.29,22.61-.65,39.27-18.38,38.88-41.4Z"/>
  <path class="cls-2" d="M284.33,443.17c-21.2.13-38.75-17.24-38.59-38.21.15-20.08,17.84-37.76,37.94-37.9,20.75-.15,38.72,17.85,38.51,38.55-.21,20.53-17.25,37.44-37.86,37.56Z"/>
</svg>