<?xml version="1.0" encoding="UTF-8"?>
<svg id="Capa_1" data-name="Capa 1" xmlns="http://www.w3.org/2000/svg" viewBox="0 0 595.28 841.89">
  <defs>
    <style>
      .cls-1 {
        fill: #131212;
      }

      .cls-1, .cls-2, .cls-3, .cls-4, .cls-5, .cls-6, .cls-7, .cls-8, .cls-9, .cls-10 {
        stroke-width: 0px;
      }

      .cls-2 {
        fill: #dda3a5;
      }

      .cls-3 {
        fill: #fff;
      }

      .cls-4 {
        fill: #e9d3a4;
      }

      .cls-5 {
        fill: #1d1513;
      }

      .cls-6 {
        fill: #ba007c;
      }

      .cls-7 {
        fill: #f2e7c4;
      }

      .cls-8 {
        fill: #100f10;
      }

      .cls-9 {
        fill: #0b0a0b;
      }

      .cls-10 {
        fill: #efefef;
      }
    </style>
  </defs>
  <path class="cls-2" d="M278.68,621.34c3.22,0,3.22-5,0-5s-3.22,5,0,5h0Z"/>
  <g>
    <path class="cls-8" d="M498.06,568.11c-9.91.96-22.5-2.65-34.08,3.65-.23.12-.56.19-.8.12-12.55-3.22-25.13.66-37.73.49-14.3-.19-27.6-4.87-41.92-4.68-59.24.81-118.51.35-177.76.33-5.21,0-10.11.7-15.19,2.43-9.86,3.35-20.55,2.19-30.65,2.12-7.31-.05-15.4.82-22.15-.92-22.48-5.78-45.1-2.69-67.64-3.58-3.16-.12-6.56-1.09-6.47-4.83.1-3.73,3.44-4.39,6.67-4.39,7.41,0,14.91-.77,22.19.17,7.77,1.01,9.23-2.83,9.74-9.01.66-7.98,3.23-15.46,6.59-22.7,3.95-8.51,9.96-15.24,18.44-19.08,4.58-2.07,5.04-4.07,3.94-8.68-6.04-25.33-5.79-50.41,4.34-74.87,4.71-11.36,11.95-20.95,20.84-29.21,4.58-4.25,6.18-9.13,6.92-15.08,2.59-20.74.51-41.68,2.92-62.42.8-6.83,1.56-13.66,4.18-20.05,3.59-8.75,8.9-11.68,18.2-10.02,19.96,3.56,37.75,12.68,55.24,22.33,5.25,2.9,9.96,4.12,16.16,2.94,36.54-7.01,70.64,2.01,103.5,17.27,5.41,2.51,9.98,2.92,15.58.99,14.75-5.07,29.79-8.85,45.43-10.56,28.87-3.15,42.37,7.83,45.2,36.92,1.71,17.56,1.03,35.02.13,52.56-.79,15.31-.78,30.38,4.23,45.45,5.59,16.8,5.18,34.59,3.85,52.16-.26,3.49.16,6.06,2.62,8.78,8.78,9.72,12.77,21.66,13.83,34.41.54,6.44,2.95,8.24,9.1,7.82,7.65-.52,15.35-.17,23.03-.09,3.14.03,6.52.59,6.55,4.52.03,3.94-3.43,4.61-6.51,4.66-8.78.13-17.56.05-28.54.05Z"/>
    <path class="cls-6" d="M331.95,326.96c11.59,4.4,24.17,6.53,33.75,15.47,2.26,2.11,5.13.36,7.72-.58,16.5-5.94,33.27-10.81,50.78-12.73.54-.06,1.07-.25,1.61-.32,22.69-2.8,33.28,5.74,35.61,28.44,1.69,16.39,1.59,32.74.52,49.18-1.17,17.9-2.74,35.94,4.49,53.18,2.05,10.65,1.66,21.49,2.26,32.23.66,11.7-1.3,12.98-13.06,11.08-9.22-.16-18.5-1.2-27.63.39-11.24,1.96-20.79,7.46-28.68,15.75-3.96.39-7.69-.71-11.01-2.55-14.32-7.93-29.71-13.75-43.76-22.21-3.11-2.38-6.87-3.49-10.36-5.14-5.38-3.07-11.39-4.86-16.64-8.19-3.08-1.99-6.55-2.51-10.11-2.72-5.08-1.07-10.05-2.49-15.21-3.34-11.55-1.89-20.85-18.34-18.57-32.69,2.19-13.81,5.79-27.35,11.23-40.22,9.71-22.97,21.1-45.07,36.79-64.66,3.04-3.8,5.42-8.31,10.24-10.38Z"/>
    <path class="cls-3" d="M318.1,479.87c5.57,2.62,11.15,5.23,16.72,7.85,1.77,4.44,6.8,2.79,9.67,5.19,14.39,6.91,28.9,13.57,43.07,20.9,3.86,2,8.58,1.92,11.78,5.25-8.43,11.69-12.5,24.26-7.24,39.2h-187.16c3.36-11.65,2.41-22.88-3.93-33.47-4.98-8.33-12.15-13.95-20.84-17.88-10.32-4.66-21.3-5.16-32.23-4.08-6.4.63-8.32-1.45-9.53-7.43-2.58-12.74-3.01-25.52-2.82-38.41,1.95-6.82,2.6-7.16,7.12-2.2,7.9,8.67,16.78,15.71,28.11,19.35,4.52,1.45,9.21,2.44,13.78,1.49,18.02-3.71,35.78-8.26,51.92-17.65,9.68-5.64,15.97-14.08,17.33-24.8,3.37-26.49,11.2-52,16.16-78.12,1.76-9.26,2.14-18.57.93-27.84-.72-5.46.53-8.48,6.33-8.73,18.67-.05,37.01,1.99,54.67,8.46-11.62,15.65-23.31,31.26-32.28,48.65-11.34,21.98-21.6,44.46-23.72,69.45-1.46,17.13,5.74,25.24,22.84,28.79,3.19.66,6.3,1.76,9.44,2.66,2.78,2.63,7,1.02,9.88,3.37Z"/>
    <path class="cls-6" d="M277.27,318.49c-2.15,1.34-6.21.45-4.87,5.49,3.93,14.84.62,29.4-2.61,43.85-4.6,20.58-10.46,40.84-12.64,61.97-1.46,14.16-9.18,25.09-22.02,31.85-15.42,8.12-31.97,13.44-49.02,16-17.53,2.63-31.02-6.62-42.54-18.94-1.87-2-3.63-4.11-5.5-6.24-2.24.7-1.05,3.36-2.48,4.51,2.26-16.69,7.49-32.25,17.99-45.66,4.71-6.02,9.9-11.62,16.1-16.23,12.79-9.51,19.49-23.99,29.27-35.96,15.92-19.48,36.18-32.22,60.85-37.38,5.77-1.21,11.24-4.42,17.47-3.26Z"/>
    <path class="cls-3" d="M180.29,563.4c1.4-4.46,2.95-8.28,2.95-12.48,0-3.06.31-6.61-3.88-6.83-4.15-.22-4.2,3.08-4.49,6.29-1,10.81-5.41,15.48-13.6,14.74-3.86-.35-6.88-.84-4.94-6.41,1.51-4.32,1.18-9.22.37-13.85-.42-2.39-1.79-4.13-4.45-3.85-2.62.27-3.66,2.14-3.57,4.63.08,2.19.54,4.39.36,6.55-.48,5.69-1.57,11.09-8.85,11.69-7.1.59-12.36-1.79-14.53-9.09-.23-.78-.31-1.61-.49-2.42-.66-2.99-1.23-6.52-5.41-5.59-4.3.95-3.25,4.91-2.43,7.45,1.72,5.33-.04,6.68-5.09,6.06-2.58-.32-3.27-1.6-2.94-3.83,2.43-16.86,5.86-33.27,23.15-41.82,15.88-7.85,42.94-4.5,55.15,6.74,7.6,7,12.05,15.6,11.29,26.2-.72,10.02-7.54,15.88-18.58,15.81Z"/>
    <path class="cls-3" d="M415.94,563.25c-11.93.46-19.64-8.11-18.29-20.29,1.56-14.06,12.53-26.25,27.51-30.46,9.69-2.72,19.7-2.69,29.31-.82,19.49,3.81,34.45,25.07,33,45.3-.14,2.02-.82,3.34-2.76,3.11-2.74-.32-8.3,2.49-5.5-4.87.98-2.57,2.5-7.22-2.06-8.34-5.11-1.25-5.08,3.28-5.94,6.77-1.96,7.93-7.22,11.19-15.28,10.12-7.84-1.04-7.75-7.28-8.63-12.88-.16-1.04.22-2.17.33-3.26.3-3.16.4-6.54-3.88-6.65-3.79-.1-3.94,3.23-4.04,5.95-.12,3.26-.16,6.58.29,9.81,1.02,7.41-1.78,10.08-9.02,8.02-6.53-1.86-8.69-6.8-9.11-13.09-.22-3.36.32-8.21-5.06-7.48-4.54.61-3.45,5.05-3.15,8.1.36,3.69,1.49,7.3,2.29,10.95Z"/>
    <path class="cls-3" d="M218.99,329.71c-17.45,11.09-30.48,26.31-41.69,46.42-2.02-22.43-2.68-42.39-.51-62.41,2.14-15.2,10.61-18.58,23.66-9.81,7.41,4.98,12.37,12.15,18.16,18.59,1.84,2.04,2.86,4.67.38,7.21Z"/>
    <path class="cls-6" d="M218.99,329.71c.12-7.46-6.54-10.49-10.29-15.36-2.26-2.94-5.4-5.3-8.43-7.54-12.85-9.53-18.17-7.92-23.49,6.91-.64-3.28-.62-6.61.49-9.72,1.98-5.53,4.52-9.16,12-7.39,17.65,4.18,33.83,11.3,50.01,21.14-7.16,4.69-14.62,6.88-20.31,11.95Z"/>
    <path class="cls-6" d="M455.65,502.92q10.81-.39,10.78-11.4c-.02-10.64,0-21.28.02-31.92,4.34,14.49,4.8,29.3,3.64,44.26-.27,3.54-1.43,4.11-4.59,2.62-3.14-1.48-6.56-2.4-9.85-3.56Z"/>
    <path class="cls-3" d="M433.42,341.45c11.83,4.67,11.36,16.06,12.8,25.54,1.7,11.2-2.28,22.13-5.44,32.9-.67,2.3-.61,4.82-.89,7.24-3.2,2.76-6.44,2.65-9.72.13-9.49-12.52-17.37-26.45-32.08-34.23-3.7-1.96-6.72-5.52-9.46-8.84-2.6-3.14-3.72-7.16.99-9.55,7.38-3.75,12.67-10.73,20.82-13.2,7.66-2.62,15.32-2.63,22.98,0Z"/>
    <path class="cls-5" d="M328.02,463.08c7.24,2.38,15,3.38,21.51,7.73,2.7,1.8,6.23,3.82,4.02,7.73-2.55,4.5-5.42,1.21-8.14-.44-10.15-6.15-21.65-7.23-33.05-8.55-3.24-.38-7.16.31-8.19-3.77-.9-3.59,2.65-5.16,4.94-6.85,12.19-8.98,26.1-13.47,41.05-14.98,3.14-.32,6.53-.15,6.91,3.86.36,3.76-2.83,3.85-5.64,4.3-8.04,1.29-16.36,1.61-23.57,6.11-1.7,1.67-2.32,3.31.16,4.85Z"/>
    <path class="cls-3" d="M433.42,341.45c-7.66,0-15.32,0-22.98,0,4.45-4.83,18.5-4.82,22.98,0Z"/>
    <path class="cls-3" d="M430.17,407.26c3.24-.04,6.48-.09,9.72-.13.24,3.31.71,6.52-4.32,6.77-5.18.25-5.74-2.69-5.4-6.64Z"/>
    <path class="cls-7" d="M344.49,492.91c-3.59-1.04-9.93,3.03-9.67-5.19,3.51,1.2,7.64,1.24,9.67,5.19Z"/>
    <path class="cls-6" d="M328.02,463.08c-2.08-.13-4.16-.26-7.16-.44,2.03-3.22,4.37-4.04,7.01-4.4.05,1.62.1,3.23.16,4.85Z"/>
    <path class="cls-4" d="M318.1,479.87c-3.29-1.13-8.07,2.1-9.88-3.37,3.76-.24,7.42-.21,9.88,3.37Z"/>
    <path class="cls-1" d="M281.35,510.99c5.56.06,10.86-1.26,16.07-3.04,2.63-.9,5.16-.79,6.21,2.09,1.25,3.42-1.09,4.95-3.99,5.84-16.62,5.05-32.55,5.58-45.82-7.98-2.55-2.61-4.07-2.1-6.88-.69-9.44,4.73-19.89,2.82-27.17-4.5-2-2.01-4.06-4.36-1.84-7.11,2.24-2.79,4.78-1.41,7.11.51,2.96,2.42,5.92,4.8,9.99,5.33,4.45.58,8.98-.26,10.86-4.02,1.78-3.56,3.01-8.3-.46-12.26-.9-1.03-1.72-2.15-2.39-3.34-2.55-4.45-4.33-9.6-1.75-14.06,2.76-4.79,8.28-2.93,12.82-2.52,1.9.17,3.82.61,5.61,1.26,4.48,1.61,10.33,1.86,11.01,8.17.66,6.13-3.97,9.33-8.36,12.1-8.85,5.59-9.31,9.49-1.32,16.75,5.73,5.21,12.54,7.7,20.31,7.47Z"/>
    <path class="cls-9" d="M209.77,418.88c12.35.06,22.72,10.12,22.76,22.06.04,11.62-10.85,22.25-22.82,22.29-11.36.04-21.68-10.62-21.61-22.31.08-12.08,9.93-22.11,21.66-22.05Z"/>
    <path class="cls-10" d="M225.48,431.77c-.5,3.42-2.39,5.85-5.64,6.1-3.32.26-5.66-1.72-5.75-5.33-.08-3.48,1.82-5.77,5.25-5.98,3.46-.21,5.24,2.19,6.13,5.21Z"/>
  </g>
</svg>