<?xml version="1.0" encoding="UTF-8"?>
<svg id="Capa_1" data-name="Capa 1" xmlns="http://www.w3.org/2000/svg" viewBox="0 0 595.28 841.89">
  <defs>
    <style>
      .cls-1 {
        stroke: #433f8d;
        stroke-miterlimit: 10;
      }

      .cls-1, .cls-2 {
        fill: #433f8d;
      }

      .cls-3 {
        fill: #fff;
      }

      .cls-3, .cls-2 {
        stroke-width: 0px;
      }
    </style>
  </defs>
  <path class="cls-1" d="M565.01,267.91v396.89c-.66,1.83-1.52,3.62-1.95,5.5-8.75,38.03-39.42,63.26-78.06,63.31-125.48.15-250.96.21-376.43-.03-43.22-.08-78.01-34.49-78.12-77.56-.31-126.27-.18-252.54-.03-378.81.02-16.14,5.05-30.92,14.08-44.5,12.61-18.97,31.6-27.58,52.32-33.72,133.09,0,266.18,0,399.27,0,11.53,4.76,23.84,8.21,34.42,14.56,20.19,12.12,29.45,32.13,34.51,54.36ZM125.72,576.59c29.35,0,57.74.02,86.12-.02,4.34,0,8.73.03,13.02-.54,17.49-2.33,32.52-9.46,43.52-23.69,20.68-26.74,18.17-56.92-7.17-86,.95-1.13,1.89-2.34,2.91-3.46,16.82-18.42,22.81-39.7,14.57-63.47-8.32-24.01-25.66-39.2-51.11-41.79-20.37-2.07-41.04-1.2-61.58-1.46-13.3-.17-26.61-.03-40.3-.03v220.47ZM468.96,513.24c6.81-45.7-20.52-83.64-62-92.58-38.86-8.38-79.32,16.43-90.59,54.83-11.65,39.71,9.29,81.19,48.46,95.99,34.96,13.21,77.8-2.6,93.64-35.23-8.35-4.84-16.76-9.71-24.99-14.47-20.91,21.25-36.21,26.8-55.74,20.4-14.07-4.62-24.31-13.1-29.42-28.93h120.63ZM454.14,356.85h-125.37c0,7.32.5,14-.12,20.57-.83,8.81,2.29,11.62,11.29,11.45,29.27-.54,58.55-.2,87.83-.2,8.57,0,17.13,0,26.38,0v-31.82Z"/>
  <path class="cls-3" d="M125.72,576.59v-220.47c13.69,0,27-.14,40.3.03,20.54.26,41.21-.61,61.58,1.46,25.45,2.59,42.78,17.77,51.11,41.79,8.24,23.78,2.25,45.06-14.57,63.47-1.03,1.12-1.96,2.33-2.91,3.46,25.34,29.08,27.85,59.26,7.17,86-11,14.23-26.02,21.36-43.52,23.69-4.29.57-8.68.54-13.02.54-28.39.04-56.77.02-86.12.02ZM157.17,450.53c22.34,0,44,1,65.51-.33,16.13-1,27.3-14.78,27.69-30.27.37-14.55-10.43-29.75-24.33-30.48-22.7-1.19-45.5-.32-68.87-.32v61.4ZM157.25,481.93v62.1c20.72,0,40.75.17,60.79-.05,19.18-.21,32.18-12.56,32.39-30.27.2-17.11-13.23-31.14-31.52-31.66-20.09-.57-40.21-.13-61.66-.13Z"/>
  <path class="cls-3" d="M468.96,513.24h-120.63c5.11,15.83,15.35,24.31,29.42,28.93,19.53,6.41,34.83.86,55.74-20.4,8.23,4.77,16.64,9.64,24.99,14.47-15.84,32.64-58.68,48.45-93.64,35.23-39.17-14.8-60.11-56.28-48.46-95.99,11.26-38.4,51.72-63.21,90.59-54.83,41.48,8.94,68.81,46.89,62,92.58ZM349.15,480.69h85.42c-8.9-20.06-25.24-30.56-45.09-29.75-18.25.74-33.88,12.14-40.33,29.75Z"/>
  <path class="cls-3" d="M454.14,356.85v31.82c-9.24,0-17.81,0-26.38,0-29.28,0-58.56-.34-87.83.2-9,.17-12.12-2.64-11.29-11.45.62-6.57.12-13.25.12-20.57h125.37Z"/>
  <path class="cls-2" d="M157.17,450.53v-61.4c23.37,0,46.17-.87,68.87.32,13.9.73,24.7,15.92,24.33,30.48-.39,15.49-11.56,29.27-27.69,30.27-21.51,1.33-43.17.33-65.51.33Z"/>
  <path class="cls-2" d="M157.25,481.93c21.45,0,41.57-.44,61.66.13,18.29.51,31.72,14.55,31.52,31.66-.21,17.7-13.22,30.06-32.39,30.27-20.03.22-40.07.05-60.79.05v-62.1Z"/>
  <path class="cls-2" d="M349.15,480.69c6.45-17.62,22.09-29.02,40.33-29.75,19.85-.8,36.19,9.69,45.09,29.75h-85.42Z"/>
</svg>