<?xml version="1.0" encoding="UTF-8"?>
<svg id="Capa_1" data-name="Capa 1" xmlns="http://www.w3.org/2000/svg" viewBox="0 0 595.28 841.89">
  <defs>
    <style>
      .cls-1 {
        fill: #fff;
      }

      .cls-1, .cls-2 {
        stroke-width: 0px;
      }

      .cls-3 {
        stroke: #fff;
        stroke-miterlimit: 10;
        stroke-width: 5px;
      }

      .cls-3, .cls-2 {
        fill: #433f8d;
      }
    </style>
  </defs>
  <path class="cls-3" d="M187.17,197.11c83.96,0,167.91,0,251.87,0,1.16.33,2.3.69,3.47.97,13,3.17,26.64,4.77,38.91,9.75,57.41,23.35,90.42,66.28,99.21,127.66.89,6.2,1.06,12.55,1.06,18.83.07,74.32.02,148.64.06,222.95.02,32.56-8.61,62.67-27.42,89.16-32.08,45.15-76.24,67.9-131.79,67.95-72.74.07-145.49-.14-218.23.09-32.15.1-61.93-7.67-88.77-25.36-32.28-21.27-54.23-50.5-64.85-87.8-2.76-9.68-4.19-19.73-6.24-29.6,0-83.96,0-167.91,0-251.87.33-1.16.82-2.31.95-3.49,2.66-24.53,10.61-47.24,24.16-67.82,21.36-32.44,50.61-54.51,88.06-65.19,9.66-2.75,19.69-4.19,29.56-6.22ZM312.84,692.47c36.56,0,73.12.38,109.66-.22,11.75-.19,23.79-1.76,35.11-4.82,48.83-13.22,82.09-58.65,82.16-111.34.11-73.46.23-146.92-.18-220.38-.06-11.39-1.73-23.08-4.68-34.09-13.12-48.99-58.72-82.46-111.63-82.53-73.46-.09-146.92-.1-220.38.09-8.51.02-17.21.69-25.5,2.52-54.32,12.01-90.78,57.21-90.96,112.96-.23,73.99-.31,147.97.04,221.96.19,39.42,16.23,71.34,48.3,94.66,20.32,14.78,43.44,21.13,68.38,21.18,36.56.07,73.11.02,109.67.02Z"/>
  <path class="cls-3" d="M312.84,692.47c-36.56,0-73.11.05-109.67-.02-24.94-.05-48.06-6.4-68.38-21.18-32.07-23.32-48.11-55.24-48.3-94.66-.35-73.98-.28-147.97-.04-221.96.18-55.75,36.64-100.96,90.96-112.96,8.29-1.83,16.99-2.5,25.5-2.52,73.46-.19,146.92-.18,220.38-.09,52.91.07,98.51,33.53,111.63,82.53,2.95,11.01,4.61,22.7,4.68,34.09.41,73.46.29,146.92.18,220.38-.08,52.69-33.34,98.11-82.16,111.34-11.33,3.07-23.37,4.63-35.11,4.82-36.55.61-73.11.22-109.66.22ZM168.31,465.66c-.06,79.75,64.82,144.78,144.56,144.9,79.75.13,144.84-64.69,145.03-144.43.2-79.96-64.87-145.18-144.82-145.16-79.75.01-144.71,64.94-144.77,144.69ZM460.01,339.8c11.66,0,20.92-9.19,20.97-20.81.05-11.69-9.08-21-20.68-21.1-11.92-.1-21.27,9.19-21.23,21.07.04,11.63,9.29,20.83,20.94,20.84Z"/>
  <path class="cls-2" d="M168.31,465.66c.06-79.75,65.02-144.68,144.77-144.69,79.95-.01,145.02,65.2,144.82,145.16-.2,79.74-65.28,144.56-145.03,144.43-79.74-.13-144.62-65.15-144.56-144.9ZM415.95,465.74c-.03-56.33-46.59-102.87-102.86-102.82-56.35.05-102.85,46.57-102.82,102.86.03,56.33,46.55,102.83,102.86,102.82,56.31-.01,102.85-46.57,102.82-102.86Z"/>
  <path class="cls-1" d="M460.01,339.8c-11.65,0-20.9-9.21-20.94-20.84-.04-11.88,9.31-21.17,21.23-21.07,11.6.1,20.73,9.41,20.68,21.1-.05,11.62-9.31,20.81-20.97,20.81Z"/>
</svg>