<?xml version="1.0" encoding="UTF-8"?>
<svg id="Capa_1" data-name="Capa 1" xmlns="http://www.w3.org/2000/svg" viewBox="0 0 595.28 841.89">
  <defs>
    <style>
      .cls-1 {
        fill: #fff;
      }

      .cls-1, .cls-2 {
        stroke-width: 0px;
      }

      .cls-3 {
        fill: none;
        stroke: #fff;
        stroke-miterlimit: 10;
        stroke-width: 14px;
      }

      .cls-2 {
        fill: #403e86;
      }
    </style>
  </defs>
  <g id="Capa_2-2" data-name="Capa 2-2">
    <g>
      <path class="cls-2" d="M182.93,228.44h285.76c44.2,0,80.31,36.11,80.31,80.31v275.8c0,44.2-36.11,80.31-80.31,80.31H182.93c-44.2-.62-80.31-36.73-80.31-80.94v-275.18c0-44.2,36.11-80.31,80.31-80.31Z"/>
      <g>
        <circle class="cls-2" cx="325.5" cy="446.34" r="89.03"/>
        <path class="cls-1" d="M325.5,546.58c-26.77,0-51.67-10.58-70.97-29.26-18.68-18.68-29.26-44.2-29.26-70.35s10.58-51.67,29.26-70.97c18.68-19.3,44.83-29.26,70.97-29.26s51.67,10.58,70.35,29.26c18.68,18.68,29.26,44.2,29.26,70.35s-10.58,51.67-29.26,70.35c-18.05,19.3-43.58,29.88-70.35,29.88ZM325.5,368.52c-42.96,0-77.82,34.86-77.82,77.82s34.86,77.82,77.82,77.82,78.44-34.86,78.44-77.82-35.49-77.82-78.44-77.82Z"/>
      </g>
      <circle class="cls-1" cx="421.38" cy="346.1" r="15.56"/>
    </g>
  </g>
  <path class="cls-3" d="M400.83,289.45h-150.04c-47.32,0-85.29,37.98-85.29,85.29v142.57c0,47.32,37.98,85.29,85.29,85.29h150.04c47.32,0,85.29-37.98,85.29-85.29v-141.95c0-47.32-38.6-85.92-85.29-85.92Z"/>
</svg>