<?xml version="1.0" encoding="UTF-8"?>
<svg id="Capa_1" data-name="Capa 1" xmlns="http://www.w3.org/2000/svg" viewBox="0 0 595.28 841.89">
  <defs>
    <style>
      .cls-1 {
        fill: #fff;
      }

      .cls-1, .cls-2 {
        stroke-width: 0px;
      }

      .cls-2 {
        fill: #433f8d;
      }
    </style>
  </defs>
  <path class="cls-2" d="M296.9,197.88c37.57,0,75.14-.24,112.71.13,13.25.13,26.75.39,39.67,2.96,37.82,7.5,63.53,34.76,69.37,72.69,1.64,10.67,1.91,21.63,1.94,32.45.16,75.96.16,151.92.03,227.87-.03,15.95-.23,31.94-4.94,47.46-10.43,34.4-41.03,58.99-76.85,61.22-13.62.84-27.29,1.34-40.94,1.37-70.14.13-140.28.16-210.42-.01-14.97-.04-30.02-.14-44.76-3.54-36.71-8.46-63.72-39.49-66.63-76.91-.92-11.77-1.44-23.61-1.46-35.42-.11-74.62-.13-149.23.05-223.85.04-16.19.37-32.52,6.31-47.95,13.24-34.42,38.69-54.06,75.08-56.72,31.08-2.27,62.39-1.4,93.61-1.77,15.73-.19,31.47-.03,47.21-.03v.05ZM431.81,556.11c0-1.47,0-2.55,0-3.63,0-36.82.08-73.65-.1-110.47-.03-5.42-.75-11-2.21-16.21-3.5-12.54-8.43-24.6-18.37-33.54-27.52-24.76-65.72-22.24-90.59-4.33-5.63,4.06-10.53,9.14-15.98,13.94v-23.92h-50.57v178.1h53.69c0-1.62,0-2.94,0-4.27,0-30,0-59.99,0-89.99,0-7.99,2.17-15.36,6.28-22.21,8.1-13.48,24.23-16.83,37.56-14.52,14.13,2.44,22.95,11.56,25.35,25.68.57,3.35.75,6.79.75,10.2,0,30.12-.07,60.23-.12,90.35,0,1.54,0,3.08,0,4.83h54.3ZM167.93,377.83v178.18h54.73v-178.18h-54.73ZM195.21,350.87c17.55.08,31.64-13.89,31.75-31.47.1-17.17-13.87-31.6-30.74-31.75-18.26-.16-32.74,13.83-32.75,31.66-.01,17.36,14.19,31.47,31.75,31.56Z"/>
  <path class="cls-1" d="M431.81,556.11h-54.3c0-1.75,0-3.29,0-4.83.05-30.12.12-60.23.12-90.35,0-3.4-.19-6.85-.75-10.2-2.4-14.12-11.21-23.24-25.35-25.68-13.33-2.31-29.46,1.04-37.56,14.52-4.11,6.85-6.28,14.22-6.28,22.21,0,30,0,59.99,0,89.99,0,1.33,0,2.65,0,4.27h-53.69v-178.1h50.57v23.92c5.45-4.8,10.34-9.88,15.98-13.94,24.87-17.91,63.06-20.43,90.59,4.33,9.94,8.95,14.87,21,18.37,33.54,1.46,5.21,2.18,10.79,2.21,16.21.19,36.82.1,73.65.1,110.47,0,1.08,0,2.16,0,3.63Z"/>
  <path class="cls-1" d="M167.93,377.83h54.73v178.18h-54.73v-178.18Z"/>
  <path class="cls-1" d="M195.21,350.87c-17.56-.08-31.76-14.2-31.75-31.56.01-17.83,14.49-31.83,32.75-31.66,16.87.15,30.84,14.58,30.74,31.75-.1,17.58-14.2,31.55-31.75,31.47Z"/>
</svg>