<?xml version="1.0" encoding="UTF-8"?>
<svg id="Capa_1" data-name="Capa 1" xmlns="http://www.w3.org/2000/svg" viewBox="0 0 1228 595.28">
  <defs>
    <style>
      .cls-1, .cls-2, .cls-3 {
        stroke-miterlimit: 10;
      }

      .cls-1, .cls-3 {
        stroke: #5b4d94;
      }

      .cls-1, .cls-4 {
        fill: #050006;
      }

      .cls-5, .cls-6, .cls-7, .cls-4 {
        stroke-width: 0px;
      }

      .cls-8 {
        font-family: LeightonDemo, 'Leighton Demo';
        font-size: 250px;
      }

      .cls-8, .cls-3 {
        fill: #fff;
      }

      .cls-2 {
        fill: #8577ae;
        stroke: #211915;
        stroke-width: 2px;
      }

      .cls-6 {
        fill: #ac1b74;
      }

      .cls-7 {
        fill: #58167d;
      }
    </style>
  </defs>
  <g>
    <path class="cls-4" d="M824.51,385.36c-5.15-.78-10.34-1.37-15.45-2.37-20.34-3.95-38.68-11.96-53.22-27.23-15.8-16.61-23.23-36.72-23.7-59.4-.57-27.59,7.47-52.41,25.85-73.25,22.64-25.66,50.89-33.53,83.83-24.94,11.01,2.87,21.22,7.67,30.9,13.63,1.69,1.04,3.4,2.03,5.74,3.43-.32-1.74-.49-2.78-.72-3.81-4.36-19.87-5.56-39.77.56-59.48,8.01-25.8,25.05-43.53,50.33-52.48,33.76-11.95,65.94-8.09,94.81,13.68,21.55,16.24,30.89,39.11,31.8,65.68.42,12.28-1.17,24.36-4.24,36.26-.16.62-.19,1.26-.38,2.61,3.65-2.05,6.78-3.82,9.92-5.56,16.29-9.04,33.56-14.97,52.34-15.29,20.8-.35,39.18,6.41,54.66,20.38,18.3,16.5,28.35,37.45,32.05,61.58,3,19.51.91,38.44-7.39,56.47-10.86,23.58-29.44,38.35-53.7,46.5-10.87,3.65-22.12,5.27-34.26,7.01,1.17.91,2.41,1.73,3.49,2.73,12.76,11.68,23.64,24.8,30.61,40.8,12.74,29.22,10.63,57.63-6.48,84.31-17.05,26.59-41.44,42.72-73.17,46.25-20.18,2.25-38.64-3.08-54.91-15.38-16.86-12.74-27.62-29.96-35.58-49.17-.75-1.8-1.51-3.6-2.46-5.85-2.65,5.77-4.91,11.09-7.5,16.23-8.33,16.57-19.37,30.9-35.21,41-21.08,13.44-43.96,16.05-67.39,8.54-35.42-11.35-59.2-34.98-69.03-71.23-6.52-24.06-1.65-46.84,10.68-68.18,6.65-11.52,15.21-21.53,24.92-30.58.74-.69,1.48-1.37,2.18-2.09.12-.12.06-.41.1-.78ZM835.27,381.68c-.42.94-.48,1.3-.7,1.51-.63.63-1.3,1.24-1.99,1.8-11.74,9.67-22,20.69-29.98,33.68-13.97,22.74-18.4,47.02-10.19,72.76,7.73,24.22,23.47,42.28,45.46,54.65,35.39,19.9,75.87,15.12,102.95-18.32,10.43-12.87,17.41-27.55,22.68-43.13.47-1.38,1.17-2.67,1.77-4,.32.02.63.04.95.06.57,1.36,1.22,2.69,1.69,4.08,6.42,19.09,15.06,36.94,29.53,51.33,18.65,18.56,41.03,26.2,67.13,21.63,20.43-3.58,37.47-13.56,51.85-28.34,29.17-29.98,33.61-72.27,11.31-107.68-8.32-13.21-19.08-24.18-31.12-33.98-1.04-.84-1.92-1.88-3.61-3.55,2.46-.22,3.85-.44,5.23-.45,14.1-.17,27.9-2.12,41.21-6.91,27.62-9.94,46.17-28.7,53.65-57.26,7.48-28.56,2.69-55.62-12.85-80.58-19.37-31.12-52.84-44.12-88.29-34.9-16.36,4.25-30.98,12.06-44.88,21.43-.9.61-1.98.96-3.92,1.88.6-2.3.88-3.55,1.25-4.77,4.82-16.34,7.73-32.93,6.04-50.05-2.61-26.54-14.76-47.4-37.53-61.54-17.3-10.75-36.37-14.63-56.6-13.29-12.34.82-24.12,3.85-35.05,9.59-27.08,14.23-40.47,37.28-42.42,67.37-1.01,15.49,1.52,30.59,5.74,45.45.38,1.35.43,2.79.69,4.62-1.14-.41-1.49-.46-1.76-.64-1.21-.8-2.41-1.63-3.6-2.46-13.67-9.62-28.29-17.25-44.79-20.65-26.93-5.56-50.64,1.02-69.82,20.73-22.61,23.24-31.46,51.65-28.04,83.73,2.13,19.96,10.53,37.13,25.42,50.83,15.79,14.52,35.03,21.15,55.88,23.84,5.39.7,10.84,1.02,16.71,1.55Z"/>
    <path class="cls-7" d="M835.27,381.68c-5.87-.53-11.31-.85-16.71-1.55-20.85-2.69-40.09-9.32-55.88-23.84-14.89-13.69-23.29-30.86-25.42-50.83-3.43-32.08,5.43-60.49,28.04-83.73,19.18-19.71,42.89-26.29,69.82-20.73,16.5,3.4,31.12,11.03,44.79,20.65,1.19.84,2.39,1.66,3.6,2.46.27.18.62.23,1.76.64-.27-1.83-.31-3.27-.69-4.62-4.22-14.86-6.74-29.96-5.74-45.45,1.95-30.09,15.34-53.14,42.42-67.37,10.93-5.74,22.71-8.77,35.05-9.59,20.23-1.35,39.3,2.54,56.6,13.29,22.77,14.15,34.92,35.01,37.53,61.54,1.69,17.12-1.22,33.7-6.04,50.05-.36,1.23-.65,2.48-1.25,4.77,1.94-.92,3.01-1.28,3.92-1.88,13.9-9.37,28.52-17.18,44.88-21.43,35.44-9.21,68.92,3.78,88.29,34.9,15.53,24.96,20.33,52.02,12.85,80.58-7.48,28.56-26.03,47.32-53.65,57.26-13.31,4.79-27.11,6.74-41.21,6.91-1.38.02-2.76.23-5.23.45,1.69,1.67,2.57,2.71,3.61,3.55,12.05,9.8,22.8,20.77,31.12,33.98,22.3,35.41,17.86,77.69-11.31,107.68-14.38,14.78-31.42,24.77-51.85,28.34-26.11,4.57-48.48-3.07-67.13-21.63-14.47-14.39-23.11-32.25-29.53-51.33-.47-1.39-1.12-2.72-1.69-4.08-.32-.02-.63-.04-.95-.06-.6,1.33-1.3,2.63-1.77,4-5.27,15.59-12.25,30.26-22.68,43.13-27.08,33.44-67.56,38.22-102.95,18.32-22-12.37-37.73-30.42-45.46-54.65-8.21-25.73-3.79-50.02,10.19-72.76,7.98-12.99,18.24-24.01,29.98-33.68.69-.57,1.36-1.17,1.99-1.8.21-.21.28-.57.7-1.51ZM1043.53,329.02c-.14-41.6-34.27-75.72-75.07-76.15-43.5-.46-78.46,35.21-77.78,77.89.66,41.07,34.9,74.83,76.81,74.68,42.26-.15,76.17-34.23,76.04-76.43Z"/>
  </g>
  <g>
    <path class="cls-4" d="M854.78,374.46c-4.08-.62-8.18-1.09-12.22-1.87-16.09-3.13-30.6-9.46-42.1-21.54-12.5-13.14-18.37-29.05-18.74-46.99-.45-21.82,5.91-41.46,20.45-57.94,17.91-20.3,40.26-26.53,66.31-19.73,8.71,2.27,16.79,6.07,24.45,10.78,1.33.82,2.69,1.61,4.54,2.71-.26-1.38-.39-2.2-.57-3.01-3.45-15.72-4.39-31.46.45-47.05,6.34-20.41,19.81-34.43,39.81-41.51,26.71-9.45,52.16-6.4,74.99,10.82,17.04,12.85,24.44,30.93,25.15,51.95.33,9.72-.93,19.27-3.35,28.68-.13.49-.15,1-.3,2.06,2.89-1.62,5.36-3.02,7.85-4.4,12.89-7.15,26.55-11.84,41.4-12.09,16.46-.28,30.99,5.07,43.24,16.12,14.47,13.05,22.42,29.62,25.35,48.71,2.37,15.43.72,30.41-5.85,44.67-8.59,18.65-23.29,30.33-42.48,36.78-8.6,2.89-17.5,4.17-27.1,5.55.92.72,1.9,1.37,2.76,2.16,10.09,9.24,18.7,19.62,24.21,32.27,10.08,23.11,8.41,45.58-5.12,66.69-13.48,21.03-32.78,33.79-57.88,36.59-15.96,1.78-30.57-2.44-43.43-12.16-13.34-10.08-21.85-23.7-28.15-38.9-.59-1.43-1.19-2.85-1.94-4.63-2.1,4.57-3.88,8.77-5.93,12.84-6.59,13.11-15.32,24.44-27.85,32.43-16.68,10.63-34.77,12.7-53.31,6.75-28.02-8.98-46.83-27.67-54.6-56.35-5.16-19.03-1.3-37.05,8.44-53.93,5.26-9.11,12.03-17.03,19.71-24.19.58-.54,1.17-1.09,1.72-1.66.09-.09.05-.32.08-.62ZM863.29,371.56c-.33.74-.38,1.03-.55,1.2-.5.5-1.03.98-1.58,1.43-9.29,7.65-17.4,16.37-23.72,26.64-11.05,17.99-14.55,37.2-8.06,57.55,6.11,19.16,18.56,33.44,35.96,43.23,27.99,15.74,60.01,11.96,81.43-14.49,8.25-10.18,13.77-21.79,17.94-34.12.37-1.09.93-2.11,1.4-3.17.25.02.5.03.75.05.45,1.07.97,2.12,1.34,3.23,5.08,15.1,11.91,29.22,23.36,40.61,14.76,14.68,32.45,20.73,53.11,17.11,16.16-2.83,29.64-10.73,41.01-22.42,23.07-23.72,26.59-57.16,8.94-85.17-6.58-10.45-15.09-19.13-24.62-26.88-.82-.67-1.52-1.49-2.85-2.81,1.95-.17,3.04-.35,4.14-.36,11.15-.14,22.07-1.68,32.6-5.47,21.85-7.87,36.52-22.7,42.44-45.3,5.92-22.6,2.13-44-10.16-63.74-15.32-24.62-41.8-34.9-69.84-27.61-12.94,3.37-24.51,9.54-35.5,16.95-.71.48-1.56.76-3.1,1.49.47-1.82.7-2.8.99-3.78,3.82-12.93,6.11-26.05,4.78-39.59-2.07-20.99-11.67-37.49-29.69-48.68-13.69-8.5-28.77-11.57-44.77-10.51-9.76.65-19.08,3.04-27.72,7.58-21.42,11.26-32.01,29.49-33.56,53.29-.8,12.26,1.2,24.2,4.54,35.95.3,1.06.34,2.21.55,3.65-.9-.32-1.18-.37-1.39-.51-.96-.63-1.91-1.29-2.85-1.95-10.81-7.61-22.38-13.64-35.43-16.33-21.3-4.39-40.06.81-55.23,16.4-17.88,18.38-24.89,40.86-22.18,66.23,1.69,15.79,8.33,29.37,20.11,40.2,12.49,11.49,27.71,16.73,44.2,18.86,4.27.55,8.57.8,13.22,1.23Z"/>
    <path class="cls-6" d="M863.29,371.56c-4.65-.42-8.95-.68-13.22-1.23-16.49-2.13-31.71-7.37-44.2-18.86-11.78-10.83-18.42-24.41-20.11-40.2-2.71-25.38,4.3-47.85,22.18-66.23,15.17-15.59,33.92-20.8,55.23-16.4,13.05,2.69,24.62,8.73,35.43,16.33.94.66,1.89,1.31,2.85,1.95.21.14.49.18,1.39.51-.21-1.45-.25-2.59-.55-3.65-3.34-11.76-5.33-23.7-4.54-35.95,1.54-23.81,12.13-42.03,33.56-53.29,8.64-4.54,17.96-6.94,27.72-7.58,16-1.06,31.09,2.01,44.77,10.51,18.01,11.19,27.62,27.69,29.69,48.68,1.33,13.54-.96,26.66-4.78,39.59-.29.97-.51,1.96-.99,3.78,1.54-.73,2.38-1.01,3.1-1.49,10.99-7.42,22.56-13.59,35.5-16.95,28.04-7.29,54.52,2.99,69.84,27.61,12.29,19.74,16.08,41.15,10.16,63.74-5.92,22.59-20.59,37.43-42.44,45.3-10.53,3.79-21.45,5.33-32.6,5.47-1.09.01-2.19.18-4.14.36,1.34,1.32,2.03,2.14,2.85,2.81,9.53,7.75,18.04,16.43,24.62,26.88,17.64,28.01,14.13,61.46-8.94,85.17-11.37,11.69-24.85,19.59-41.01,22.42-20.65,3.61-38.35-2.43-53.11-17.11-11.44-11.38-18.28-25.51-23.36-40.61-.37-1.1-.89-2.15-1.34-3.23-.25-.02-.5-.03-.75-.05-.47,1.05-1.03,2.08-1.4,3.17-4.17,12.33-9.69,23.94-17.94,34.12-21.42,26.45-53.44,30.23-81.43,14.49-17.4-9.78-29.85-24.07-35.96-43.23-6.5-20.36-2.99-39.57,8.06-57.55,6.31-10.27,14.43-18.99,23.72-26.64.55-.45,1.08-.93,1.58-1.43.17-.17.22-.45.55-1.2Z"/>
  </g>
  <g>
    <g>
      <path class="cls-1" d="M883.7,318.49c-7.09-18.15-14.09-36.1-21.21-54.32,2.67-1.08,5.16-2.09,7.96-3.23,7.06,18.04,14.03,35.84,20.95,53.52,10.12-3.52,19.99-6.96,30.2-10.51-3.97-19.04-7.99-38.29-12.09-57.94,2.72-.61,5.33-1.19,8.38-1.87,4.05,19.35,8.08,38.59,12.12,57.87,11.27-1.1,22.43-2.18,34.19-3.33.33-19.3.66-38.98.99-58.92h8.11v59.29c9.68,1.34,19.7,2.73,29.99,4.15,5.37-17.14,10.8-34.44,16.32-52.05,2.79.87,5.35,1.66,8.21,2.54-5.43,17.37-10.78,34.47-16.16,51.69,8.66,3.19,17.23,6.35,26.07,9.61,9.32-14.86,18.79-29.97,28.36-45.24,2.54,1.58,4.83,3,7.3,4.53-9.34,14.93-18.62,29.76-27.8,44.44,8.94,5.78,17.75,11.47,26.87,17.37,8.37-10.03,16.98-20.35,25.88-31.04,2.15,1.76,4.22,3.45,6.65,5.44-8.71,10.48-17.35,20.89-26.09,31.4,2.66,2.51,5.21,4.88,7.72,7.3,2.74,2.64,2.74,3.41-.09,6.06-23.49,22-50.76,37.16-82.31,43.63-59.04,12.11-111.37-1.95-156.64-41.87-2.36-2.08-4.4-4.52-6.95-7.16,5.59-4.89,11.16-9.78,16.88-14.79-9.74-15.79-19.51-31.63-29.52-47.85,2.39-1.51,4.64-2.93,7.25-4.58,9.83,15.88,19.54,31.57,29.29,47.34,6.48-3.88,12.73-7.63,19.14-11.47ZM1076.92,352.13c-65.81-61.88-167-55.44-223.43-1.71,60.39,57.36,159.94,59.56,223.43,1.71Z"/>
      <path class="cls-3" d="M1076.92,352.13c-63.48,57.85-163.04,55.65-223.43-1.71,56.43-53.73,157.61-60.17,223.43,1.71ZM981.3,350.93c0-9.19-7.31-16.57-16.41-16.58-9.11-.01-16.53,7.37-16.58,16.47-.05,9.08,7.37,16.53,16.49,16.55,9.2.02,16.51-7.26,16.5-16.45Z"/>
    </g>
    <ellipse class="cls-2" cx="966.51" cy="350.86" rx="27.21" ry="39.15"/>
    <circle class="cls-5" cx="966.51" cy="350.86" r="15.63"/>
  </g>
  <text class="cls-8" transform="translate(29.05 379.42)"><tspan x="0" y="0">Af. N</tspan></text>
</svg>