<?xml version="1.0" encoding="UTF-8"?>
<svg id="Capa_1" data-name="Capa 1" xmlns="http://www.w3.org/2000/svg" viewBox="0 0 120 120">
  <defs>
    <style>
      .cls-1, .cls-2, .cls-3, .cls-4 {
        stroke-width: 0px;
      }

      .cls-5 {
        font-family: LeightonDemo, 'Leighton Demo';
        font-size: 27.28px;
      }

      .cls-5, .cls-6 {
        fill: #fff;
      }

      .cls-7 {
        fill: #8577ae;
        stroke: #211915;
        stroke-width: .5px;
      }

      .cls-7, .cls-8, .cls-6 {
        stroke-miterlimit: 10;
      }

      .cls-8, .cls-6 {
        stroke: #5b4d94;
        stroke-width: .52px;
      }

      .cls-8, .cls-4 {
        fill: #050006;
      }

      .cls-2 {
        fill: #ac1b74;
      }

      .cls-3 {
        fill: #58167d;
      }
    </style>
  </defs>
  <g>
    <path class="cls-4" d="M75.63,59.85c-.5-.08-1-.13-1.5-.23-1.97-.38-3.75-1.16-5.16-2.64-1.53-1.61-2.25-3.56-2.3-5.76-.06-2.67.72-5.08,2.51-7.1,2.19-2.49,4.93-3.25,8.12-2.42,1.07.28,2.06.74,2.99,1.32.16.1.33.2.56.33-.03-.17-.05-.27-.07-.37-.42-1.93-.54-3.85.05-5.76.78-2.5,2.43-4.22,4.88-5.08,3.27-1.16,6.39-.78,9.19,1.33,2.09,1.57,2.99,3.79,3.08,6.36.04,1.19-.11,2.36-.41,3.51-.02.06-.02.12-.04.25.35-.2.66-.37.96-.54,1.58-.88,3.25-1.45,5.07-1.48,2.02-.03,3.8.62,5.3,1.97,1.77,1.6,2.75,3.63,3.11,5.97.29,1.89.09,3.72-.72,5.47-1.05,2.28-2.85,3.72-5.2,4.51-1.05.35-2.14.51-3.32.68.11.09.23.17.34.26,1.24,1.13,2.29,2.4,2.97,3.95,1.23,2.83,1.03,5.58-.63,8.17-1.65,2.58-4.01,4.14-7.09,4.48-1.96.22-3.74-.3-5.32-1.49-1.63-1.23-2.68-2.9-3.45-4.76-.07-.17-.15-.35-.24-.57-.26.56-.48,1.07-.73,1.57-.81,1.61-1.88,2.99-3.41,3.97-2.04,1.3-4.26,1.55-6.53.83-3.43-1.1-5.74-3.39-6.69-6.9-.63-2.33-.16-4.54,1.03-6.61.64-1.12,1.47-2.09,2.41-2.96.07-.07.14-.13.21-.2.01-.01,0-.04,0-.08ZM76.67,59.49c-.04.09-.05.13-.07.15-.06.06-.13.12-.19.17-1.14.94-2.13,2-2.91,3.26-1.35,2.2-1.78,4.56-.99,7.05.75,2.35,2.27,4.1,4.41,5.29,3.43,1.93,7.35,1.46,9.97-1.78,1.01-1.25,1.69-2.67,2.2-4.18.05-.13.11-.26.17-.39.03,0,.06,0,.09,0,.06.13.12.26.16.4.62,1.85,1.46,3.58,2.86,4.97,1.81,1.8,3.98,2.54,6.5,2.1,1.98-.35,3.63-1.31,5.02-2.75,2.83-2.91,3.26-7,1.1-10.43-.81-1.28-1.85-2.34-3.02-3.29-.1-.08-.19-.18-.35-.34.24-.02.37-.04.51-.04,1.37-.02,2.7-.21,3.99-.67,2.68-.96,4.47-2.78,5.2-5.55.73-2.77.26-5.39-1.24-7.81-1.88-3.02-5.12-4.27-8.55-3.38-1.59.41-3,1.17-4.35,2.08-.09.06-.19.09-.38.18.06-.22.09-.34.12-.46.47-1.58.75-3.19.59-4.85-.25-2.57-1.43-4.59-3.64-5.96-1.68-1.04-3.52-1.42-5.48-1.29-1.2.08-2.34.37-3.4.93-2.62,1.38-3.92,3.61-4.11,6.53-.1,1.5.15,2.96.56,4.4.04.13.04.27.07.45-.11-.04-.14-.04-.17-.06-.12-.08-.23-.16-.35-.24-1.32-.93-2.74-1.67-4.34-2-2.61-.54-4.91.1-6.76,2.01-2.19,2.25-3.05,5-2.72,8.11.21,1.93,1.02,3.6,2.46,4.92,1.53,1.41,3.39,2.05,5.41,2.31.52.07,1.05.1,1.62.15Z"/>
    <path class="cls-3" d="M76.67,59.49c-.57-.05-1.1-.08-1.62-.15-2.02-.26-3.88-.9-5.41-2.31-1.44-1.33-2.26-2.99-2.46-4.92-.33-3.11.53-5.86,2.72-8.11,1.86-1.91,4.16-2.55,6.76-2.01,1.6.33,3.02,1.07,4.34,2,.12.08.23.16.35.24.03.02.06.02.17.06-.03-.18-.03-.32-.07-.45-.41-1.44-.65-2.9-.56-4.4.19-2.92,1.49-5.15,4.11-6.53,1.06-.56,2.2-.85,3.4-.93,1.96-.13,3.81.25,5.48,1.29,2.21,1.37,3.38,3.39,3.64,5.96.16,1.66-.12,3.27-.59,4.85-.04.12-.06.24-.12.46.19-.09.29-.12.38-.18,1.35-.91,2.76-1.66,4.35-2.08,3.43-.89,6.68.37,8.55,3.38,1.51,2.42,1.97,5.04,1.24,7.81-.72,2.77-2.52,4.58-5.2,5.55-1.29.46-2.63.65-3.99.67-.13,0-.27.02-.51.04.16.16.25.26.35.34,1.17.95,2.21,2.01,3.02,3.29,2.16,3.43,1.73,7.53-1.1,10.43-1.39,1.43-3.04,2.4-5.02,2.75-2.53.44-4.7-.3-6.5-2.1-1.4-1.39-2.24-3.12-2.86-4.97-.05-.13-.11-.26-.16-.4-.03,0-.06,0-.09,0-.06.13-.13.25-.17.39-.51,1.51-1.19,2.93-2.2,4.18-2.62,3.24-6.55,3.7-9.97,1.78-2.13-1.2-3.66-2.95-4.41-5.29-.8-2.49-.37-4.85.99-7.05.77-1.26,1.77-2.33,2.91-3.26.07-.06.13-.11.19-.17.02-.02.03-.06.07-.15ZM96.85,54.39c-.01-4.03-3.32-7.34-7.27-7.38-4.22-.04-7.6,3.41-7.54,7.55.06,3.98,3.38,7.25,7.44,7.24,4.09-.01,7.38-3.32,7.37-7.4Z"/>
  </g>
  <g>
    <path class="cls-4" d="M78.56,58.8c-.39-.06-.79-.11-1.18-.18-1.56-.3-2.96-.92-4.08-2.09-1.21-1.27-1.78-2.81-1.82-4.55-.04-2.11.57-4.02,1.98-5.61,1.73-1.97,3.9-2.57,6.42-1.91.84.22,1.63.59,2.37,1.04.13.08.26.16.44.26-.02-.13-.04-.21-.05-.29-.33-1.52-.43-3.05.04-4.56.61-1.98,1.92-3.34,3.86-4.02,2.59-.92,5.05-.62,7.27,1.05,1.65,1.25,2.37,3,2.44,5.03.03.94-.09,1.87-.32,2.78-.01.05-.01.1-.03.2.28-.16.52-.29.76-.43,1.25-.69,2.57-1.15,4.01-1.17,1.59-.03,3,.49,4.19,1.56,1.4,1.26,2.17,2.87,2.46,4.72.23,1.5.07,2.95-.57,4.33-.83,1.81-2.26,2.94-4.12,3.56-.83.28-1.7.4-2.63.54.09.07.18.13.27.21.98.9,1.81,1.9,2.35,3.13.98,2.24.81,4.42-.5,6.46-1.31,2.04-3.18,3.27-5.61,3.55-1.55.17-2.96-.24-4.21-1.18-1.29-.98-2.12-2.3-2.73-3.77-.06-.14-.12-.28-.19-.45-.2.44-.38.85-.57,1.24-.64,1.27-1.48,2.37-2.7,3.14-1.62,1.03-3.37,1.23-5.16.65-2.71-.87-4.54-2.68-5.29-5.46-.5-1.84-.13-3.59.82-5.23.51-.88,1.17-1.65,1.91-2.34.06-.05.11-.11.17-.16,0,0,0-.03,0-.06ZM79.38,58.51c-.03.07-.04.1-.05.12-.05.05-.1.09-.15.14-.9.74-1.69,1.59-2.3,2.58-1.07,1.74-1.41,3.6-.78,5.58.59,1.86,1.8,3.24,3.48,4.19,2.71,1.53,5.81,1.16,7.89-1.4.8-.99,1.33-2.11,1.74-3.31.04-.11.09-.2.14-.31.02,0,.05,0,.07,0,.04.1.09.21.13.31.49,1.46,1.15,2.83,2.26,3.93,1.43,1.42,3.14,2.01,5.15,1.66,1.57-.27,2.87-1.04,3.97-2.17,2.24-2.3,2.58-5.54.87-8.25-.64-1.01-1.46-1.85-2.39-2.6-.08-.06-.15-.14-.28-.27.19-.02.29-.03.4-.03,1.08-.01,2.14-.16,3.16-.53,2.12-.76,3.54-2.2,4.11-4.39.57-2.19.21-4.26-.98-6.18-1.48-2.39-4.05-3.38-6.77-2.67-1.25.33-2.37.92-3.44,1.64-.07.05-.15.07-.3.14.05-.18.07-.27.1-.37.37-1.25.59-2.52.46-3.84-.2-2.03-1.13-3.63-2.88-4.72-1.33-.82-2.79-1.12-4.34-1.02-.95.06-1.85.29-2.69.73-2.08,1.09-3.1,2.86-3.25,5.16-.08,1.19.12,2.34.44,3.48.03.1.03.21.05.35-.09-.03-.11-.04-.13-.05-.09-.06-.18-.12-.28-.19-1.05-.74-2.17-1.32-3.43-1.58-2.06-.43-3.88.08-5.35,1.59-1.73,1.78-2.41,3.96-2.15,6.42.16,1.53.81,2.85,1.95,3.9,1.21,1.11,2.68,1.62,4.28,1.83.41.05.83.08,1.28.12Z"/>
    <path class="cls-2" d="M79.38,58.51c-.45-.04-.87-.07-1.28-.12-1.6-.21-3.07-.71-4.28-1.83-1.14-1.05-1.78-2.37-1.95-3.9-.26-2.46.42-4.64,2.15-6.42,1.47-1.51,3.29-2.01,5.35-1.59,1.26.26,2.39.85,3.43,1.58.09.06.18.13.28.19.02.01.05.02.13.05-.02-.14-.02-.25-.05-.35-.32-1.14-.52-2.3-.44-3.48.15-2.31,1.18-4.07,3.25-5.16.84-.44,1.74-.67,2.69-.73,1.55-.1,3.01.19,4.34,1.02,1.75,1.08,2.68,2.68,2.88,4.72.13,1.31-.09,2.58-.46,3.84-.03.09-.05.19-.1.37.15-.07.23-.1.3-.14,1.07-.72,2.19-1.32,3.44-1.64,2.72-.71,5.28.29,6.77,2.67,1.19,1.91,1.56,3.99.98,6.18-.57,2.19-1.99,3.63-4.11,4.39-1.02.37-2.08.52-3.16.53-.11,0-.21.02-.4.03.13.13.2.21.28.27.92.75,1.75,1.59,2.39,2.6,1.71,2.71,1.37,5.95-.87,8.25-1.1,1.13-2.41,1.9-3.97,2.17-2,.35-3.72-.24-5.15-1.66-1.11-1.1-1.77-2.47-2.26-3.93-.04-.11-.09-.21-.13-.31-.02,0-.05,0-.07,0-.05.1-.1.2-.14.31-.4,1.19-.94,2.32-1.74,3.31-2.08,2.56-5.18,2.93-7.89,1.4-1.69-.95-2.89-2.33-3.48-4.19-.63-1.97-.29-3.83.78-5.58.61-1,1.4-1.84,2.3-2.58.05-.04.1-.09.15-.14.02-.02.02-.04.05-.12Z"/>
  </g>
  <g>
    <g>
      <path class="cls-8" d="M81.36,53.37c-.69-1.76-1.37-3.5-2.05-5.26.26-.11.5-.2.77-.31.68,1.75,1.36,3.47,2.03,5.19.98-.34,1.94-.67,2.93-1.02-.38-1.84-.77-3.71-1.17-5.61.26-.06.52-.12.81-.18.39,1.87.78,3.74,1.17,5.61,1.09-.11,2.17-.21,3.31-.32.03-1.87.06-3.78.1-5.71h.79v5.74c.94.13,1.91.26,2.91.4.52-1.66,1.05-3.34,1.58-5.04.27.08.52.16.8.25-.53,1.68-1.04,3.34-1.57,5.01.84.31,1.67.62,2.53.93.9-1.44,1.82-2.9,2.75-4.38.25.15.47.29.71.44-.9,1.45-1.8,2.88-2.69,4.31.87.56,1.72,1.11,2.6,1.68.81-.97,1.64-1.97,2.51-3.01.21.17.41.33.64.53-.84,1.02-1.68,2.02-2.53,3.04.26.24.51.47.75.71.27.26.27.33,0,.59-2.28,2.13-4.92,3.6-7.97,4.23-5.72,1.17-10.79-.19-15.18-4.06-.23-.2-.43-.44-.67-.69.54-.47,1.08-.95,1.64-1.43-.94-1.53-1.89-3.06-2.86-4.64.23-.15.45-.28.7-.44.95,1.54,1.89,3.06,2.84,4.59.63-.38,1.23-.74,1.85-1.11ZM100.08,56.63c-6.38-6-16.18-5.37-21.65-.17,5.85,5.56,15.5,5.77,21.65.17Z"/>
      <path class="cls-6" d="M100.08,56.63c-6.15,5.6-15.8,5.39-21.65-.17,5.47-5.21,15.27-5.83,21.65.17ZM90.82,56.51c0-.89-.71-1.61-1.59-1.61-.88,0-1.6.71-1.61,1.6,0,.88.71,1.6,1.6,1.6.89,0,1.6-.7,1.6-1.59Z"/>
    </g>
    <ellipse class="cls-7" cx="89.38" cy="56.51" rx="2.64" ry="3.79"/>
    <circle class="cls-1" cx="89.38" cy="56.51" r="1.51"/>
  </g>
  <text class="cls-5" transform="translate(5.32 60.63)"><tspan x="0" y="0">Af.N</tspan></text>
</svg>