<?xml version="1.0" encoding="UTF-8"?>
<svg id="Capa_1" data-name="Capa 1" xmlns="http://www.w3.org/2000/svg" viewBox="0 0 1300.86 513.94">
  <defs>
    <style>
      .cls-1 {
        fill: #211915;
      }

      .cls-1, .cls-2, .cls-3, .cls-4, .cls-5, .cls-6, .cls-7, .cls-8 {
        stroke-miterlimit: 10;
      }

      .cls-1, .cls-4, .cls-6, .cls-8 {
        stroke: #fff;
      }

      .cls-2 {
        stroke: #58167d;
      }

      .cls-2, .cls-8 {
        fill: #58167d;
      }

      .cls-3 {
        stroke-width: 3px;
      }

      .cls-3, .cls-4, .cls-5, .cls-7 {
        fill: #ba007c;
      }

      .cls-3, .cls-7 {
        stroke: #211915;
      }

      .cls-4, .cls-7, .cls-8 {
        stroke-width: 2px;
      }

      .cls-5 {
        stroke: #ba007c;
      }
    </style>
  </defs>
  <g>
    <path class="cls-1" d="M426.32,66.23c5.18,5.42,10.66,10.67,15.49,16.46,1.98,2.37,3.14,5.82,3.66,8.95,1.18,7.15-4.42,12.18-11.48,10.5-9.22-2.19-15.24-8.76-20.85-15.79-1.05-1.32-1.94-2.77-3.43-4.91-.58,4.13-.65,7.63-1.63,10.85-1.58,5.17-3.31,10.4-5.84,15.15-3.05,5.73-7.9,7.78-12.73,6.54-4.08-1.04-7.52-5.23-7.13-11.44.42-6.88,2.39-13.68,3.87-20.48.38-1.77,1.46-3.38,2.63-6-2.1.88-3.42,1.44-4.75,1.99-7.7,3.19-15.53,5.66-24.05,4.18-4.2-.73-7.93-2.29-9.17-6.78-1.32-4.77.69-8.55,4.43-11.48,6.9-5.4,15.07-7.25,23.53-8.22,1.21-.14,2.44-.13,4.06-.22-4.4-3.92-8.88-7.21-12.45-11.3-3.01-3.45-5.43-7.61-7.27-11.83-1.6-3.67-1.2-7.77,2.02-10.83,3.21-3.06,7.06-2.9,10.96-1.56,8.02,2.77,13.59,8.61,18.66,15.05,1.11,1.42,2.15,2.89,2.93,3.96,1.85-6.82,3.41-13.75,5.69-20.43,1.01-2.98,3.09-5.84,5.34-8.11,5.79-5.85,13.62-3.92,16.16,3.9,2.27,7,.75,13.91-1.38,20.64-1.07,3.36-2.65,6.56-3.94,9.69,6.16-1.8,12.23-4.05,18.51-5.24,3.85-.73,8.16-.48,12,.45,8.18,1.98,10.18,10.22,4.12,16.27-5.53,5.53-12.79,7.52-20.18,9-2.74.55-5.56.75-7.78,1.03ZM411.12,60.68c.01-4.06-3.43-7.5-7.38-7.38-3.88.11-6.96,3.3-7,7.26-.04,4,3.45,7.51,7.37,7.4,3.75-.1,7.01-3.48,7.02-7.28Z"/>
    <path class="cls-5" d="M411.12,60.68c-.01,3.8-3.27,7.18-7.02,7.28-3.92.1-7.41-3.41-7.37-7.4.04-3.96,3.12-7.14,7-7.26,3.96-.12,7.39,3.32,7.38,7.38Z"/>
  </g>
  <g>
    <path class="cls-1" d="M150.27,389.99c8.75,9.16,18,18.02,26.16,27.8,3.35,4.01,5.3,9.83,6.18,15.11,2,12.09-7.46,20.57-19.39,17.74-15.57-3.69-25.75-14.79-35.21-26.67-1.78-2.23-3.28-4.68-5.79-8.3-.99,6.98-1.09,12.89-2.76,18.33-2.68,8.73-5.59,17.57-9.86,25.6-5.15,9.69-13.34,13.14-21.5,11.05-6.89-1.76-12.7-8.84-12.05-19.32.72-11.63,4.04-23.11,6.54-34.59.65-2.98,2.46-5.72,4.45-10.14-3.54,1.48-5.78,2.43-8.02,3.36-13.01,5.38-26.23,9.56-40.62,7.06-7.1-1.23-13.4-3.87-15.5-11.45-2.23-8.06,1.16-14.44,7.48-19.39,11.66-9.12,25.46-12.25,39.75-13.89,2.05-.23,4.12-.23,6.85-.36-7.43-6.61-14.99-12.18-21.03-19.09-5.09-5.82-9.18-12.86-12.27-19.98-2.7-6.2-2.02-13.12,3.41-18.29,5.43-5.16,11.92-4.9,18.51-2.63,13.56,4.67,22.96,14.54,31.51,25.43,1.88,2.39,3.63,4.89,4.95,6.69,3.13-11.53,5.76-23.22,9.6-34.51,1.71-5.03,5.23-9.86,9.02-13.69,9.78-9.89,23.01-6.62,27.3,6.59,3.83,11.82,1.27,23.49-2.34,34.87-1.8,5.68-4.48,11.09-6.65,16.36,10.4-3.04,20.67-6.84,31.27-8.86,6.51-1.24,13.79-.81,20.27.75,13.82,3.34,17.19,17.26,6.96,27.49-9.34,9.34-21.6,12.71-34.08,15.2-4.63.93-9.38,1.26-13.15,1.74ZM124.59,380.62c.02-6.86-5.79-12.67-12.47-12.47-6.56.19-11.75,5.57-11.83,12.26-.08,6.75,5.82,12.68,12.44,12.51,6.33-.17,11.84-5.88,11.86-12.29Z"/>
    <path class="cls-5" d="M124.59,380.62c-.02,6.41-5.53,12.12-11.86,12.29-6.62.17-12.52-5.75-12.44-12.51.07-6.69,5.27-12.07,11.83-12.26,6.68-.2,12.49,5.61,12.47,12.47Z"/>
  </g>
  <g>
    <path class="cls-6" d="M244.46,331.41c2.21,2.31,4.54,4.55,6.6,7.01.84,1.01,1.34,2.48,1.56,3.81.5,3.05-1.88,5.19-4.89,4.47-3.93-.93-6.49-3.73-8.88-6.73-.45-.56-.83-1.18-1.46-2.09-.25,1.76-.28,3.25-.7,4.62-.67,2.2-1.41,4.43-2.49,6.46-1.3,2.44-3.36,3.31-5.42,2.79-1.74-.44-3.2-2.23-3.04-4.87.18-2.93,1.02-5.83,1.65-8.72.16-.75.62-1.44,1.12-2.56-.89.37-1.46.61-2.02.85-3.28,1.36-6.62,2.41-10.24,1.78-1.79-.31-3.38-.98-3.91-2.89-.56-2.03.29-3.64,1.89-4.89,2.94-2.3,6.42-3.09,10.02-3.5.52-.06,1.04-.06,1.73-.09-1.87-1.67-3.78-3.07-5.3-4.81-1.28-1.47-2.31-3.24-3.1-5.04-.68-1.56-.51-3.31.86-4.61,1.37-1.3,3.01-1.24,4.67-.66,3.42,1.18,5.79,3.67,7.95,6.41.47.6.91,1.23,1.25,1.69.79-2.91,1.45-5.86,2.42-8.7.43-1.27,1.32-2.49,2.27-3.45,2.47-2.49,5.8-1.67,6.89,1.66.97,2.98.32,5.92-.59,8.79-.45,1.43-1.13,2.8-1.68,4.13,2.62-.77,5.21-1.73,7.89-2.23,1.64-.31,3.48-.21,5.11.19,3.49.84,4.34,4.35,1.76,6.93-2.35,2.36-5.45,3.2-8.6,3.83-1.17.23-2.37.32-3.32.44ZM237.98,329.05c0-1.73-1.46-3.2-3.15-3.15-1.65.05-2.96,1.41-2.98,3.09-.02,1.7,1.47,3.2,3.14,3.15,1.6-.04,2.99-1.48,2.99-3.1Z"/>
    <path class="cls-5" d="M237.98,329.05c0,1.62-1.39,3.06-2.99,3.1-1.67.04-3.16-1.45-3.14-3.15.02-1.69,1.33-3.04,2.98-3.09,1.69-.05,3.15,1.42,3.15,3.15Z"/>
  </g>
  <g>
    <path class="cls-6" d="M1107.03,435.58c2.21,2.31,4.54,4.55,6.6,7.01.84,1.01,1.34,2.48,1.56,3.81.5,3.05-1.88,5.19-4.89,4.47-3.93-.93-6.49-3.73-8.88-6.73-.45-.56-.83-1.18-1.46-2.09-.25,1.76-.28,3.25-.7,4.62-.67,2.2-1.41,4.43-2.49,6.46-1.3,2.44-3.36,3.31-5.42,2.79-1.74-.44-3.2-2.23-3.04-4.87.18-2.93,1.02-5.83,1.65-8.72.16-.75.62-1.44,1.12-2.56-.89.37-1.46.61-2.02.85-3.28,1.36-6.62,2.41-10.24,1.78-1.79-.31-3.38-.98-3.91-2.89-.56-2.03.29-3.64,1.89-4.89,2.94-2.3,6.42-3.09,10.02-3.5.52-.06,1.04-.06,1.73-.09-1.87-1.67-3.78-3.07-5.3-4.81-1.28-1.47-2.31-3.24-3.1-5.04-.68-1.56-.51-3.31.86-4.61,1.37-1.3,3.01-1.24,4.67-.66,3.42,1.18,5.79,3.67,7.95,6.41.47.6.91,1.23,1.25,1.69.79-2.91,1.45-5.86,2.42-8.7.43-1.27,1.32-2.49,2.27-3.45,2.47-2.49,5.8-1.67,6.89,1.66.97,2.98.32,5.92-.59,8.79-.45,1.43-1.13,2.8-1.68,4.13,2.62-.77,5.21-1.73,7.89-2.23,1.64-.31,3.48-.21,5.11.19,3.49.84,4.34,4.35,1.76,6.93-2.35,2.36-5.45,3.2-8.6,3.83-1.17.23-2.37.32-3.32.44ZM1100.56,433.22c0-1.73-1.46-3.2-3.15-3.15-1.65.05-2.96,1.41-2.98,3.09-.02,1.7,1.47,3.2,3.14,3.15,1.6-.04,2.99-1.48,2.99-3.1Z"/>
    <path class="cls-5" d="M1100.56,433.22c0,1.62-1.39,3.06-2.99,3.1-1.67.04-3.16-1.45-3.14-3.15.02-1.69,1.33-3.04,2.98-3.09,1.69-.05,3.15,1.42,3.15,3.15Z"/>
  </g>
  <g>
    <path class="cls-6" d="M1098.21,53.81c2.21,2.31,4.54,4.55,6.6,7.01.84,1.01,1.34,2.48,1.56,3.81.5,3.05-1.88,5.19-4.89,4.47-3.93-.93-6.49-3.73-8.88-6.73-.45-.56-.83-1.18-1.46-2.09-.25,1.76-.28,3.25-.7,4.62-.67,2.2-1.41,4.43-2.49,6.46-1.3,2.44-3.36,3.31-5.42,2.79-1.74-.44-3.2-2.23-3.04-4.87.18-2.93,1.02-5.83,1.65-8.72.16-.75.62-1.44,1.12-2.56-.89.37-1.46.61-2.02.85-3.28,1.36-6.62,2.41-10.24,1.78-1.79-.31-3.38-.98-3.91-2.89-.56-2.03.29-3.64,1.89-4.89,2.94-2.3,6.42-3.09,10.02-3.5.52-.06,1.04-.06,1.73-.09-1.87-1.67-3.78-3.07-5.3-4.81-1.28-1.47-2.31-3.24-3.1-5.04-.68-1.56-.51-3.31.86-4.61,1.37-1.3,3.01-1.24,4.67-.66,3.42,1.18,5.79,3.67,7.95,6.41.47.6.91,1.23,1.25,1.69.79-2.91,1.45-5.86,2.42-8.7.43-1.27,1.32-2.49,2.27-3.45,2.47-2.49,5.8-1.67,6.89,1.66.97,2.98.32,5.92-.59,8.79-.45,1.43-1.13,2.8-1.68,4.13,2.62-.77,5.21-1.73,7.89-2.23,1.64-.31,3.48-.21,5.11.19,3.49.84,4.34,4.35,1.76,6.93-2.35,2.36-5.45,3.2-8.6,3.83-1.17.23-2.37.32-3.32.44ZM1091.73,51.44c0-1.73-1.46-3.2-3.15-3.15-1.65.05-2.96,1.41-2.98,3.09-.02,1.7,1.47,3.2,3.14,3.15,1.6-.04,2.99-1.48,2.99-3.1Z"/>
    <path class="cls-5" d="M1091.73,51.44c0,1.62-1.39,3.06-2.99,3.1-1.67.04-3.16-1.45-3.14-3.15.02-1.69,1.33-3.04,2.98-3.09,1.69-.05,3.15,1.42,3.15,3.15Z"/>
  </g>
  <g>
    <path class="cls-6" d="M267.31,192.89c2.21,2.31,4.54,4.55,6.6,7.01.84,1.01,1.34,2.48,1.56,3.81.5,3.05-1.88,5.19-4.89,4.47-3.93-.93-6.49-3.73-8.88-6.73-.45-.56-.83-1.18-1.46-2.09-.25,1.76-.28,3.25-.7,4.62-.67,2.2-1.41,4.43-2.49,6.46-1.3,2.44-3.36,3.31-5.42,2.79-1.74-.44-3.2-2.23-3.04-4.87.18-2.93,1.02-5.83,1.65-8.72.16-.75.62-1.44,1.12-2.56-.89.37-1.46.61-2.02.85-3.28,1.36-6.62,2.41-10.24,1.78-1.79-.31-3.38-.98-3.91-2.89-.56-2.03.29-3.64,1.89-4.89,2.94-2.3,6.42-3.09,10.02-3.5.52-.06,1.04-.06,1.73-.09-1.87-1.67-3.78-3.07-5.3-4.81-1.28-1.47-2.31-3.24-3.1-5.04-.68-1.56-.51-3.31.86-4.61,1.37-1.3,3.01-1.24,4.67-.66,3.42,1.18,5.79,3.67,7.95,6.41.47.6.91,1.23,1.25,1.69.79-2.91,1.45-5.86,2.42-8.7.43-1.27,1.32-2.49,2.27-3.45,2.47-2.49,5.8-1.67,6.89,1.66.97,2.98.32,5.92-.59,8.79-.45,1.43-1.13,2.8-1.68,4.13,2.62-.77,5.21-1.73,7.89-2.23,1.64-.31,3.48-.21,5.11.19,3.49.84,4.34,4.35,1.76,6.93-2.35,2.36-5.45,3.2-8.6,3.83-1.17.23-2.37.32-3.32.44ZM260.83,190.52c0-1.73-1.46-3.2-3.15-3.15-1.65.05-2.96,1.41-2.98,3.09-.02,1.7,1.47,3.2,3.14,3.15,1.6-.04,2.99-1.48,2.99-3.1Z"/>
    <path class="cls-5" d="M260.83,190.52c0,1.62-1.39,3.06-2.99,3.1-1.67.04-3.16-1.45-3.14-3.15.02-1.69,1.33-3.04,2.98-3.09,1.69-.05,3.15,1.42,3.15,3.15Z"/>
  </g>
  <path class="cls-4" d="M559.52,152.62c-3.86-.97-7.93-1.63-11.69-3.1-1.95-.76-3.79-2.67-4.89-4.53-3.29-5.57,1.01-12.44,7.74-12.64,5.38-.17,9.82,2.19,13.5,5.26-.36-3.57-1.13-7.35-1.05-11.12.13-6.25,4.48-10.2,10.05-9.73,4.65.4,8.04,4.53,8.28,10.31.07,1.82-.11,3.68-.43,5.48-.31,1.78-.93,3.51-1.2,4.48,3.52-1.42,7.32-3.58,11.39-4.46,7.32-1.58,12.96,4.44,10.92,11.12-.88,2.89-2.94,4.99-5.62,5.93-3.8,1.33-7.81,2.04-11.56,2.97.48.37,1.43,1.08,2.35,1.82,3.24,2.6,5.64,5.75,6.65,9.86.9,3.68-.29,7.2-3.31,9.3-3.12,2.17-6.42,2.18-9.67.32-4.04-2.32-6.61-6.31-8.68-13.3-.81,2.06-1.21,4.21-2.37,5.81-1.97,2.72-4.12,5.49-6.75,7.51-2.97,2.29-7.03,1.65-10-.8-3.01-2.49-3.47-5.8-2.57-9.33,1.01-3.99,3.51-7.03,6.69-9.54.87-.69,1.79-1.32,2.21-1.63ZM576.86,148.04c-.04-2.67-2.07-4.7-4.66-4.68-2.52.02-4.75,2.22-4.76,4.69,0,2.67,2.24,4.87,4.9,4.8,2.63-.08,4.56-2.13,4.52-4.81Z"/>
  <path class="cls-4" d="M766.24,85.58c-2.67-.67-5.49-1.13-8.1-2.15-1.35-.53-2.63-1.85-3.39-3.14-2.28-3.86.7-8.62,5.36-8.76,3.73-.11,6.8,1.52,9.35,3.64-.25-2.47-.78-5.1-.73-7.71.09-4.33,3.11-7.07,6.96-6.74,3.22.28,5.57,3.14,5.74,7.14.05,1.26-.08,2.55-.29,3.8-.21,1.23-.64,2.43-.83,3.1,2.44-.99,5.07-2.48,7.89-3.09,5.08-1.09,8.98,3.08,7.57,7.7-.61,2-2.04,3.46-3.89,4.11-2.63.92-5.41,1.41-8.01,2.06.33.26.99.75,1.63,1.26,2.24,1.8,3.91,3.99,4.61,6.83.62,2.55-.2,4.99-2.3,6.45-2.17,1.51-4.45,1.51-6.7.22-2.8-1.61-4.58-4.37-6.01-9.21-.56,1.43-.84,2.92-1.64,4.02-1.37,1.88-2.85,3.8-4.67,5.21-2.06,1.59-4.87,1.14-6.93-.56-2.09-1.72-2.4-4.02-1.78-6.47.7-2.76,2.43-4.87,4.64-6.61.6-.48,1.24-.91,1.53-1.13ZM778.25,82.41c-.03-1.85-1.43-3.25-3.23-3.24-1.75.01-3.29,1.54-3.3,3.25,0,1.85,1.56,3.38,3.4,3.32,1.82-.05,3.16-1.48,3.13-3.33Z"/>
  <path class="cls-4" d="M745.19,222.15c-2.67-.67-5.49-1.13-8.1-2.15-1.35-.53-2.63-1.85-3.39-3.14-2.28-3.86.7-8.62,5.36-8.76,3.73-.11,6.8,1.52,9.35,3.64-.25-2.47-.78-5.1-.73-7.71.09-4.33,3.11-7.07,6.96-6.74,3.22.28,5.57,3.14,5.74,7.14.05,1.26-.08,2.55-.29,3.8-.21,1.23-.64,2.43-.83,3.1,2.44-.99,5.07-2.48,7.89-3.09,5.08-1.09,8.98,3.08,7.57,7.7-.61,2-2.04,3.46-3.89,4.11-2.63.92-5.41,1.41-8.01,2.06.33.26.99.75,1.63,1.26,2.24,1.8,3.91,3.99,4.61,6.83.62,2.55-.2,4.99-2.3,6.45-2.17,1.51-4.45,1.51-6.7.22-2.8-1.61-4.58-4.37-6.01-9.21-.56,1.43-.84,2.92-1.64,4.02-1.37,1.88-2.85,3.8-4.67,5.21-2.06,1.59-4.87,1.14-6.93-.56-2.09-1.72-2.4-4.02-1.78-6.47.7-2.76,2.43-4.87,4.64-6.61.6-.48,1.24-.91,1.53-1.13ZM757.2,218.99c-.03-1.85-1.43-3.25-3.23-3.24-1.75.01-3.29,1.54-3.3,3.25,0,1.85,1.56,3.38,3.4,3.32,1.82-.05,3.16-1.48,3.13-3.33Z"/>
  <path class="cls-4" d="M286.66,59.11c-2.67-.67-5.49-1.13-8.1-2.15-1.35-.53-2.63-1.85-3.39-3.14-2.28-3.86.7-8.62,5.36-8.76,3.73-.11,6.8,1.52,9.35,3.64-.25-2.47-.78-5.1-.73-7.71.09-4.33,3.11-7.07,6.96-6.74,3.22.28,5.57,3.14,5.74,7.14.05,1.26-.08,2.55-.29,3.8-.21,1.23-.64,2.43-.83,3.1,2.44-.99,5.07-2.48,7.89-3.09,5.08-1.09,8.98,3.08,7.57,7.7-.61,2-2.04,3.46-3.89,4.11-2.63.92-5.41,1.41-8.01,2.06.33.26.99.75,1.63,1.26,2.24,1.8,3.91,3.99,4.61,6.83.62,2.55-.2,4.99-2.3,6.45-2.17,1.51-4.45,1.51-6.7.22-2.8-1.61-4.58-4.37-6.01-9.21-.56,1.43-.84,2.92-1.64,4.02-1.37,1.88-2.85,3.8-4.67,5.21-2.06,1.59-4.87,1.14-6.93-.56-2.09-1.72-2.4-4.02-1.78-6.47.7-2.76,2.43-4.87,4.64-6.61.6-.48,1.24-.91,1.53-1.13ZM298.68,55.94c-.03-1.85-1.43-3.25-3.23-3.24-1.75.01-3.29,1.54-3.3,3.25,0,1.85,1.56,3.38,3.4,3.32,1.82-.05,3.16-1.48,3.13-3.33Z"/>
  <path class="cls-4" d="M54.75,177.99c-2.67-.67-5.49-1.13-8.1-2.15-1.35-.53-2.63-1.85-3.39-3.14-2.28-3.86.7-8.62,5.36-8.76,3.73-.11,6.8,1.52,9.35,3.64-.25-2.47-.78-5.1-.73-7.71.09-4.33,3.11-7.07,6.96-6.74,3.22.28,5.57,3.14,5.74,7.14.05,1.26-.08,2.55-.29,3.8-.21,1.23-.64,2.43-.83,3.1,2.44-.99,5.07-2.48,7.89-3.09,5.08-1.09,8.98,3.08,7.57,7.7-.61,2-2.04,3.46-3.89,4.11-2.63.92-5.41,1.41-8.01,2.06.33.26.99.75,1.63,1.26,2.24,1.8,3.91,3.99,4.61,6.83.62,2.55-.2,4.99-2.3,6.45-2.17,1.51-4.45,1.51-6.7.22-2.8-1.61-4.58-4.37-6.01-9.21-.56,1.43-.84,2.92-1.64,4.02-1.37,1.88-2.85,3.8-4.67,5.21-2.06,1.59-4.87,1.14-6.93-.56-2.09-1.72-2.4-4.02-1.78-6.47.7-2.76,2.43-4.87,4.64-6.61.6-.48,1.24-.91,1.53-1.13ZM66.76,174.82c-.03-1.85-1.43-3.25-3.23-3.24-1.75.01-3.29,1.54-3.3,3.25,0,1.85,1.56,3.38,3.4,3.32,1.82-.05,3.16-1.48,3.13-3.33Z"/>
  <path class="cls-4" d="M787.28,459c-2.67-.67-5.49-1.13-8.1-2.15-1.35-.53-2.63-1.85-3.39-3.14-2.28-3.86.7-8.62,5.36-8.76,3.73-.11,6.8,1.52,9.35,3.64-.25-2.47-.78-5.1-.73-7.71.09-4.33,3.11-7.07,6.96-6.74,3.22.28,5.57,3.14,5.74,7.14.05,1.26-.08,2.55-.29,3.8-.21,1.23-.64,2.43-.83,3.1,2.44-.99,5.07-2.48,7.89-3.09,5.08-1.09,8.98,3.08,7.57,7.7-.61,2-2.04,3.46-3.89,4.11-2.63.92-5.41,1.41-8.01,2.06.33.26.99.75,1.63,1.26,2.24,1.8,3.91,3.99,4.61,6.83.62,2.55-.2,4.99-2.3,6.45-2.17,1.51-4.45,1.51-6.7.22-2.8-1.61-4.58-4.37-6.01-9.21-.56,1.43-.84,2.92-1.64,4.02-1.37,1.88-2.85,3.8-4.67,5.21-2.06,1.59-4.87,1.14-6.93-.56-2.09-1.72-2.4-4.02-1.78-6.47.7-2.76,2.43-4.87,4.64-6.61.6-.48,1.24-.91,1.53-1.13ZM799.3,455.83c-.03-1.85-1.43-3.25-3.23-3.24-1.75.01-3.29,1.54-3.3,3.25,0,1.85,1.56,3.38,3.4,3.32,1.82-.05,3.16-1.48,3.13-3.33Z"/>
  <g>
    <path class="cls-3" d="M1081.64,291.62c-4.97,5.45-10.82,6.74-16.64,3.81-5.79-2.92-7.76-8.24-6.18-16.99-7.08-1.54-11.48-5.74-11.43-13.25.05-7.4,4.54-11.41,11.42-12.98-1.52-8.53.32-13.91,5.87-16.86,4.17-2.22,10.76-3.11,17.01,3.54,5.18-5.3,11.15-7.02,17.83-3.05,5.28,3.14,6.82,8.47,5.09,16.31,7.37,1.8,11.8,6.13,11.48,14.17-.24,5.97-3.74,9.67-11.37,12.21,1.57,8.53-.33,13.78-6.09,16.85-5.55,2.96-11,1.78-16.98-3.77ZM1081.82,274.34c4.91-.03,8.96-4.05,9.01-8.94.05-4.93-4.23-9.21-9.17-9.18-4.78.03-9,4.24-9.03,9.02-.04,4.99,4.14,9.13,9.19,9.1Z"/>
    <path class="cls-2" d="M1081.97,274.64c-5.13.03-9.38-4.18-9.34-9.25.04-4.86,4.32-9.14,9.19-9.18,5.02-.04,9.37,4.32,9.32,9.33-.05,4.97-4.18,9.06-9.17,9.09Z"/>
  </g>
  <g>
    <path class="cls-3" d="M541.54,372.17c-12.74,13.97-27.74,17.29-42.69,9.76-14.85-7.49-19.9-21.14-15.85-43.57-18.16-3.95-29.43-14.72-29.31-33.99.12-18.98,11.64-29.27,29.29-33.3-3.91-21.89.83-35.67,15.04-43.25,10.69-5.69,27.59-7.97,43.64,9.09,13.27-13.6,28.59-18,45.73-7.81,13.54,8.05,17.49,21.72,13.07,41.84,18.91,4.61,30.25,15.73,29.43,36.36-.61,15.31-9.6,24.8-29.17,31.32,4.03,21.87-.84,35.34-15.63,43.22-14.23,7.59-28.22,4.58-43.55-9.67ZM542.02,327.86c12.58-.08,22.99-10.4,23.12-22.94.13-12.64-10.84-23.63-23.51-23.54-12.27.09-23.07,10.88-23.16,23.14-.1,12.8,10.61,23.41,23.56,23.33Z"/>
    <path class="cls-2" d="M542.39,328.62c-13.17.08-24.06-10.71-23.96-23.73.09-12.47,11.08-23.44,23.56-23.53,12.88-.09,24.04,11.08,23.91,23.94-.13,12.75-10.71,23.25-23.51,23.33Z"/>
  </g>
  <g>
    <path class="cls-8" d="M133.55,93.45c-4.52-1.14-9.28-1.91-13.67-3.62-2.28-.89-4.44-3.12-5.72-5.3-3.85-6.52,1.18-14.55,9.06-14.79,6.3-.19,11.49,2.56,15.79,6.15-.43-4.18-1.32-8.6-1.23-13.01.15-7.31,5.24-11.94,11.76-11.38,5.44.47,9.41,5.3,9.69,12.06.09,2.13-.13,4.31-.5,6.42-.36,2.08-1.09,4.1-1.4,5.24,4.12-1.66,8.56-4.19,13.32-5.22,8.57-1.85,15.16,5.19,12.78,13.01-1.03,3.38-3.44,5.84-6.58,6.94-4.44,1.55-9.14,2.38-13.53,3.47.57.44,1.68,1.26,2.75,2.12,3.79,3.04,6.6,6.73,7.78,11.54,1.05,4.31-.34,8.42-3.88,10.89-3.66,2.54-7.51,2.55-11.31.37-4.73-2.71-7.74-7.38-10.16-15.56-.94,2.42-1.42,4.93-2.77,6.79-2.31,3.18-4.82,6.42-7.89,8.79-3.47,2.68-8.22,1.93-11.7-.94-3.53-2.91-4.05-6.78-3-10.92,1.19-4.67,4.1-8.23,7.83-11.16,1.02-.8,2.09-1.54,2.58-1.91ZM153.83,88.1c-.05-3.12-2.42-5.5-5.45-5.47-2.95.02-5.56,2.6-5.57,5.49,0,3.12,2.63,5.7,5.74,5.61,3.07-.09,5.34-2.5,5.28-5.62Z"/>
    <path class="cls-7" d="M149.06,93.4c-3.92.02-7.17-3.19-7.14-7.07.03-3.72,3.3-6.99,7.02-7.01,3.84-.03,7.16,3.3,7.12,7.13-.04,3.8-3.19,6.93-7,6.95Z"/>
  </g>
  <g>
    <path class="cls-8" d="M859.07,339.89c-12.26-3.09-25.19-5.19-37.13-9.84-6.18-2.41-12.05-8.49-15.54-14.4-10.45-17.7,3.21-39.51,24.59-40.17,17.1-.53,31.2,6.96,42.88,16.71-1.16-11.34-3.58-23.36-3.34-35.33.4-19.85,14.24-32.42,31.94-30.9,14.79,1.27,25.56,14.39,26.31,32.76.24,5.79-.36,11.71-1.35,17.43-.98,5.66-2.95,11.14-3.81,14.24,11.2-4.52,23.25-11.38,36.19-14.17,23.27-5.02,41.16,14.1,34.7,35.33-2.8,9.18-9.35,15.86-17.86,18.84-12.06,4.22-24.82,6.47-36.74,9.44,1.54,1.18,4.55,3.42,7.48,5.77,10.28,8.25,17.92,18.28,21.12,31.34,2.86,11.69-.91,22.88-10.53,29.56-9.93,6.91-20.38,6.94-30.72,1.01-12.85-7.37-21.01-20.04-27.58-42.24-2.56,6.56-3.84,13.38-7.52,18.45-6.27,8.64-13.09,17.43-21.44,23.87-9.43,7.28-22.33,5.24-31.77-2.55-9.58-7.9-11.01-18.42-8.15-29.66,3.22-12.67,11.15-22.34,21.26-30.3,2.77-2.18,5.68-4.19,7.02-5.18ZM914.16,325.36c-.14-8.47-6.57-14.93-14.8-14.86-8.01.06-15.1,7.05-15.12,14.9-.03,8.48,7.13,15.48,15.58,15.24,8.34-.24,14.49-6.78,14.35-15.27Z"/>
    <path class="cls-7" d="M901.19,339.75c-10.66.06-19.47-8.67-19.39-19.2.08-10.09,8.97-18.97,19.06-19.04,10.42-.07,19.46,8.97,19.35,19.37-.11,10.32-8.67,18.81-19.02,18.88Z"/>
  </g>
  <g>
    <path class="cls-8" d="M1194.65,145.99c-6.64-1.67-13.63-2.81-20.09-5.33-3.34-1.3-6.52-4.59-8.41-7.79-5.66-9.58,1.74-21.38,13.31-21.74,9.25-.28,16.88,3.77,23.2,9.04-.63-6.14-1.94-12.64-1.81-19.12.22-10.74,7.71-17.54,17.28-16.72,8,.68,13.83,7.79,14.23,17.72.13,3.13-.19,6.33-.73,9.43-.53,3.06-1.6,6.03-2.06,7.7,6.06-2.44,12.58-6.16,19.58-7.67,12.59-2.72,22.27,7.63,18.77,19.12-1.51,4.97-5.06,8.58-9.66,10.19-6.53,2.28-13.43,3.5-19.88,5.11.83.64,2.46,1.85,4.04,3.12,5.56,4.47,9.7,9.89,11.43,16.96,1.55,6.33-.49,12.38-5.7,16-5.37,3.74-11.03,3.75-16.62.55-6.95-3.99-11.37-10.84-14.92-22.86-1.39,3.55-2.08,7.24-4.07,9.98-3.39,4.68-7.08,9.43-11.6,12.92-5.11,3.94-12.08,2.83-17.19-1.38-5.18-4.28-5.96-9.97-4.41-16.05,1.74-6.86,6.03-12.09,11.51-16.4,1.5-1.18,3.07-2.27,3.8-2.8ZM1224.46,138.13c-.08-4.58-3.56-8.08-8.01-8.04-4.33.03-8.17,3.82-8.18,8.06-.01,4.59,3.86,8.37,8.43,8.24,4.51-.13,7.84-3.67,7.76-8.26Z"/>
    <path class="cls-7" d="M1217.44,145.91c-5.77.03-10.53-4.69-10.49-10.39.04-5.46,4.85-10.27,10.32-10.3,5.64-.04,10.53,4.85,10.47,10.48-.06,5.58-4.69,10.18-10.29,10.21Z"/>
  </g>
  <g>
    <path class="cls-8" d="M389.1,428.41c-4.52-1.14-9.28-1.91-13.67-3.62-2.28-.89-4.44-3.12-5.72-5.3-3.85-6.52,1.18-14.55,9.06-14.79,6.3-.19,11.49,2.56,15.79,6.15-.43-4.18-1.32-8.6-1.23-13.01.15-7.31,5.24-11.94,11.76-11.38,5.44.47,9.41,5.3,9.69,12.06.09,2.13-.13,4.31-.5,6.42-.36,2.08-1.09,4.1-1.4,5.24,4.12-1.66,8.56-4.19,13.32-5.22,8.57-1.85,15.16,5.19,12.78,13.01-1.03,3.38-3.44,5.84-6.58,6.94-4.44,1.55-9.14,2.38-13.53,3.47.57.44,1.68,1.26,2.75,2.12,3.79,3.04,6.6,6.73,7.78,11.54,1.05,4.31-.34,8.42-3.88,10.89-3.66,2.54-7.51,2.55-11.31.37-4.73-2.71-7.74-7.38-10.16-15.56-.94,2.42-1.42,4.93-2.77,6.79-2.31,3.18-4.82,6.42-7.89,8.79-3.47,2.68-8.22,1.93-11.7-.94-3.53-2.91-4.05-6.78-3-10.92,1.19-4.67,4.1-8.23,7.83-11.16,1.02-.8,2.09-1.54,2.58-1.91ZM409.39,423.06c-.05-3.12-2.42-5.5-5.45-5.47-2.95.02-5.56,2.6-5.57,5.49,0,3.12,2.63,5.7,5.74,5.61,3.07-.09,5.34-2.5,5.28-5.62Z"/>
    <path class="cls-7" d="M404.61,428.36c-3.92.02-7.17-3.19-7.14-7.07.03-3.72,3.3-6.99,7.02-7.01,3.84-.03,7.16,3.3,7.12,7.13-.04,3.8-3.19,6.93-7,6.95Z"/>
  </g>
</svg>