<?xml version="1.0" encoding="UTF-8"?>
<svg id="Capa_1" data-name="Capa 1" xmlns="http://www.w3.org/2000/svg" viewBox="0 0 841.89 595.28">
  <defs>
    <style>
      .cls-1 {
        fill: #7c7c7c;
      }

      .cls-1, .cls-2, .cls-3, .cls-4, .cls-5, .cls-6, .cls-7, .cls-8, .cls-9 {
        stroke-width: 0px;
      }

      .cls-2 {
        fill: #909090;
      }

      .cls-3 {
        fill: #aeaeae;
      }

      .cls-4 {
        fill: #adaead;
      }

      .cls-5 {
        fill: #fff;
      }

      .cls-6 {
        fill: #080508;
      }

      .cls-7 {
        fill: #c9c9c9;
      }

      .cls-8 {
        fill: #080609;
      }

      .cls-9 {
        fill: #adadad;
      }
    </style>
  </defs>
  <path class="cls-6" d="M272.84,103.76h7.07c11.35,2.73,21.44,8.32,31.45,14.02,21.62,12.32,40.49,27.89,55.53,47.85,1.75,2.32,3.57,2.81,6.37,2.18,10.46-2.35,21.01-3.92,31.78-4.37,14.01-.59,27.69,1.21,41.25,4.29,3.07.7,5.01.2,6.95-2.37,15.2-20.16,34.39-35.69,56.22-48.13,7.48-4.27,15.18-8.06,23.15-11.32,2.41-.98,4.92-1.46,7.39-2.16h7.07c6.04.84,9.4,4.63,11.53,10.05,8.3,21.17,13.73,43.02,16.43,65.61,1.86,15.5,1.55,31.04,1.18,46.56-.23,9.74-1.4,19.5-3.62,29.05-.8,3.45-.13,6.03,2.2,8.69,4.97,5.66,9.62,11.6,14.44,17.4,1.35,1.62,1.97,3.39,2.03,5.49.63,23.02-1.91,45.58-9.54,67.44-12.27,35.17-34.31,62.47-65.96,81.99-26,16.03-54.45,25.36-84.61,28.92-27.44,3.24-54.45.09-80.87-8.31-22.44-7.13-43.39-17.01-61.93-31.66-18.3-14.46-32.68-32.08-42.8-53.19-8.28-17.28-13.46-35.39-15.63-54.39-.49-4.29-.2-8.65-.9-12.93v-19.79c.71-2.57,2.36-4.54,4.02-6.53,4.38-5.23,8.75-10.47,13.06-15.75,1.48-1.82,1.94-3.61,1.45-5.86-4.54-20.98-4.99-42.29-3.87-63.54,1.43-27.3,7.42-53.76,17.63-79.2,2.14-5.32,5.41-9.3,11.53-10.05Z"/>
  <path class="cls-7" d="M537.26,231.37c-3.5,4.73-3.29,7.18.82,12.13,12.31,14.79,24.56,29.63,36.9,44.4,1.29,1.55,1.86,3.05,1.73,5.06-.52,8.31-.79,16.64-2.21,24.87-1.48.73-2.74-.11-4.03-.59-7.61-2.83-15.2-5.67-22.85-8.39-1.11-.39-2.21-.85-3.39-.95-2.81-.24-4.19,1.71-3.04,4.26.39.86.96,1.62,1.55,2.35,7.62,9.57,15.01,19.31,22.49,28.99,1.09,1.41,2.33,2.71,1.88,4.71-2.99,6.85-6.45,13.43-11.03,19.38-.78,1.01-1.41,2.17-2.77,2.55-2.85.28-5.11-1.41-7.62-2.27-3.86-1.32-7.65-2.87-11.54-4.12-2.92-1.89-6.15-2.83-9.56-3.45-5.1-.93-10.13-2.16-15.21-3.22-.92-.19-1.83-.44-2.77-.54-4.26-.49-6.93,1.05-7.69,4.43-.74,3.31,1.45,6.46,5.42,7.44,6.29,1.55,12.65,2.77,18.99,4.13,1.5.32,3.02.53,4.42,1.21,4.01,3.49,6.79,8.01,9.99,12.17.5.65.62,1.51.31,2.35-4.72,6.02-10.98,10.29-17.1,14.62-27.76,19.65-59.11,29.57-92.5,34.17-23.85,3.29-46.94-.44-69.79-6.61-24.35-6.57-46.91-16.96-66.7-32.85-3.56-2.86-7.4-5.46-10.09-9.28-.39-.97-.17-1.93.43-2.66,3.23-3.99,5.83-8.5,9.81-11.88,7.32-2.23,14.92-3.26,22.34-5.08,1.86-.46,3.62-.99,4.96-2.47,1.56-1.7,2.19-3.6,1.34-5.83-.87-2.27-2.4-3.73-4.93-3.93-1.3-.1-2.59,0-3.86.28-6.54,1.47-13.08,2.94-19.68,4.17-2,.37-3.79,1.24-5.54,2.21-6.45,2.36-12.73,5.2-19.35,7.1-1.77-.03-2.59-1.36-3.51-2.57-4.55-5.97-8.08-12.52-11.04-19.39-.51-2,.73-3.31,1.8-4.72,7.11-9.38,14.48-18.56,21.58-27.95.57-.75,1.14-1.5,1.68-2.27.9-1.26,1.92-2.56.85-4.16-1.13-1.69-2.81-1.51-4.45-.96-7.92,2.68-15.75,5.59-23.54,8.62-1.7.66-3.38,1.79-5.38,1.02-1.37-7.77-1.58-15.65-2.21-23.5-.24-3.02.66-5.31,2.59-7.6,12.1-14.4,24.09-28.88,36.11-43.34,4.36-5.24,4.54-7.77.89-12.36-.01-1,.46-1.82,1.06-2.53,6.48-7.72,13.69-14.67,21.59-20.93.75-.59,1.58-1,2.59-.77,3.61,3.78,7.49,2.92,11.44.65.73.12,1.32.5,1.82,1.01,6.7,6.77,13.69,13.25,20.06,20.35.87.96,1.66,1.99,2.76,2.7,1.43.93,2.95,1.69,4.57.54,1.6-1.13,1.57-2.79,1.05-4.46-2.12-6.85-4.03-13.77-6.13-20.63-.86-2.81-1.6-5.66-2.54-8.45-.42-1.24-.69-2.53.33-3.67,6.55-3.37,13.33-6.18,20.51-7.91,2.24,1.96,2.83,4.84,3.94,7.37,6.12,13.88,12.22,27.77,18.3,41.67.33.75.64,1.52,1.1,2.21.83,1.25,1.89,2.19,3.5,1.87,1.63-.32,2.15-1.64,2.43-3.1.86-4.52,1.03-9.12,1.33-13.68.85-12.9,2.3-25.74,3.05-38.65.11-1.88.27-3.78,1.73-5.23,8.47-1.23,16.93-1.28,25.4,0,1.26,1.08,1.61,2.55,1.71,4.12.94,15.84,2.63,31.62,3.66,47.45.13,2,.53,3.96.75,5.95.17,1.48.75,2.82,2.37,3.14,1.77.35,2.94-.7,3.69-2.13,1.35-2.61,2.49-5.33,3.66-8.03,5.77-13.27,11.57-26.53,17.48-39.74.58-1.29.77-3.08,2.82-3.1,6.88,1.85,13.44,4.51,19.79,7.73,1.21,1.73.29,3.43-.19,5.07-2.56,8.8-5.12,17.61-7.77,26.38-.24.79-.53,1.56-.64,2.38-.19,1.37.11,2.6,1.29,3.43,1.21.85,2.46.6,3.67-.03,1.49-.77,2.66-1.9,3.74-3.17,6.11-7.18,13.15-13.43,19.7-20.18.58-.59,1.22-1.11,2.08-1.24,3.96,2.26,7.84,3.12,11.45-.68,1.2-.59,2,.19,2.82.85,7.62,6.11,14.64,12.83,20.92,20.31.82.98,1.7,1.98,1.61,3.41Z"/>
  <path class="cls-3" d="M282.03,387.86c8.88,7.85,18.14,15.18,28.35,21.28,15.64,9.34,32.36,16.01,49.91,20.69,17.14,4.57,34.5,7.87,52.31,7.43,17.04-.42,33.69-3.64,50.09-8.22,12.48-3.49,24.55-8.03,36.09-13.9,13.87-7.05,26.67-15.7,37.96-26.48.33-.32.76-.54,1.15-.81,2.82.82,4.53,2.48,4.23,5.64-15.62,18.88-35.42,32.01-57.75,41.47-22.87,9.69-46.84,14.91-71.59,16.32-10.11.57-20.17-1.03-30.12-2.74-22.18-3.81-43.43-10.51-63.22-21.37-15.88-8.72-30.1-19.56-41.64-33.68-.3-3.16,1.41-4.82,4.23-5.64Z"/>
  <path class="cls-5" d="M308,206.82c-9,6.62-16.83,14.47-24.03,22.98-.37.44-.81.83-1.22,1.25-1.7-.96-3.46-1.66-5.46-1.57-1.45-1.06-1.33-2.66-1.36-4.17-.36-22.44-.08-44.83,4.26-66.98,1.02-5.19,2.27-10.32,3.6-15.43.38-1.46.73-3.01,2.36-3.71,14.37,13.77,25.93,29.65,35.52,47.04.89,1.62.61,2.38-.97,3.29-3.35,1.93-6.61,4.04-9.83,6.19-4.59,3.07-5.34,6.14-2.88,11.11Z"/>
  <path class="cls-5" d="M537.26,231.37c-7.56-9.11-15.74-17.58-25.36-24.57,2.45-4.95,1.7-8.06-2.85-11.12-3.2-2.16-6.46-4.24-9.8-6.19-1.52-.89-1.94-1.61-1.02-3.27,9.55-17.37,21.13-33.19,35.48-46.92,1.72.61,2.02,2.2,2.42,3.64,3.19,11.48,5,23.21,6.43,35.01,1.87,15.46,1.43,30.99,1.41,46.5,0,1.8.46,3.83-1.43,5.14-1.88.22-3.65.79-5.28,1.77Z"/>
  <path class="cls-7" d="M542.54,229.6c1.22-29.09.11-57.98-7.5-86.3-.36-1.35-.88-2.66-1.32-3.99,4.05-4.4,8.48-8.39,13.49-12.36,13.52,38.56,17.22,77.71,11.68,117.77-1.22.54-1.55-.45-2.03-1.01-2.59-3.05-5.22-6.07-7.68-9.22-1.78-2.29-3.73-4.2-6.64-4.89Z"/>
  <path class="cls-7" d="M286.16,139.18c-3.45,10.39-5.32,21.13-6.84,31.91-2.72,19.38-2.63,38.87-2.02,58.38-2.52.61-4.32,2.2-5.91,4.18-3.13,3.91-6.38,7.72-10.13,12.26-.66-5.23-1.38-9.58-1.74-13.96-2.86-34.82.93-68.86,12.09-102.03.95-2.81,1.74-2.78,3.78-.89,3.62,3.35,7.42,6.5,10.76,10.15Z"/>
  <path class="cls-2" d="M458.79,187.09c-3.71,6.4-6.14,13.4-9.18,20.11-4.64,10.26-9.07,20.61-13.55,30.94-.99,2.29-2.54,3.84-5.12,3.33-2.58-.52-3.18-2.53-3.39-5.03-1.28-15.75-2.74-31.48-4.06-47.22-.27-3.26.02-6.58-.83-9.8,11.34.85,22.34,3.43,33.22,6.58.99.29,1.94.72,2.91,1.09Z"/>
  <path class="cls-2" d="M397.26,179.43c-1.44,14.58-2.68,29.17-3.62,43.79-.29,4.56-1,9.08-1.29,13.64-.15,2.45-1.06,4.18-3.45,4.62-2.4.44-3.98-.9-4.92-3.1-3.12-7.22-6.26-14.44-9.43-21.64-3.83-8.71-7.71-17.39-11.52-26.11-.51-1.17-.77-2.45-1.15-3.67,11.45-4.14,23.3-6.39,35.38-7.53Z"/>
  <path class="cls-1" d="M293.85,126.05c23.49,11.6,44.04,26.83,60.16,47.84-5.92,2.43-11.57,4.65-17.13,7.09-2.05.9-2.15-.68-2.7-1.67-6.86-12.51-14.8-24.28-23.91-35.26-5.19-6.25-10.8-12.12-16.43-18Z"/>
  <path class="cls-1" d="M525.37,126.55c-6.47,6.94-12.92,13.89-18.84,21.34-7.76,9.78-14.64,20.12-20.55,31.1-1.11,2.06-1.92,2.56-4.21,1.49-5.08-2.37-10.36-4.32-15.89-6.58,15.88-20.74,36.14-35.89,59.48-47.35Z"/>
  <path class="cls-2" d="M245.38,317.84c9.56-3.53,19.14-7.03,28.68-10.62,2.23-.84,4.18-.84,5.65,1.18,1.46,2.01.42,3.68-.9,5.37-8.14,10.43-16.23,20.9-24.32,31.37-.71.92-1.48,1.85-1.43,3.13.34.35.29.65-.13.88-3.84-10.12-6.01-20.64-7.55-31.32Z"/>
  <path class="cls-2" d="M566.84,348.27c-1.88-5.05-5.92-8.6-9.02-12.8-5.28-7.16-10.91-14.05-16.34-21.1-1.34-1.74-3.02-3.56-1.29-5.97,1.73-2.42,4.01-1.86,6.32-1,9.33,3.48,18.66,6.94,28,10.4-1.55,10.68-3.69,21.21-7.54,31.33-.42-.24-.46-.53-.13-.88Z"/>
  <path class="cls-2" d="M500.46,207.47c-2.91,4.16-6.95,7.25-10.36,10.93-3.67,3.95-7.81,7.44-11.19,11.67-.72.9-1.71,1.6-2.59,2.36-1.76,1.52-3.77,2.15-5.75.7-1.9-1.39-2.09-3.3-1.37-5.64,3.09-10.05,5.98-20.17,8.93-30.27.23-.78.31-1.6.46-2.4,7.72,3.47,15.21,7.36,21.88,12.65Z"/>
  <path class="cls-2" d="M341.36,194.87c1.52,8.09,4.56,15.76,6.63,23.69.83,3.18,1.79,6.33,2.87,9.43.79,2.28.09,4.05-1.68,5.25-1.7,1.15-3.49.74-5.21-.51-2.99-2.18-5.04-5.25-7.59-7.84-5.69-5.76-11.85-11.08-16.93-17.43,6.7-5.26,14.15-9.19,21.91-12.59Z"/>
  <path class="cls-2" d="M542.12,393.5c-.76-2.36-2.61-3.91-4.23-5.64-3.31-4.44-6.63-8.88-9.94-13.32.42-.8,1.27-.93,1.98-1.27,4.04-1.94,4.94-3.68,4.26-8.21-.1-.68-.28-1.37.23-1.97,5.49,1.07,10.45,3.68,15.7,5.45,1.09.37,2.19.68,3.29,1.01,1.46.2,3.09-.14,4.15,1.32-4.26,8.15-9.38,15.71-15.44,22.63Z"/>
  <path class="cls-2" d="M282.03,387.86c-1.63,1.72-3.47,3.27-4.23,5.64-6.06-6.92-11.18-14.48-15.44-22.63,1.28-1.66,3.29-.69,4.84-1.36,6.35-2.37,12.7-4.74,19.04-7.11.44.69.09,1.34-.11,2-1.54,5.02-.69,6.87,4.15,9,.63.28,1.33.46,1.68,1.15-3.31,4.44-6.62,8.88-9.94,13.32Z"/>
  <path class="cls-9" d="M267.2,369.51c-1.44,1.07-3.07,1.46-4.84,1.36-3.89-6.91-7.16-14.09-9.42-21.71.04-.29.09-.59.13-.88,3.91,6.18,6.9,12.91,11.46,18.69.76.96,1.12,2.39,2.67,2.55Z"/>
  <path class="cls-4" d="M557.56,370.87c-1.52,0-2.91-.43-4.15-1.32,5.46-6.47,9.05-14.12,13.43-21.28.04.29.09.58.13.88-2.26,7.62-5.53,14.8-9.41,21.72Z"/>
  <path class="cls-6" d="M475.19,324.96c-25.88.03-45.13-10.87-56.55-34.51-.79-1.63-1.64-2.24-3.41-2.19-3.88.12-8-.76-11.6.26-3.9,1.11-4.11,6.03-6.14,9.15-11.53,17.77-28.01,26.46-48.93,27.29-8.73.34-17.41-.12-25.73-3.07-14.17-5.03-23.61-15.13-29.24-28.74-6.44-15.58-8.38-31.92-6.73-48.68.51-5.17,3.92-7.54,9.04-6.67,34.1,5.76,68.19,11.6,102.32,17.21,10.28,1.69,20.56.82,30.82-1.01,21.35-3.81,42.75-7.37,64.13-11.02,10.4-1.78,20.81-3.52,31.21-5.28,4.08-.69,8.13,1.57,8.48,5.42,1.94,21.51-.26,42.31-12.54,60.81-9.36,14.1-23.32,20.16-39.84,21.01-1.76.09-3.53.01-5.3.01Z"/>
  <path class="cls-6" d="M410.14,309.43c6.29.22,12.67.21,18.81,2.09,11.99,3.66,15.35,14.95,7.31,24.53-4.53,5.4-10.48,9.01-16.41,12.61-3.66,2.22-3.9,3.67-.75,6.66,11.97,11.36,25.89,14.47,41.62,9.65,1.34-.41,2.65-.93,3.99-1.36,3.92-1.24,7.41.29,8.98,3.92,1.52,3.53.15,7.46-3.64,9.08-8.87,3.79-18.13,5.53-27.82,4.57-11.59-1.14-21.68-5.75-30.41-13.34-1.57-1.36-2.35-.97-3.72.2-10.49,8.95-22.61,13.66-36.46,13.38-7.2-.14-14.19-1.72-20.87-4.43-4.29-1.74-6.15-5.47-4.76-9.25,1.47-4,5.31-5.65,9.81-3.97,15.36,5.73,29.67,4.46,42.65-6.14,1.09-.89,2.13-1.86,3.1-2.88,2.21-2.33,1.94-4.22-.78-5.83-5.98-3.54-11.84-7.23-16.56-12.44-8.46-9.34-5.34-21.13,6.68-24.9,6.24-1.96,12.73-1.95,19.24-2.16Z"/>
  <path class="cls-8" d="M534.42,363.09c2.54,6.61.15,10.84-6.47,11.46-8.12-1.72-16.25-3.38-24.35-5.17-4.12-.91-6.6-4.5-5.96-8.27.65-3.87,3.95-6.47,8.3-5.68,8.27,1.49,16.46,3.42,24.67,5.22,1.53.33,2.61,1.52,3.81,2.45Z"/>
  <path class="cls-8" d="M291.96,374.54c-7.23-.67-9.69-5.89-5.72-12.14,3.91-3.01,8.82-2.82,13.28-4.05,4.16-1.15,8.45-1.84,12.68-2.76,5.1-1.1,9.02.91,10.02,5.16.97,4.16-1.73,7.64-6.93,8.78-7.77,1.7-15.54,3.34-23.32,5.01Z"/>
  <path class="cls-8" d="M312.75,342.62c-7.51-1.14-15.86-2.27-24.15-3.75-3.67-.65-5.66-4.21-5.16-8.06.43-3.3,3.32-6.18,6.83-5.76,8.7,1.03,17.39,2.31,26.01,3.89,3.64.67,5.47,4.28,4.84,7.85-.66,3.77-3.39,5.89-8.37,5.83Z"/>
  <path class="cls-8" d="M507.41,342.62c-5.4.04-8.51-2.66-8.78-6.6-.25-3.74,2.4-6.87,6.42-7.51,7.39-1.17,14.79-2.32,22.19-3.45,4.74-.72,8.54,1.56,9.22,5.47.79,4.59-1.77,7.78-6.97,8.6-7.74,1.23-15.48,2.44-22.09,3.48Z"/>
</svg>