<?xml version="1.0" encoding="UTF-8"?>
<svg id="Capa_1" data-name="Capa 1" xmlns="http://www.w3.org/2000/svg" viewBox="0 0 841.89 595.28">
  <defs>
    <style>
      .cls-1 {
        fill: #a7561b;
      }

      .cls-1, .cls-2, .cls-3, .cls-4, .cls-5, .cls-6, .cls-7, .cls-8, .cls-9 {
        stroke-width: 0px;
      }

      .cls-2 {
        fill: #ce6d33;
      }

      .cls-3 {
        fill: #a7571b;
      }

      .cls-4 {
        fill: #a8571b;
      }

      .cls-5 {
        fill: #da965b;
      }

      .cls-6 {
        fill: #333;
      }

      .cls-7 {
        fill: #fff;
      }

      .cls-8 {
        fill: #db975d;
      }

      .cls-9 {
        fill: #1b1a1a;
      }
    </style>
  </defs>
  <path class="cls-1" d="M440.19,445.99c-28.79-.24-57.93-3.29-86.04-13-16.78-5.8-32.47-13.66-45.1-26.45-20.97-21.24-25.18-46.3-16.03-74.14,3.25-9.88,8.11-18.96,14.27-27.32,1.27-1.72,1.6-3.08.77-5.18-3.84-9.63-4.53-19.88-5.14-30.06-.8-13.38-1.03-26.79-.26-40.2.28-4.79,1.39-6.38,6.17-6.84,23.9-2.3,46.29,2.2,66.65,15.34,3.72,2.4,7.35,4.93,10.9,7.58,1.41,1.05,2.56,1.4,4.32.85,33.47-10.48,67-10.53,100.51-.26,2.1.64,3.5.48,5.22-.86,13.63-10.56,28.59-18.3,45.75-21.39,10.69-1.92,21.41-2.48,32.21-1.18,3.3.4,5.16,2.18,5.3,5.54.82,19.66.81,39.29-2.06,58.83-.64,4.38-1.52,8.73-3.29,12.81-.81,1.86-.56,3.24.66,4.9,8.82,12.06,15.02,25.3,17.62,40.11,4.72,26.81-3.98,48.75-24.41,66.19-15.42,13.17-33.78,20.57-53.1,25.8-24.27,6.57-49.09,8.81-74.92,8.94Z"/>
  <path class="cls-7" d="M581.55,369.68c-.81,6.65-3.53,12.6-7.05,18.17-8.16,12.9-20.07,21.41-33.49,28.03-18.28,9.01-37.83,13.69-57.9,16.41-20.99,2.84-42.07,3.52-63.19,2.04-29.26-2.05-57.84-7-83.95-21.33-13.47-7.39-24.85-17.1-31.47-31.42-1.75-3.78-3.38-7.65-3.66-11.91,2.77-4.24,7.22-6.46,11.28-9.02,18.1-11.4,38.13-17.89,58.82-22.59,3.21-.73,6.44-1.33,9.66-1.99,7.6-.51,15.2-.14,22.79-.22,2.08-.02,3.82-.4,4.74-2.49.8-.88,1.85-1.39,3-1.42,4.97-.09,9.88-1.34,14.88-.72,4.34,1.57,7.59,4.52,10.3,8.16.93,4-.12,7.23-3.3,10.02-3.32,2.91-6.3,6.21-9.43,9.34-.72.72-1.47,1.42-2.07,2.25-1.62,2.26-1.55,4.87.27,6.47,2.03,1.77,4.15,1.5,6.21,0,.83-.6,1.52-1.36,2.25-2.08,2.57-2.56,5.11-5.16,7.71-7.69,2.92-2.85,3.56-2.87,6.41-.09,2.76,2.69,5.46,5.45,8.2,8.17.72.72,1.42,1.48,2.3,2.01,2.08,1.26,4.16,1.3,5.91-.49,1.74-1.78,1.69-3.86.4-5.92-.61-.97-1.45-1.74-2.26-2.54-3.29-3.29-6.46-6.71-9.9-9.83-2.73-2.48-3.75-5.28-2.95-8.82,2.53-4.04,5.92-7.09,10.35-8.94,5.94-.24,11.83.11,17.65,1.34.94,2.62,2.81,3.34,5.54,3.32,7.37-.05,14.76-.34,22.12.15,13.06,2.53,25.94,5.72,38.47,10.26,13.31,4.82,26.05,10.73,37.39,19.34,1.49,1.13,3.34,2.02,3.97,4.04Z"/>
  <path class="cls-9" d="M502.68,336.96c-8.27-.03-16.56-.3-24.82,0-3.36.12-4.41-.9-4.05-3.97-.25-.51-.56-.98-.69-1.55q-.99-4.38-5.6-4.47c-4.89-.1-5.55-.66-5.48-5.53.04-2.92-.01-5.39-3.76-5.95-1.39-.2-1.53-1.8-1.67-3.06-.22-1.92.18-3.85-.19-5.76-.75-1.74-2.34-1.47-3.76-1.52q-7.01-.25-7-7.28c0-.45,0-.9.02-1.34,0-.9.06-1.92-1.11-2.14-2.21-.43-4.45-.42-6.67,0-1.16.21-1.15,1.21-1.15,2.13q.07,7.85-8,8.65c-1.14.11-2.26.22-2.74,1.5-.38,1.35-.13,2.72-.12,4.06.02,2.69-.29,5.04-3.67,5.42-1.22.14-1.65,1.06-1.74,2.18-.04.45-.04.9-.06,1.36-.26,7.03-.26,7.1-7.14,7.26-2.43.05-3.94.68-3.82,3.43.04,1.01-.1,2.05-.88,2.84.52,3.21-1.04,3.77-3.95,3.71-8.27-.16-16.54,0-24.82.04-10.72,1.52-21.5.9-32.26.95-4.91.03-5.52-.73-5.51-5.86.2-2.8.08-5.34-3.7-5.6-.94-.06-1.37-1.03-1.59-1.94-.26-1.23-.25-2.48-.19-3.72.13-2.53.04-4.77-3.32-5.12-1.44-.15-1.9-1.46-2.03-2.78-.17-1.69-.15-3.39-.08-5.08.07-2.39-1.5-2.63-3.37-2.74-2.2-.12-4.56.63-6.53-1,0-2.13.06-4.27-.04-6.4-.13-2.74-.26-5.32,3.82-4.51,1.36.27,1.68-.68,1.65-1.86-.06-2.58-.08-5.16-.11-7.74-.45-1.58.71-1.82,1.78-2.12,5.62-.39,11.25-.19,16.89-.17,20.73-.09,41.45-.18,62.17.03.45-.01.89,0,1.34,0,21.6-.16,43.21-.18,64.81,0,.45,0,.89,0,1.34,0,20.73-.18,41.47-.16,62.2-.02,5.59-.03,11.19-.21,16.78.13,1.06.24,2.22.39,1.99,1.95-.04,1.7-.02,3.39-.13,5.09-.17,2.84-.43,5.63,3.94,4.8,1.49-.28,1.53.93,1.53,2-.01,2.94-.01,5.88-.02,8.83-1.97,1.64-4.33.86-6.52.99-1.85.11-3.45.32-3.39,2.72.07,1.58.05,3.16-.04,4.74-.1,1.76-.77,3.13-2.68,3.34-2.43.28-2.77,1.84-2.71,3.84.04,1.57.11,3.16-.16,4.73-.21,1.05-.75,2.05-1.83,2.1-3.82.18-3.53,2.85-3.48,5.43,0,5.29-.57,5.98-5.77,5.95-10.64-.07-21.31.57-31.91-.97Z"/>
  <path class="cls-8" d="M407.79,282.21c-20.83,0-41.67,0-62.5.01-.05-.1-.17-.27-.14-.3,3.74-4.05,2.17-7.66-.7-11.4-2.42-3.14-4.61-6.49-6.59-9.92-1.97-3.43-4.54-5.22-8.54-4.69-4.52-5.67-8.19-11.96-12.92-17.48-.8-.94-1.45-2.02-2.38-2.61.51,1.53,1.2,3.11-.87,4.24-.67-6.86-.67-6.77,5.88-6.9,24.26-.5,45.17,8.01,63.49,23.52,2.01,1.71,4.13,2.75,6.81,1.89.99.23,1.44,1.01,1.88,1.81,3.74,6.77,8.45,12.78,14.12,18.05,1.09,1.01,2.66,1.86,2.45,3.78Z"/>
  <path class="cls-8" d="M537.13,282.22c-20.83,0-41.67-.01-62.5-.02-.3-1.25.63-1.85,1.4-2.47,5.81-4.68,10.17-10.59,13.93-16.91,1.57-2.64,3.21-4.52,6.49-4.26,2.56-.41,3.93-2.56,5.79-3.99,13.29-10.22,27.81-17.67,44.59-20.31,6.75-1.06,13.51-1.11,20.3-1.07,1.82,0,2.41.8,2.31,2.47-.1,1.69-.13,3.39-.19,5.08-2.11-.69-.89-2.69-1.68-4.21-5.53,6.02-9.47,13.11-14.49,19.37-4-.54-6.54,1.27-8.54,4.69-2.29,3.91-4.97,7.6-7.49,11.38-2.98,4.49-2.97,4.8.05,9.32.2.3.23.61.02.93Z"/>
  <path class="cls-8" d="M473.92,282.21c-21.82,0-43.63,0-65.45,0-1.03-2.35-.11-4.65.2-6.95.85-6.47,1.99-12.91,2.92-19.37.2-1.38.52-2.65,1.63-3.58,6.67-1.81,13.56-2.15,20.38-2.58,11.63-.74,23.21.38,34.72,2.06.31.04.58.32.87.48.84.8,1.35,1.76,1.52,2.94,1.11,7.81,2.5,15.57,3.5,23.4.15,1.2.5,2.46-.29,3.61Z"/>
  <path class="cls-2" d="M539.49,331.44c-.04-1.02,0-2.05-.13-3.05-.26-1.95.52-2.59,2.46-2.49,1.13.06,2.9.87,3.13-1.38,1.25-1.08,2.76-.93,4.2-.7,8.71,1.41,17.25,3.47,25.56,6.45,1.09.39,2.02.98,2.81,1.82,3.45,7.6,5.25,15.58,5.41,23.92-.96.74-1.98.32-2.93.06-14.5-3.91-27.38-10.73-38.17-21.32-.99-.97-1.81-2.03-2.35-3.3Z"/>
  <path class="cls-2" d="M337.45,324.52c.04,1.47,1.07,1.62,2.12,1.41,3.38-.69,3.8,1.19,3.46,3.82-.07.56-.08,1.13-.12,1.69-3.3,5.54-8.5,9.11-13.65,12.55-7.95,5.31-16.52,9.48-25.88,11.81-1.27.32-2.57,1.06-3.92.19.19-8.34,1.87-16.34,5.41-23.92.86-.95,1.92-1.53,3.13-1.93,8.27-2.69,16.63-4.99,25.25-6.25,1.45-.21,2.93-.47,4.19.62Z"/>
  <path class="cls-7" d="M313.15,240.07c.22-1.73.44-3.46.76-5.93,5.94,7.19,11.38,13.89,15.5,21.58-2.56,3.68-1.99,7.04.79,10.41,1.64,1.98,2.83,4.34,4.37,6.42,1.63,2.2,1.71,3.91-.72,5.67-1.9,1.38-3.54,3.13-5.8,4.01-.91,0-1.57.28-1.5,1.37-3.04,2.87-6.08,5.75-9.58,9.05-3.94-17.57-3.7-35.09-3.83-52.57Z"/>
  <path class="cls-7" d="M552.99,255.72c4.14-7.67,9.52-14.41,15.51-21.53.31,2.65.53,4.6.76,6.56-.07,15.37-.08,30.74-2.61,45.97-.31,1.86-.79,3.69-1.26,5.88-3.51-3.17-6.05-6.69-9.52-9.21.01-.91-.55-1.18-1.34-1.18-.21-.08-.43-.15-.62-.26-8.33-4.56-8.59-5.58-3.44-13.31.56-.84,1.04-1.77,1.7-2.52,2.89-3.28,3.39-6.71.83-10.4Z"/>
  <path class="cls-8" d="M539.49,331.44c7.97,8.05,16.99,14.57,27.39,19.18,5.19,2.3,10.6,3.91,16.06,5.38.04,4.61.53,9.27-1.39,13.69-22.92-18.17-49.81-26.76-77.97-32.29-.32-.06-.61-.28-.91-.43,10.29-.03,20.57-.08,30.85-.1q5.68-.01,5.96-5.42Z"/>
  <path class="cls-8" d="M299.47,355.99c11.95-2.81,22.86-7.86,32.79-15.08,3.87-2.82,7.07-6.35,10.66-9.47q.28,5.42,5.99,5.42c10.31.03,20.61.07,30.92.11-12.82,2.85-25.59,5.83-37.95,10.39-14.34,5.29-27.99,11.82-39.86,21.64-.34.28-.77.45-1.16.67-1.9-4.41-1.41-9.07-1.38-13.68Z"/>
  <path class="cls-8" d="M337.45,324.52c-10.7.68-20.82,3.91-30.95,7.1-.54.17-1.08.3-1.62.45,3.51-9.09,7.9-17.64,14.93-24.6,4.07-1.41,8.14-1.72,12.19.07.04,1.12.23,2.26.08,3.36-.39,2.93.19,4.82,3.75,4.15,1.29-.24,1.8.41,1.75,1.71-.1,2.58-.09,5.16-.13,7.75Z"/>
  <path class="cls-8" d="M577.53,332.07c-8.92-2.9-17.88-5.61-27.16-7.15-1.82-.3-3.61-.19-5.41-.41-.04-1.46-.08-2.92-.12-4.37-.09-2.87-.77-6.17,4.1-5.13,1.29.27,1.35-.77,1.35-1.73.01-1.91.07-3.81.11-5.72,4.28-1.77,8.55-1.56,12.83.01,6.06,7.41,11.07,15.44,14.29,24.51Z"/>
  <path class="cls-2" d="M473.92,282.21c-1.36-8.65-2.72-17.3-4.08-25.95-.21-1.33-.43-2.66-.64-3.99,7.15.55,13.9,2.83,20.65,5.01,2.18.7,4.31,1.31,6.6,1.29-2.85.25-4.31,2.09-5.63,4.43-4.19,7.4-9.66,13.77-16.19,19.21-.24,0-.47,0-.71,0Z"/>
  <path class="cls-2" d="M413.22,252.3c-1.35,8.64-2.7,17.29-4.06,25.93-.21,1.33-.46,2.65-.68,3.97-.23,0-.46,0-.69,0-5.49-5.83-11.52-11.2-15.45-18.34-.98-1.78-2.01-3.54-3.01-5.3,7.73-2.97,15.62-5.37,23.89-6.26Z"/>
  <path class="cls-2" d="M563.23,307.56c-4.28,0-8.55,0-12.83-.01-.6-2.53.07-3.75,2.99-3.47,2.57.25,5.19.03,7.79.02.68,1.16,1.37,2.31,2.05,3.47Z"/>
  <path class="cls-2" d="M332,307.55c-4.06-.02-8.13-.05-12.19-.07.53-1.1,1.36-2.08,1.41-3.39,2.6.01,5.22.24,7.79-.01,2.92-.28,3.59.94,2.99,3.47Z"/>
  <path class="cls-8" d="M408.58,333.22c-.33-7.27-.32-7.48,6.93-7.18,3.41.14,4.42-.96,3.9-4.11-.14-.88.07-1.81-.04-2.7-.35-2.83.02-4.92,3.71-4.21,1.62.31,1.8-.75,1.78-2.04-.04-2.26.03-4.51.05-6.77.94-.23,1.46.47,2.02.97,1.84,1.62,3.87,1.75,5.97.73,5.55-2.69,11.05-2.69,16.6,0,2.11,1.02,4.14.89,5.97-.73.57-.5,1.09-1.2,2.02-.97.02,1.47.13,2.95.05,4.41-.16,2.77-.25,5.34,3.85,4.44,1.41-.31,1.66.64,1.64,1.83-.05,2.38.06,4.76-.04,7.13-.06,1.47.45,2.02,1.94,1.94,1.92-.1,3.87.17,5.76-.07,2.78-.35,3.61.79,3.25,3.37-.17,1.22-.1,2.48-.14,3.72-6.08-.35-12.15-.71-18.23-1.06,1.28-7.5.8-7.75-6.83-10.1-6.5-2-12.58-.64-18.69,1.08-3.73,1.05-4.83,3.69-3.48,7.37.2.53.45,1.04.27,1.63-6.09.44-12.18.87-18.27,1.31Z"/>
  <path class="cls-6" d="M446.54,340.26c-.59,3.98,1.17,6.76,4.1,9.33,3.58,3.13,6.83,6.65,10.15,10.07,2.82,2.91,2.96,6.05.51,8.39-2.34,2.24-5.37,2.06-8.14-.63-3.5-3.4-6.97-6.84-10.34-10.37-1.24-1.3-1.99-1.31-3.23,0-3.28,3.46-6.69,6.8-10.09,10.13-2.95,2.89-5.97,3.17-8.39.88-2.52-2.39-2.28-5.57.73-8.63,3.1-3.16,6.07-6.48,9.44-9.33,3.36-2.85,5.22-6.05,4.57-10.5.74-.25,1.34.11,1.87.51,2.16,1.61,4.34,1.66,6.64.3.66-.39,1.41-.79,2.19-.14Z"/>
  <path class="cls-9" d="M446.54,340.26c-3.73,2.4-7.35,3.11-10.7-.67-2.73-2.88-5.85-5.29-9.01-7.67-3.62-4.46-2.07-8.51,3.39-10.11,7.38-2.17,14.54-2.33,21.93,0,5.46,1.72,6.97,5.56,3.42,10.14-3.16,2.62-6.44,5.09-9.03,8.32Z"/>
  <path class="cls-3" d="M552.99,255.72c3.32,3.01,3.66,4.97,1.36,8.55-2.02,3.15-4.03,6.31-6.25,9.31-1.16,1.58-.89,2.37.58,3.48,2.06,1.56,4.23,3.05,5.84,5.15-5.8,0-11.59,0-17.39.01-3.92-3.5-4.19-5.46-1.28-9.85,3.11-4.71,6.3-9.37,9.36-14.11,1.95-3.02,4.43-4,7.78-2.54Z"/>
  <path class="cls-4" d="M328.06,282.22c1.86-1.64,3.64-3.4,5.62-4.88,1.56-1.17,1.95-2.03.63-3.77-2.25-2.97-4.22-6.16-6.24-9.31-2.31-3.59-1.97-5.53,1.34-8.54,3.35-1.46,5.83-.49,7.78,2.53,3.06,4.74,6.25,9.4,9.36,14.11,2.9,4.39,2.64,6.38-1.27,9.86-5.74,0-11.48,0-17.23,0Z"/>
  <path class="cls-4" d="M457.5,306.22c-3.19,3.85-4.63,4.17-9.27,2.07-4.68-2.13-9.37-2.13-14.05,0-4.64,2.1-6.08,1.78-9.27-2.07-.11-1.05-.23-2.1,1.33-2.08.45,0,.9.03,1.35-.01,2.64-.27,6.13,1.23,7.68-.68,1.3-1.59.45-4.92.56-7.49,3.59-1.62,7.18-1.62,10.77,0,.42,2.62-1.17,6.14.75,7.67,1.6,1.28,4.93.42,7.49.49,1.41.04,3.16-.38,2.68,2.09Z"/>
  <path class="cls-7" d="M364.88,315c-3.03.02-6.06-.04-9.09.08-1.48.06-1.95-.42-1.89-1.89.12-3.03.06-6.06.08-9.09,0,0-.09.09-.09.09,3.03-.02,6.06.04,9.09-.08,1.48-.06,1.95.42,1.89,1.89-.12,3.03-.06,6.06-.08,9.09l.09-.09Z"/>
  <path class="cls-7" d="M479.34,304.18c3.03-.02,6.06.04,9.09-.08,1.48-.06,1.95.42,1.89,1.89-.12,3.03-.06,6.06-.08,9.09l.09-.09c-3.03.02-6.06-.04-9.09.08-1.48.06-1.95-.42-1.89-1.89.12-3.03.06-6.06.08-9.09l-.09.09Z"/>
  <path class="cls-7" d="M479.43,304.09c-2.93.01-5.87-.09-8.8.09-1.88.11-2.16-.64-2.2-2.31-.2-8.93-.25-8.88,8.68-8.69,1.66.04,2.42.31,2.31,2.2-.18,2.92-.07,5.87-.08,8.8,0,0,.09-.09.09-.09Z"/>
  <path class="cls-7" d="M364.79,315.09c2.93-.01,5.87.09,8.8-.09,1.89-.11,2.16.64,2.2,2.31.2,8.93.25,8.88-8.68,8.68-1.66-.04-2.42-.31-2.31-2.2.18-2.92.07-5.87.08-8.8,0,0-.09.09-.09.09Z"/>
  <path class="cls-7" d="M490.24,315.09c2.93-.01,5.87.09,8.8-.09,1.88-.11,2.16.64,2.2,2.31.2,8.93.25,8.88-8.68,8.69-1.66-.04-2.42-.31-2.31-2.2.18-2.92.07-5.87.08-8.8,0,0-.09.09-.09.09Z"/>
  <path class="cls-7" d="M353.98,304.09c-2.93.01-5.87-.09-8.8.09-1.89.11-2.16-.64-2.2-2.31-.2-8.93-.25-8.88,8.68-8.68,1.66.04,2.42.31,2.31,2.2-.18,2.92-.07,5.87-.08,8.8,0,0,.09-.09.09-.09Z"/>
  <path class="cls-5" d="M446.59,295.97c-3.59,0-7.18,0-10.77,0-.32-1.84-.07-3.04,2.33-2.78,2.02.21,4.09.21,6.11,0,2.4-.26,2.65.95,2.33,2.79Z"/>
</svg>